<mxfile host="app.diagrams.net" agent="Mozilla/5.0 (Macintosh; Intel Mac OS X 10_15_7) AppleWebKit/537.36 (KHTML, like Gecko) Chrome/132.0.0.0 Safari/537.36" version="26.1.0">
  <diagram name="Page-1" id="2LqmrFEb3qCte4LrgWL3">
    <mxGraphModel dx="2978" dy="1491" grid="1" gridSize="10" guides="1" tooltips="1" connect="1" arrows="1" fold="1" page="1" pageScale="1" pageWidth="827" pageHeight="1169" math="0" shadow="0">
      <root>
        <mxCell id="0" />
        <mxCell id="1" parent="0" />
        <mxCell id="eerBL6bkFfEhBPz6Ej5V-1" value="AIMAS" style="rounded=0;whiteSpace=wrap;html=1;fontSize=23;verticalAlign=top;fontStyle=1;dashed=1;dashPattern=8 8;" vertex="1" parent="1">
          <mxGeometry x="-200" y="530" width="1450" height="1000" as="geometry" />
        </mxCell>
        <mxCell id="eerBL6bkFfEhBPz6Ej5V-37" value="" style="rounded=0;whiteSpace=wrap;html=1;strokeWidth=0.8;fillColor=#CCE5FF;fontColor=#333333;strokeColor=none;" vertex="1" parent="1">
          <mxGeometry x="-151.25" y="625.71" width="381.25" height="520" as="geometry" />
        </mxCell>
        <mxCell id="eerBL6bkFfEhBPz6Ej5V-40" style="edgeStyle=orthogonalEdgeStyle;rounded=0;orthogonalLoop=1;jettySize=auto;html=1;entryX=0.5;entryY=0;entryDx=0;entryDy=0;strokeWidth=2;strokeColor=#FF9933;" edge="1" parent="1" source="eerBL6bkFfEhBPz6Ej5V-3" target="eerBL6bkFfEhBPz6Ej5V-18">
          <mxGeometry relative="1" as="geometry" />
        </mxCell>
        <mxCell id="eerBL6bkFfEhBPz6Ej5V-3" value="Msg5&lt;div&gt;（&lt;span style=&quot;font-family: Monaco; font-size: 13px; font-weight: 400; text-align: start; background-color: transparent; color: light-dark(rgb(0, 0, 0), rgb(255, 255, 255));&quot;&gt;RTS_{BU}_RAW_TXN_MSG5&lt;/span&gt;&lt;span style=&quot;background-color: transparent; color: light-dark(rgb(0, 0, 0), rgb(255, 255, 255));&quot;&gt;）&lt;/span&gt;&lt;/div&gt;" style="strokeWidth=1;html=1;shape=mxgraph.flowchart.direct_data;whiteSpace=wrap;fillColor=light-dark(#E6E6E6,var(--ge-dark-color, #121212));fontSize=17;fontStyle=1" vertex="1" parent="1">
          <mxGeometry x="-75.53777777777778" y="400" width="249.05660377358492" height="73.33333333333334" as="geometry" />
        </mxCell>
        <mxCell id="eerBL6bkFfEhBPz6Ej5V-58" style="edgeStyle=orthogonalEdgeStyle;rounded=0;orthogonalLoop=1;jettySize=auto;html=1;strokeWidth=2;strokeColor=#3333FF;" edge="1" parent="1" source="eerBL6bkFfEhBPz6Ej5V-9" target="eerBL6bkFfEhBPz6Ej5V-20">
          <mxGeometry relative="1" as="geometry">
            <Array as="points">
              <mxPoint x="250" y="869" />
              <mxPoint x="250" y="939" />
            </Array>
          </mxGeometry>
        </mxCell>
        <mxCell id="eerBL6bkFfEhBPz6Ej5V-9" value="Event Trigger Rule topic&lt;div&gt;(&lt;span style=&quot;font-family: Monaco; font-size: 13px; font-weight: 400; text-align: start; background-color: transparent; color: light-dark(rgb(0, 0, 0), rgb(255, 255, 255));&quot;&gt;TECHLAB_PROCESSING_AIMAS_&lt;/span&gt;&lt;/div&gt;&lt;div&gt;&lt;span style=&quot;font-family: Monaco; font-size: 13px; font-weight: 400; text-align: start; background-color: transparent; color: light-dark(rgb(0, 0, 0), rgb(255, 255, 255));&quot;&gt;{BU}_TIME_RULE&lt;/span&gt;)&lt;/div&gt;" style="strokeWidth=1;html=1;shape=mxgraph.flowchart.direct_data;whiteSpace=wrap;fillColor=light-dark(#E6E6E6,var(--ge-dark-color, #121212));fontSize=17;fontStyle=1" vertex="1" parent="1">
          <mxGeometry x="289.9961006289308" y="829.9995238095239" width="200.62893081761007" height="78.57142857142857" as="geometry" />
        </mxCell>
        <mxCell id="eerBL6bkFfEhBPz6Ej5V-15" style="edgeStyle=orthogonalEdgeStyle;rounded=0;orthogonalLoop=1;jettySize=auto;html=1;entryX=0.5;entryY=0;entryDx=0;entryDy=0;fontSize=17;fontStyle=1;strokeColor=#FF9933;strokeWidth=2;" edge="1" parent="1" source="eerBL6bkFfEhBPz6Ej5V-16" target="eerBL6bkFfEhBPz6Ej5V-20">
          <mxGeometry relative="1" as="geometry" />
        </mxCell>
        <mxCell id="eerBL6bkFfEhBPz6Ej5V-16" value="Enrichment&lt;div&gt;(API/RPC MDM/...)&lt;/div&gt;" style="rounded=1;whiteSpace=wrap;html=1;fillColor=#ffe6cc;fontSize=17;strokeColor=#d79b00;fontStyle=1" vertex="1" parent="1">
          <mxGeometry x="-55.539224318658285" y="798.7128571428573" width="204.0880503144654" height="52.38095238095237" as="geometry" />
        </mxCell>
        <mxCell id="eerBL6bkFfEhBPz6Ej5V-18" value="Event task Orchestration&lt;div&gt;(task pipeline)&lt;/div&gt;" style="text;html=1;align=center;verticalAlign=middle;whiteSpace=wrap;rounded=0;fontSize=17;fontStyle=1" vertex="1" parent="1">
          <mxGeometry x="-151.25" y="621.4300000000001" width="400" height="78.57" as="geometry" />
        </mxCell>
        <mxCell id="eerBL6bkFfEhBPz6Ej5V-19" value="" style="edgeStyle=orthogonalEdgeStyle;rounded=0;orthogonalLoop=1;jettySize=auto;html=1;fontSize=17;fontStyle=1;strokeColor=#FF9933;strokeWidth=2;" edge="1" parent="1" source="eerBL6bkFfEhBPz6Ej5V-20" target="eerBL6bkFfEhBPz6Ej5V-30">
          <mxGeometry relative="1" as="geometry" />
        </mxCell>
        <mxCell id="eerBL6bkFfEhBPz6Ej5V-20" value="Event Trigger Rule Calculation&lt;div&gt;（Drools execution）&lt;/div&gt;" style="rounded=1;whiteSpace=wrap;html=1;fillColor=#ffe6cc;fontSize=17;strokeColor=#d79b00;fontStyle=1" vertex="1" parent="1">
          <mxGeometry x="-66.23962264150944" y="899.7090476190479" width="227.1488469601677" height="78.57142857142857" as="geometry" />
        </mxCell>
        <mxCell id="eerBL6bkFfEhBPz6Ej5V-22" value="processed topic&lt;div&gt;(&lt;span style=&quot;font-family: Monaco; font-size: 13px; font-weight: 400; text-align: start; background-color: transparent; color: light-dark(rgb(0, 0, 0), rgb(255, 255, 255));&quot;&gt;TECHLAB_PROCESSING_AIMAS&lt;/span&gt;&lt;/div&gt;&lt;div&gt;&lt;span style=&quot;font-family: Monaco; font-size: 13px; font-weight: 400; text-align: start; background-color: transparent; color: light-dark(rgb(0, 0, 0), rgb(255, 255, 255));&quot;&gt;_{BU}_TRANSACTION_RULE&lt;/span&gt;&lt;/div&gt;&lt;div&gt;&lt;span style=&quot;font-family: Monaco; font-size: 13px; font-weight: 400; text-align: start; background-color: transparent; color: light-dark(rgb(0, 0, 0), rgb(255, 255, 255));&quot;&gt;_MATCH&lt;/span&gt;&lt;span style=&quot;background-color: transparent; color: light-dark(rgb(0, 0, 0), rgb(255, 255, 255));&quot;&gt;)&lt;/span&gt;&lt;/div&gt;" style="strokeWidth=1;html=1;shape=mxgraph.flowchart.direct_data;whiteSpace=wrap;fillColor=light-dark(#E6E6E6,var(--ge-dark-color, #121212));fontSize=17;fontStyle=1" vertex="1" parent="1">
          <mxGeometry x="442.24318658280924" y="1182.8571428571427" width="200.62893081761007" height="78.57142857142857" as="geometry" />
        </mxCell>
        <mxCell id="eerBL6bkFfEhBPz6Ej5V-26" value="AIMAS Portal" style="rounded=1;whiteSpace=wrap;html=1;fillColor=#e1d5e7;fontSize=17;strokeColor=#9673a6;fontStyle=1" vertex="1" parent="1">
          <mxGeometry x="1030" y="584.0600000000001" width="195.31" height="87.41" as="geometry" />
        </mxCell>
        <mxCell id="eerBL6bkFfEhBPz6Ej5V-27" value="" style="shape=image;verticalLabelPosition=bottom;labelBackgroundColor=default;verticalAlign=top;aspect=fixed;imageAspect=0;image=data:image/png,iVBORw0KGgoAAAANSUhEUgAABqwAAAJ6CAYAAABdfGOAAAABW2lDQ1BJQ0MgUHJvZmlsZQAAKJF1kD1Lw2AUhU8/JNI6WFAQdAhOClVqtdC1ZhBBIVSl6pamsRXT+JJERCiI6A9wEtyLLq5SHfz4AXaQgoI4ujgLWbTE+zZqWsULl/NwOPdyuUCwW2FMDwMoG7aZnZkWl1dWReEVIUQRwwAERbVYRpbnKIJv7SznAQGujTG+6+V6I3WzV01fHpztFq7q4t98R0UKmqWSflAnVGbaQCBOLG/bjHOFuM+ko4gPORc9rnLOe3zRyixmJeI74l61pBSIn4nj+Ta/2MZlfUv9uoFf36MZSwt8D/UQZEgQMY9NGFiHTWr+k59q5SVKMOzApHQRJZoQkSGHQYdGPEt7VIwjTpxEgjrF//z7f75XmQCkESAY873cPXAaAQaPfW+4AfTXgfN9ppjKz1cDTtham0x6HK0BXUeu+5YDhFGg+ei67zXXbZ4AoSfg1vkEu0pkuA/RUCQAAABsZVhJZk1NACoAAAAIAAQBGgAFAAAAAQAAAD4BGwAFAAAAAQAAAEYBKAADAAAAAQACAACHaQAEAAAAAQAAAE4AAAAAAAAAkAAAAAEAAACQAAAAAQACoAIABAAAAAEAAAasoAMABAAAAAEAAAJ6AAAAANgv4qgAAAAJcEhZcwAAFiUAABYlAUlSJPAAAEAASURBVHgB7N0HmCRF2QDg2nT5yHBw5CSIiiAqiCBZggQBJShRRECCAhKE34AoICIgIAoq4UAFQZCcEUGCJEkiUUUySLy0l3b/+frooXd3Zm8v7szcWzxz3V1d3V39Vu8yT39bVU2jx7R3JokAAQIECBAgQIAAAQIECBAgQIAAAQIECBAgQIBAPwk099N1XZYAAQIECBAgQIAAAQIECBAgQIAAAQIECBAgQIBAJiBg5UEgQIAAAQIECBAgQIAAAQIECBAgQIAAAQIECBDoVwEBq37ld3ECBAgQIECAAAECBAgQIECAAAECBAgQIECAAAEBK88AAQIECBAgQIAAAQIECBAgQIAAAQIECBAgQIBAvwoIWPUrv4sTIECAAAECBAgQIECAAAECBAgQIECAAAECBAgIWHkGCBAgQIAAAQIECBAgQIAAAQIECBAgQIAAAQIE+lVAwKpf+V2cAAECBAgQIECAAAECBAgQIECAAAECBAgQIEBAwMozQIAAAQIECBAgQIAAAQIECBAgQIAAAQIECBAg0K8CAlb9yu/iBAgQIECAAAECBAgQIECAAAECBAgQIECAAAECAlaeAQIECBAgQIAAAQIECBAgQIAAAQIECBAgQIAAgX4VELDqV34XJ0CAAAECBAgQIECAAAECBAgQIECAAAECBAgQELDyDBAgQIAAAQIECBAgQIAAAQIECBAgQIAAAQIECPSrgIBVv/K7OAECBAgQIECAAAECBAgQIECAAAECBAgQIECAgICVZ4AAAQIECBAgQIAAAQIECBAgQIAAAQIECBAgQKBfBQSs+pXfxQkQIECAAAECBAgQIECAAAECBAgQIECAAAECBASsPAMECBAgQIAAAQIECBAgQIAAAQIECBAgQIAAAQL9KiBg1a/8Lk6AAAECBAgQIECAAAECBAgQIECAAAECBAgQICBg5RkgQIAAAQIECBAgQIAAAQIECBAgQIAAAQIECBDoVwEBq37ld3ECBAgQIECAAAECBAgQIECAAAECBAgQIECAAAEBK88AAQIECBAgQIAAAQIECBAgQIAAAQIECBAgQIBAvwoIWPUrv4sTIECAAAECBAgQIECAAAECBAgQIECAAAECBAgIWHkGCBAgQIAAAQIECBAgQIAAAQIECBAgQIAAAQIE+lVAwKpf+V2cAAECBAgQIECAAAECBAgQIECAAAECBAgQIEBAwMozQIAAAQIECBAgQIAAAQIECBAgQIAAAQIECBAg0K8CAlb9yu/iBAgQIECAAAECBAgQIECAAAECBAgQIECAAAECAlaeAQIECBAgQIAAAQIECBAgQIAAAQIECBAgQIAAgX4VELDqV34XJ0CAAAECBAgQIECAAAECBAgQIECAAAECBAgQELDyDBAgQIAAAQIECBAgQIAAAQIECBAgQIAAAQIECPSrgIBVv/K7OAECBAgQIECAAAECBAgQIECAAAECBAgQIECAgICVZ4AAAQIECBAgQIAAAQIECBAgQIAAAQIECBAgQKBfBQSs+pXfxQkQIECAAAECBAgQIECAAAECBAgQIECAAAECBOaagNW4sWPTE48/3nuLd3Smr++3T/b55z8rl833P3DfA72fq0b3Pv3UU+kbBx2QDj3km2n8+AmztJa/vfCCdM1VV6W33nqr6nnf+N//0rXXXJtuuP761DGlo2o5OwgQIECAAAECBAgQIECAAAECBAgQIECAAIG5R6B1brnV0047NV188UVpiy0+lw7Y/6C02OIjK9763XffleXvttvuve7fbrsvVNzfPfPlF19KDz389+7ZM7Td1NScNtt88xk6Nj/onXfeSbff/pdsc+yYd9PgwQvnu2ZqGfd50kknZufYc8+90kHf+GaaPGlyuv/+e9NKK62c5l9ggWzff/79XDr66COy9TXWWCMttPCsuf5MVd7BBAgQIECAAAECBAgQIECAAAECBAgQIECAQL8KzBUBq+jJ8+yzz2bQ1157TYrP/vvvn3bfba80ZuzocgN0dLzf4+fdd0ent958s7wvVjo7O8vbo0e/22V/a0trGj7vPOX9+cqjjz2ajjrqyHxzppeVAlZRzyuuuqJP537x+efL5S655OI0eOjQ8nZvK1ts+rm0yKKLVC1y4W8vKO/74g47Zuv/+Mdjab9Sj7VIl/3xT2nZ5ZfP1v1DgAABAgQIECBAgAABAgQIECBAgAABAgQIECgKzBUBq+aW5vTrX52bbrr5xnTCCT9Kb7zxRvr5z3+eHnzw7ynvUVVEifUjjvhW96wu2z/4wfdTfPK0fCkYc2kpKNNbGtrH4FD3c4wtDWfYW4r7+dkpJ/dWpOK+s88+q2J+pczVP7p61YBVBMx+97sLs8O23HKrtNhii2Xr999/X/lUSy+zbHndCgECBAgQIECAAAECBAgQIECAAAECBAgQIECgKDBXBKzihjubOtPGm2ySPv6JT6Tvfff/smHxYli/agGrItKsWv/rnffM0KlGjTovnXLyT6seO3LkyPT1rx+Qij3EqhV+4ol/pttu+3O2e5dddkvDhg2rVrRL/iIjRnTZLm5ccslF5c04Z57uvfdv2eo666ybImgoESBAgAABAgQIECBAgAABAgQIECBAgAABAgQqCcw1Aav85uebb750yimnpftKcyutueZa6c5SECkP9HR2dKbPrPfprOjJPz01feKTn8wPKy/XXXftbP0Hx/4wbbD+huX81paW8vqcXhlS6rm199emDr03fvyE9L/XX6tahSWXXLocsFp/vQ3TIiOqD/O36IhFU9vAtqrnih3t48alUaNGZWU+9am100orr5ytRz3ygNUqq6ySYjvShInt2TL+GT++vZxfziytDGhrTS2t/edZrIt1AgQIECBAgAABAgQIECBAgAABAgQIECBAYPYL1HzAasqN96SmzimpedOpgaRZQRK9fSJYFSmCPeVUCljlafCQwWnY8OH5Zo/l4EFDet3f44A5lPHoYw+lffb+ap+u9tW99+i13NFHfyd94Ys79FrmotI8WPmQhbvvsWe57OOPPVZej6EHKw0/uPXWW5TLFFcO+sbBac89v1LMsk6AAAECBAgQIECAAAECBAgQIECAAAECBAg0sEBtB6z+9VKasN03M/5B91+UmldeZo41xX777ZMWXHDBOXa92XGhHXbYMTU1NXU59dNPP12au+uBLG/rrbdJgwcP7rI/Ni6+eOoQfx0dU3rsK2Y8/9/ny3Nnxfxca33yU6mz9F+kG2+6rljUOgECBAgQIECAAAECBAgQIECAAAECBAgQIECgqkBNB6w6S8PNldPY8eXV6V0599xz0vP/fS7tu8/+aZFFqw+B1/28b7zxRvesuto+4oijeswddf9996W9957ae+nAA7+RFlp44R73dPXVV5V7TfXYmWeUeqN9//vfybfSoEGDsnnCImPM6NHpD3+4ONu35ZZbpU033bxc7pmnn0w/O+1n2fYPjz0hzTvfPOV9+UoMISgRIECAAAECBAgQIECAAAECBAgQIECAAAECc49ATQWsOm5/MKV3x6aWzT+dOkvD9jUvtVi5JVpWWnpq353SvEdTrr49NS23ZGpe44Pl/dVWXn31lXTaz07Jdl9++WXpa6W5nnbbbY80dNiwnoc0N6WLLrqknD9x4sRS2S9n2zHv1WKLvV+fpZdaulyuryubbbpJX4t2KTdmzOgu233dOPLIw3r0sHrzzTfLh3/3u/+XhlcY9jAf4q9csMLKb875dbmnVvfdl152aTnra1/bLy251JLl7RhKMU9rrvXJigGzfL8lAQIECBAgQIAAAQIECBAgQIAAAQIECBAgMHcI1E7A6vW3UvsWX8/Um9b9WBry+x+nzvmGp6aFFkhp/mGpc1gp0PHy/1L7tgenjseezsoNefOvKQ3o/RZGLDwiHX/8iemkk36cosdUzKV0xRVXpJNPOTWtssqH0qQJk9I7775dbu3iMIATJkws588777xdhggcM3ZMik+eKvVUyvflywieze40oHVA+RI33XRjeb3Syt1331Upe5p5t956azrjjNMqlvvf66+XhwlcZ511uwSrKh4gkwABAgQIECBAgAABAgQIECBAgAABAgQIEJjrBXqP9sxBnqbS0HDNKy+XOp74V+q848E0fuN90qCrTkstHy/1opq/NGzck8+l8VsfmDpffC2rVZRtamsrz5lUtaqlXlObbb55Wm/9DdMvzjw9XXDB+SkCR++8PTVIdf6oc9PPf3561cPzHV/5yu75asXlQ39/rDwkXrHAxz/+8fTd7x1TzOqyPm7s2FIw7cQsb/vtv5A+9OGPdNlf3Og+H1VxX76+2uqrpz/fdke+2WN579/+lo444ltZ/qWXXp4WXGihHmXyjMGlYf66p9HvvJsOPeQb5eyddvpSqVfa78rbz/7r2RTzWUUvrf2/fkA53woBAgQIECBAgAABAgQIECBAgAABAgQIECBAoJpAzQSsOtta0qA7zkmTL7oxTf7NZanjoSfS+PW/kpo+tEJqendMGrdOad6l8aXhAtf6aGr76rap+fMbVQwQVbvRwYMHpkMO/VZae+210w03XJ8+tfans6IdHZOrHTJL8hdYcMG07bbbVT1X+7jx5YDVWmutnTbeZMaGDcwv8Oijj6ZJEyfkmz2Wr78+NeAXO/7zn/+kd955v3dZ98JtbQPSR1ZdtUv28HnnSRtuuFG69dZb0o9+VOoF1zGly/4111wrXXnlNen2O25PK5uLqouNDQIECBAgQIAAAQIECBAgQIAAAQIECBAgQKCyQM0ErLLqDR6UWvfcOvt0PvxUmnT6RaUA1rXZrrb9d0qte2+XmlZYqvKd9DF3rU+tneLTPe2885fTEYd/Oz308N/TSh/4QBo0ZEg2XOAn1/xYVvTKK69NAwa2pUcfebQcVPr3s8+m7bb/fPdTVdz+9pGHp/b29rTWWp9KO+60c8UyM5s5ZvTotNuuX+rzab71rYN7LRvDI958y209yhx88LfSMsssm7b43Bbpmquu6rE/gnSf//y2PfJlECBAgAABAgQIECBAgAABAgQIECBAgAABAgQqCdRWwKpUw6aOzjTlzr+nyRdeUw5WRcUnnXNV6pw4KbV++XOp+eOrVLqXmc676eYb02GHHZIOKQVkdt295xCAJ/74hKxn0eWXX5mWWXbZPl+vY0pHuv7667Lyiy02ss/HTW/BltL8Vbvssluvhz377DMpn7sqhiAcPHhIj/J3331nerYUjKuWllhyiXTgQe8PC1gs98Tjj6fDDj+0mNVlffz48eXtnXb6Yun6g8vbxZX1S0M4Hvqtw4pZ1gkQIECAAAECBAgQIECAAAECBAgQIECAAIEGFaipgNXk31+XJh3369T57xcz7rZDdk2dz72ampdbPHW89Fqa/Ks/Zp/m1VZOA76zd2redOqwftPbNhFU+Ulp3qgzfn5Wl0M/vc5nsvmXYl6rHXbcMTU3tXTZv8ceX8kCVuedd076/jHHdtnX28arr7xS3v3BVUpzclVJV111RXr00Ueq7J2a/cEPrpLNyVWpUAx7OK0gz/333VcOWO2779fTQgsv3ONUo0YtnE45+ac98vuSMWHixPTCCy/0pWh64403qpZ75ZWXq+6zgwABAgQIECBAgAABAgQIECBAgAABAgQIEGgsgZoJWHW+8laauPcxZd0BPz4kte6/Qxr/ke2zeZIGnf/D1DRigTTp5Auy+a3atz80DfnfHSkNaisf09eVc879TXrwwQfS2WedWerhM7B8WKzvvvue6cwzz0jXXntN2vJzW5f3xUrM57TEEkukK674U9rna/t12dfbxpNPPVnevfJK1QNWt9/+lxSf3tLapbm3Ntt88y5FfvPrX6V77rm7S161jXfffae865BDD04DBwwob+crzz//fLYaAaW9v1qaO6yUVlhhxXTEkd/O1nv7Z7FFR6ZvHHxI1SIvls596aWXZPu/+tV90tDhQyuWXWG5FSrmyyRAgAABAgQIECBAgAABAgQIECBAgAABAgQaT6BmAlbNC86TmldeLnVOmZwG/Oig1LLFOqlp9List1VHa0vqbG5KbT/YPzWvuHSa+J0zUxo+ODUNHJA6S/9NT4p5p2666cbskDXXXDM98shDXQ5/8cWpvYMuuuh36XNbbtVl3wvPv1DuPTTqgvPTDl/cocv+ahu3335beddLL7+UVizNkVUprbLKKmm55ZavtKuct9zyPQM5jzzycLr//vvKZfq68mjpuGml/LyTJk+aVtFs/yKLLpL2KAX9qqUH7nugHLDasdSLrVIPr2rHyidAgAABAgQIECBAgAABAgQIECBAgAABAgQaU6BmAladbS1p0P2/66I85Yl/Z9udT/83pXETUxoyILXsumUaXPpEmt5gVRwTvasifaAUNPrUWp/uErB6s9SjKHpPRXrqqafSY92G5/vjH6f2DIr9EdDafPMtYrXXFPNX3XjjDeUyZ5/1i7T+ZzZInU09A2177vnVtPEmm5TL9nXl8MO/nQ48sPKcUt3P8ehjj6YfHPO9LPuXZ/0qLbjAgt2LZAYXXjgqGx7xvPMuyPYPHTasRzkZBAgQIECAAAECBAgQIECAAAECBAgQIECAAIFZIVAzAauKN/Pq+3Mcdb72RmpaZrGKxfqa+fx/n09XX31VVnzvvfftETQ699xzsn3bbrtduvzyy7JhAfNzv/ji8ynmrlp++eXTxhtvks4665fphhuuz3dXXd53/71p7Nix5f2Pl+bPuvC3o9KXd9m1nDezK4svsXh2iqbOpjSlY0qvp3vjzfdNl1pq6TRikRE9yi+w4NQg1qBBg9IKK67YY78MAgQIECBAgAABAgQIECBAgAABAgQIECBAgMCsFKjpgFXzxz6U0uChqXnpEalp5MIzfd9nn/2L7BwjRiyaNtxwoy7ne/TRh9Njjz2WPvOZ9dJhhx+VBayuv/66cpkf/ejYbH2//Q4o9c5aKQtYXXHF5eX9lVYigHTG6T/LdsU1N9hgw6xn1kknnZgWXniR9NlNN6102Azn3fHX20s9rb7e5+O32PyzfS6rIAECBAgQIECAAAECBAgQIECAAAECBAgQIEBgdgnUdMAqjVwwDX3lppSaS3NYVRhCb3pQni4N8Zf3rtp3v6+XTtnc5fAIVkU65NDD0uDBA7NeVDffXLr2e+mFF17IglkbbbxxlhNDCr744ov57orL227/cxYEi5377Ltf2nqrbUpDDT6ZHnzwgXTEEd8q9dC6Lh30jYMrHjsjmW0D2tKC7/WOqnb8G6VhD/NUrWyxTF7WkgABAgQIECBAgAABAgQIECBAgAABAgQIECAwuwRqO2BVuuvOLLDUc76n6QU59dSTs0OWWGKJtNWWW/c4fKedvpQ222zztPTSS2f7vnXY4el73zsmrbvu2tn2OeecX94XGb8869fp7TffTNtt//lsf/d/Xn/ttXT8cT/KsiMwtOUWW6WW1pZ04oknpR13/EKKoNCtt96SfbofO6Pba665Vrr5ltt6Pfz+++5Le+/9lazMRRddkhZauGfPtd9eeEGKXmASAQIECBAgQIAAAQIECBAgQIAAAQIECBAgQGBOCNR8wGpWIPz1jjvSXXfdmZ1qv/0OzAJH3c/b1NSUPrraauXsGMJv0oRJ5e2FFlo45XM7Reb888+fXn355fL+4srbb7+dBYVeffWVLPvoo76T2ga2ZesLLrRQ+tOfrko///kZ2fCAxeMOO+yQFAG1KLNIacjABRdcKM0zz/BikdTRkUqfKSnml9r7a/t02deXjYkTJ5aLxT1XSl/4whdLvcnWT60tLZV2yyNAgAABAgQIECBAgAABAgQIECBAgAABAgQIzFKBuSJgNe+882Zo0Xtqs802mynA/73+ejr44IOyc7z8XsAqelAVhyw8/rgfpueeey4rc/jhR6YNNuo6X9aw4cPTEUd+O23xuS3TOb/5Vbrttj+X6xRDD8ZnWmmTTfo2/9RpPzs13XnnHam1dWpT5/WK8w+fZ56KlxlYCoYtudSSFffJJECAAAECBAgQIECAAAECBAgQIECAAAECBAjMaoG5ImD1kVVXTb//3cVp9JgxPeauykEHDhyYr5aXMYTfxz62RmpvH59a26ZSLbDAgikCVfk8TxGs2nffr5ePiZXDDjsiPf74P9Kmm26edv7Sl7vsK2585CMfSaecelrqmNKRnnzqifTQ3/+eXi8FxMaOHZOil9a4ceNSsUdU8djtttu+uFl1fdVVP5rOPfc3PfZHIG3AgAE98mc0o7V1ag+yGT3ecQQIECBAgAABAgQIECBAgAABAgQIECBAgMDcK9A0ekz7zE8QVcd+48dPSO3jx6ZhQ4eXh+2b1u2MGT06K9LSOiANHtwz0BU7x5aCY3HOYs+raZ13duyPYQ2ffPrJ1FbqYRW9rOYp9apaZOERs6xeE9rbs8BaBPyGDB06zVsI7zf+93pWbuTIkVUDiNM8kQIECBAgQIAAAQIECBAgQIAAAQIECBAgQIBAwwjM9QGrhmlJN0KAAAECBAgQIECAAAECBAgQIECAAAECBAgQqFOB5jqtt2oTIECAAAECBAgQIECAAAECBAgQIECAAAECBAg0iICAVYM0pNsgQIAAAQIECBAgQIAAAQIECBAgQIAAAQIECNSrgIBVvbacehMgQIAAAQIECBAgQIAAAQIECBAgQIAAAQIEGkRAwKpBGtJtECBAgAABAgQIECBAgAABAgQIECBAgAABAgTqVUDAql5bTr0JECBAgAABAgQIECBAgAABAgQIECBAgAABAg0iIGDVIA3pNggQIECAAAECBAgQIECAAAECBAgQIECAAAEC9SogYFWvLafeBAgQIECAAAECBAgQIECAAAECBAgQIECAAIEGERCwapCGdBsECBAgQIAAAQIECBAgQIAAAQIECBAgQIAAgXoVELCq15ZTbwIECBAgQIAAAQIECBAgQIAAAQIECBAgQIBAgwgIWDVIQ7oNAgQIECBAgAABAgQIECBAgAABAgQIECBAgEC9CghY1WvLqTcBAgQIECBAgAABAgQIECBAgAABAgQIECBAoEEEBKwapCHdBgECBAgQIECAAAECBAgQIECAAAECBAgQIECgXgUErOq15dSbAAECBAgQIECAAAECBAgQIECAAAECBAgQINAgAgJWDdKQboMAAQIECBAgQIAAAQIECBAgQIAAAQIECBAgUK8CAlb12nLqTYAAAQIECBAgQIAAAQIECBAgQIAAAQIECBBoEAEBqwZpSLdBgAABAgQIECBAgAABAgQIECBAgAABAgQIEKhXAQGrem059SZAgAABAgQIECBAgAABAgQIECBAgAABAgQINIiAgFWDNKTbIECAAAECBAgQIECAAAECBAgQIECAAAECBAjUq4CAVb22nHoTIECAAAECBAgQIECAAAECBAgQIECAAAECBBpEQMCqQRrSbRAgQIAAAQIECBAgQIAAAQIECBAgQIAAAQIE6lVAwKpeW069CRAgQIAAAQIECBAgQIAAAQIECBAgQIAAAQINIiBg1SAN6TYIECBAgAABAgQIECBAgAABAgQIECBAgAABAvUqIGBVry2n3gQIECBAgAABAgQIECBAgAABAgQIECBAgACBBhEQsGqQhnQbBAgQIECAAAECBAgQIECAAAECBAgQIECAAIF6FWitt4o3Nzenluam1NrSnJpKy6am+NTbXagvAQIECBAgQIAAAQIECBAgQIAAAQIECBAgQGDuFOjsTKmz9E9nR2eaPKUjTSkt6yZg1VIKVA1oa0ktrTqFzZ2Pr7smQIAAAQIECBAgQIAAAQIECBAgQIAAAQIEGkEgOiJFh6RU6piUx33qImA1cEBraisFqyQCBAgQIECAAAECBAgQIECAAAECBAgQIECAAIHGE6jpgFX0qho4sDU1lyJsEgECBAgQIECAAAECBAgQIECAAAECBAgQIECAQGMK1GzAqrWlqRSsajM/VWM+d+6KAAECBAgQIECAAAECBAgQIECAAAECBAgQIFAWqMmA1dSeVYJV5VayQoAAAQIECBAgQIAAAQIECBAgQIAAAQIECBBoYIHmWry3GAYw5tqSCBAgQIAAAQIECBAgQIAAAQIECBAgQIAAAQIEGl+g5gJWAweYs6rxHzt3SIAAAQIECBAgQIAAAQIECBAgQIAAAQIECBB4X6CmAlYxFGBbW8v7tbNGgAABAgQIECBAgAABAgQIECBAgAABAgQIECDQ8AI1FbAaIFjV8A+cGyRAgAABAgQIECBAgAABAgQIECBAgAABAgQIdBeomYBVc6l3VUtrzVSnu5NtAgQIECBAgAABAgQIECBAgAABAgQIECBAgACB2SRQMxGiluam2XSLTkuAAAECBAgQIECAAAECBAgQIECAAAECBAgQIFDLAjUTsGptqZmq1HJ7qRsBAgQIECBAgAABAgQIECBAgAABAgQIECBAoOEEaiZK1KSHVcM9XG6IAAECBAgQIECAAAECBAgQIECAAAECBAgQINAXgdoJWDUZErAvDaYMAQIECBAgQIAAAQIECBAgQIAAAQIECBAgQKDRBGooYNVotO6HAAECBAgQIECAAAECBAgQIECAAAECBAgQIECgLwI1E7DqS2WVIUCAAAECBAgQIECAAAECBAgQIECAAAECBAgQaDwBAavGa1N3RIAAAQIECBAgQIAAAQIECBAgQIAAAQIECBCoKwEBq7pqLpUlQIAAAQIECBAgQIAAAQIECBAgQIAAAQIECDSegIBV47WpOyJAgAABAgQIECBAgAABAgQIECBAgAABAgQI1JWAgFVdNZfKEiBAgAABAgQIECBAgAABAgQIECBAgAABAgQaT0DAqvHa1B0RIECAAAECBAgQIECAAAECBAgQIECAAAECBOpKQMCqrppLZQkQIECAAAECBAgQIECAAAECBAgQIECAAAECjScgYNV4beqOCBAgQIAAAQIECBAgQIAAAQIECBAgQIAAAQJ1JSBgVVfNpbIECBAgQIAAAQIECBAgQIAAAQIECBAgQIAAgcYTELBqvDZ1RwQIECBAgAABAgQIECBAgAABAgQIECBAgACBuhIQsKqr5lJZAgQIECBAgAABAgQIECBAgAABAgQIECBAgEDjCQhYNV6buiMCBAgQIECAAAECBAgQIECAAAECBAgQIECAQF0JCFjVVXOpLAECBAgQIECAAAECBAgQIECAAAECBAgQIECg8QQErBqvTd0RAQIECBAgQIAAAQIECBAgQIAAAQIECBAgQKCuBASs6qq5VJYAAQIECBAgQIAAAQIECBAgQIAAAQIECBAg0HgCAlaN16buiAABAgQIECBAgAABAgQIECBAgAABAgQIECBQVwICVnXVXCpLgAABAgQIECBAgAABAgQIECBAgAABAgQIEGg8AQGrxmtTd0SAAAECBAgQIECAAAECBAgQIECAAAECBAgQqCsBAau6ai6VJUCAAAECBAgQIECAAAECBAgQIECAAAECBAg0noCAVeO1qTsiQIAAAQIECBAgQIAAAQIECBAgQIAAAQIECNSVgIBVXTWXyhIgQIAAAQIECBAgQIAAAQIECBAgQIAAAQIEGk9AwKrx2tQdESBAgAABAgQIECBAgAABAgQIECBAgAABAgTqSkDAqq6aS2UJECBAgAABAgQIECBAgAABAgQIECBAgAABAo0nIGA1g2368MMPpy233DJtt912ady4cTN4lsqHnXLKKWnUqFHp9ddfr1yglPvyyy+nCy+8MF100UVpypQpVcvZQYAAAQIECBAgQIAAAQIECBAgQIAAAQIECBCodYGm0WPaO2uhksOGDqyFavS5DrfeemvaaKONsvIvvvhiGjlyZJ+P7a3gv//977TccstlRY444oh0wgknpIkTJ6bbbrstrbbaammRRRbJ9sX2BhtskK3Pyuv3Vjf7CBAgQIAAAQIECBAgQIAAAQIECBAgQIAAAQKzQ6B1dpy0Xs/52muvpfPPP79P1X/mmWfK5X7xi1+keeaZp7zd28rOO++cllhiiapFTj311PK+/fbbL1u/77770qabbpqtP/bYY+lDH/pQuYwVAgQIECBAgAABAgQIECBAgAABAgQIECBAgEC9CwhYFVrwlVdeSYcffnghp2+rP/zhD/tWsFRq7bXXrhqwioDZaaedlp1r1113TUsvvXS2/pe//KV8/pVXXrm8boUAAQIECBAgQIAAAQIECBAgQIAAAQIECBAg0AgCAlaFVlxmmWXSMccckzo6Ogq5lVcfeuihdMUVV2Q7Dz744D73sOqtd1X01MpTnDNPt9xyS7a6+eabp5aWljzbkgABAgQIECBAgAABAgQIECBAgAABAgQIECDQEAICVoVmjGH9vvvd72Y548aNSzE3VLW0wgorlANW22yzTa9zWC211FJp4MDe5+gaPXp0Oumkk7LLbbLJJmn11Vcv1yPmy4q0xhprpKhXpPHjx2fL+Gfs2LHl/HJmaaWtrS37FPOsEyBAgAABAgQIECBAgAABAgQIECBAgAABAgRqTaBp9Jj2zlqo1LChvQd05nQdo1fTxhtvPEsuGz2n9t13317PdeKJJ6YjjjgiK3PTTTeVr33bbbelDTbYoNdjq+084YQTyuesVkY+AQIECBAgQIAAAQIECBAgQIAAAQIECBAgQKC/BfSw6kMLRLCpubm5S8lHH3003XHHHVne7rvvnoYOHdplf2yceeaZWd60hhh8+umny4GlYcOGpY022qh8rosvvri8boUAAQIECBAgQIAAAQIECBAgQIAAAQIECBAg0IgCAlZ9aNUzzjijx9xRMUxfHlg67rjjKg4JOGrUqDRmzJherxDBrL322qtcZsiQIampqSnbfvvtt9Mvf/nLbH3XXXdNO+64Y7ncI488ko466qhsO66zwAILlPflKzGEoESAAAECBAgQIECAAAECBAgQIECAAAECBAgQqHUBAas+tNDOO+9cDiLlxV977bV8Ne2xxx5p/vnnL2/nK9MKVkW5GLYv76mVH5cvzz777Hw1fec730krrrhiebvYoysCZyNHjizvs0KAAAECBAgQIECAAAECBAgQIECAAAECBAgQqCcBAasqrTVw4Ptzal1yySVVSk3NjjmnZiRdfvnl6eijj6546EsvvVQeJnDzzTfvEqyqeIBMAgQIECBAgAABAgQIECBAgAABAgQIECBAgECdCghYVWm4ddZZJ73++utV9qZ0yy23pJ122inbH/NZLbroolXLFntD5YXefPPNtN122+Wb6YADDkgx9GCeHn/88RTzWUUvrWOPPTbPtiRAgAABAgQIECBAgAABAgQIECBAgAABAgQINJyAgFWVJr333ntTe3t7lb0pRQ+oPD355JMpAlDV0oABA9Jaa63VZXfMObXtttum6GV1wQUXpJjLqpg23njj9Mwzz6Srr746mYuqKGOdAAECBAgQIECAAAECBAgQIECAAAECBAgQaDQBAasKLfr222+nNddcs8Keyllf+MIXKu94L3eRRRZJr776ao8yP/nJT9JKK62UdtlllzRq1Kge+0eMGJH22muvHvkyCBAgQIAAAQIECBAgQIAAAQIECBAgQIAAAQKNJCBgVaE1o0fUwQcfXGHP+1mPPfZYyueu2nvvvbPh+97fO3XthhtuSDG0X7W0/PLLp+OPP77i7gceeCDtsMMOFfdFZgwVmKfVV1+94vVj/zbbbJNOPvnkvKglAQIECBAgQIAAAQIECBAgQIAAAQIECBAgQKDmBASsKjTJkCFDphnkufXWW8sBq+9///tp5MiRPc500kknpcMOO6xHfl8yYjjCf/3rX30pml577bXsU6nwf//730rZ8ggQIECAAAECBAgQIECAAAECBAgQIECAAAECNSMgYFVoiuOOO64chCpkV1wtzlm1/fbbp0GDBvUoF3NQRYqA0gYbbJCtf/jDH06nn356tt7bP0svvXQ68cQTqxaJc5999tnZ/qOOOirNN998FcuussoqFfNlEiBAgAABAgQIECBAgAABAgQIECBAgAABAgRqRUDAqtASd911V7rtttsKOX1bveeee6ZZMD/vpEmTplk2CiyxxBK99s6K8+UBq/33379iD68+XUghAgQIECBAgAABAgQIECBAgAABAgQIECBAgEA/CwhYFRrgtNNOS9HLqi/p3nvvTTF3VaSYy2qRRRbpcdh5552XTjnllGx+qTvvvDPbX60nVI+DZRAgQIAAAQIECBAgQIAAAQIECBAgQIAAAQIE5hIBAatCQy+33HLZVmdnZ+ro6Cjs6bkaw/zl6QMf+EBafPHF883ycsSIEdl6zIm16qqrlvOtECBAgAABAgQIECBAgAABAgQIECBAgAABAgQIvC8gYPW+RXnt2muvTVtuuWV5e1orMd+URIAAAQIECBAgQIAAAQIECBAgQIAAAQIECBAgMGMCAlYV3AYOHFhxiL9i0WIPq0rDAUbZYpnisdYJECBAgAABAgQIECBAgAABAgQIECBAgAABAgTeFxCwet+ivLbxxhunV199tbxdaeXWW29NG220Ubbr73//exo5cmSPYjF/1SGHHNIjXwYBAgQIECBAgAABAgQIECBAgAABAgQIECBAgMD7AgJW71tM19qECRPK5ZuamsrrxZV99903G1qwtRVz0cU6AQIECBAgQIAAAQIECBAgQIAAAQIECBAgQKAoIJJS1Ohl/cgjj0zXXXddyoNPTz31VLn0/PPPX14vrgwePDituOKKxSzrBAgQIECAAAECBAgQIECAAAECBAgQIECAAAEC3QQErLqBVNtca6210o9//OMeu0899dQ0aNCgHvkzmjFgwIAZPdRxBAgQIECAAAECBAgQIECAAAECBAgQIECAAIG6FGgaPaa9sxZqPmzowFqoRtU6xBCADz/8cGpra8s+8803X1p88cVTteEAq56oyo7x48en0aNHZ8GveeaZp0qp97PHjRuXXn755SxjmWWWSS0tLe/vtEaAAAECBAgQIECAAAECBAgQIECAAAECBAgQqCMBAas6aixVJUCAAAECBAgQIECAAAECBAgQIECAAAECBAg0okBzI96UeyJAgAABAgQIECBAgAABAgQIECBAgAABAgQIEKgfAQGr+mkrNSVAgAABAgQIECBAgAABAgQIECBAgAABAgQINKSAgFVDNqubIkCAAAECBAgQIECAAAECBAgQIECAAAECBAjUj4CAVf20lZoSIECAAAECBAgQIECAAAECBAgQIECAAAECBBpSQMCqIZvVTREgQIAAAQIECBAgQIAAAQIECBAgQIAAAQIE6kdAwKp+2kpNCRAgQIAAAQIECBAgQIAAAQIECBAgQIAAAQINKSBg1ZDN6qYIECBAgAABAgQIECBAgAABAgQIECBAgAABAvUjIGBVP22lpgQIECBAgAABAgQIECBAgAABAgQIECBAgACBhhQQsGrIZnVTBAgQIECAAAECBAgQIECAAAECBAgQIECAAIH6ERCwqp+2UlMCBAgQIECAAAECBAgQIECAAAECBAgQIECAQEMKCFg1ZLO6KQIECBAgQIAAAQIECBAgQIAAAQIECBAgQIBA/QgIWNVPW6kpAQIECBAgQIAAAQIECBAgQIAAAQIECBAgQKAhBQSsGrJZ3RQBAgQIECBAgAABAgQIECBAgAABAgQIECBAoH4EBKzqp63UlAABAgQIECBAgAABAgQIECBAgAABAgQIECDQkAICVg3ZrG6KAAECBAgQIECAAAECBAgQIECAAAECBAgQIFA/AgJW9dNWakqAAAECBAgQIECAAAECBAgQIECAAAECBAgQaEgBAauGbFY3RYAAAQIECBAgQIAAAQIECBAgQIAAAQIECBCoH4HW+qlqbdS0s7MzTZw4KU2aMjlNntSROjqmpI5SnkSAAAECBAgQmBGB5qam1NzcklrbmlNbS2saMKAtNZXyJAIECBAgQIAAAQIECBAgQIDA3CQgYNXH1p4yZUoaP2FCam+f2McjFCNAgAABAgQITFsg/vClI/4QZkpK7an0PWNsSoMGDUiDBw5MLS0t0z6BEgQIECBAgAABAgQIECBAgACBBhAQsOpDI44bNz6Na59QLtnW2lL66+cBpb+Ebk0tzc0p/jJaIkCAAAECBAjMiEAErKZ0dJR6bk8u9eKemCaVIlfxBzLxGTJoYBoyZPCMnNYxBAgQIECAAAECBAgQIECAAIG6EmgaPaa9JsazGzZ0YM3BRa+q0WPGl/7ieXJWt/hr50GDBqXWUpBKIkCAAAECBAjMDoHJpeBVe3t7uVd3a2mYwOHDButtNTuwnZMAAQIECBAgQIAAAQIECBCoGQEBqypNMSmCVe+OyeanihdFQ0svitoMy1NFSzYBAgQIECAwqwXiu8jY9/5wJnpzD59nmO8isxrZ+QgQIECAAAECBAgQIECAAIGaEdBVqEJTZD2r3gtWDRzYmuab1wuiCkyyCBAgQIAAgdkoEH8oE99B4rtIDBsYf0gT31EkAgQIECBAgAABAgQIECBAgEAjCghYVWjVGAYwXgzFC6LhQ4dVKCGLAAECBAgQIDBnBOK7SDloVfqOIhEgQIAAAQIECBAgQIAAAQIEGlFAwKpbq44bN3XOqmy+CMGqbjo2CRAgQIAAgf4QiKBVfDeJeTXju4pEgAABAgQIECBAgAABAgQIEGg0AQGrQovGMDvj2idkOTFnlUSAAAECBAgQqBWB/LtJfFcxNGCttIp6ECBAgAABAgQIECBAgAABArNKQMCqIDl+wtRg1aBBA0xqXnCxSoAAAQIECPS/QMxpFd9RIuXfWfq/VmpAgAABAgQIECBAgAABAgQIEJg1AgJW7zl2luasam+fmG0NGjRo1ug6CwECBAgQIEBgFgrk31HiO0t8d5EIECBAgAABAgQIECBAgAABAo0iIGD1XktOnDgpW2trbUmtzVga5QF3HwQIECBAoJEE4jtKfFeJlH93aaT7cy8ECBAgQIAAAQIECBAgQIDA3CsgMvNe208qTWIeacCAqUPtvJdtQYAAAQIECBCoKYH8u0r+3aWmKqcyBAgQIECAAAECBAgQIECAAIEZFBCweg9u8qSObK21rXUGKR1GgAABAgQIEJj9Avl3lfy7y+y/oisQIECAAAECBAgQIECAAAECBGa/gIDVe8YdHVOytRbDAc7+p84VCBAgQIAAgRkWyL+r5N9dZvhEDiRAgAABAgQIECBAgAABAgQI1JCAgNV7jdHx3sTlzU1NNdQ8qkKAAAECBAgQ6CqQf1fJv7t03WuLAAECBAgQIECAAAECBAgQIFCfAgJW9dluak2AAAECBAgQIECAAAECBAgQIECAAAECBAgQaBgBAauGaUo3QoAAAQIECBAgQIAAAQIECBAgQIAAAQIECBCoTwEBq/psN7UmQIAAAQIECBAgQIAAAQIECBAgQIAAAQIECDSMgIBVwzSlGyFAgAABAgQIECBAgAABAgQIECBAgAABAgQI1KeAgFV9tptaEyBAgAABAgQIECBAgAABAgQIECBAgAABAgQaRkDAqmGa0o0QIECAAAECBAgQIECAAAECBAgQIECAAAECBOpTQMCqPttNrQkQIECAAAECBAgQIECAAAECBAgQIECAAAECDSMgYNUwTelGCBAgQIAAAQIECBAgQIAAAQIECBAgQIAAAQL1KSBgVZ/tptYECBAgQIAAAQIECBAgQIAAAQIECBAgQIAAgYYRELBqmKZ0IwQIECBAgAABAgQIECBAgAABAgQIECBAgACB+hQQsKrPdlNrAgQIECBAgAABAgQIECBAgAABAgQIECBAgEDDCAhYNUxTuhECs09g4sSJ6eabb07jxo2bfRdxZgIECBAgQIAAAQIECBAgQIAAAQIECBCYawVa59o7r8Ebf/nll9M///nPtNBCC6WVVlopDRw4cKZq+c4776S33347jRw5MrW1tfU4V0dHR3rzzTdTe3t7WmKJJVJsjxkzJis3bNiw1Nxc//HMKVOmpLFjx/a4994yBgwYkAYNGtRbkblu3+2335422WST7L5Hjx6d4vmYkRTP2LPPPpuee+65tPTSS6fll19+pp6z/BmOQNpSSy1VsUqTJk3KnvN4nhdeeOEU2+PHj8+uO6P3UfFC/ZgZAcX4Oa6WWltb05AhQ6rtrvn8aN/Jkyener+PmodWQQIECBAgQIAAAQIECBAgQIAAAQL9KFD/EYl+xJsVl77kkkvSlltumYYPH54FljbaaKP00Y9+NAuYxPLAAw9Mr7/+ep8v9fjjj6evfe1rackll0zzzTdfWmaZZdLDDz/c5fjrrrsu7bDDDmneeefNXuBH2c7OznTOOedkeZH/4osvdjkmNiJoEQGG+Hz1q1/tsb8WMx566KHyPcV99eVzzDHH1OKt9GudLr/88uz666677nQHqyKYcvzxx6fPfOYzqaWlJX3gAx/Igl+xjO3IP+GEE7JAUl9v8pprrunyDEfwq5giUHnmmWem+HmKAOSiiy6a9tprr6zIHnvskT0H8fNVKZ100knl5/zXv/51pSI1lxf32tuzPXTo0DRixIi03XbbpR/96EfpiSeeqLl76K1Cn/3sZ7P7i/aUCBAgQIAAAQIECBAgQIAAAQIECBBoTAE9rPqpXaP3UwSjLrjggqo1eOSRR1J8/vCHP6Tzzz8/bbbZZlXLxo4LL7ww7brrrj3KRC+rPMU1zzjjjHwzW0Yvk6hPBBZ6S9FT6V//+ldWZJFFFumtqH39LPC///0vRdAmgjXzzz//TNUmzjNq1KjsHDvttNN0nevJJ59MX/rSl9KDDz5Y9bg77rgjxeeyyy5Lv/3tb9OKK65YtWzs2H///bNgVPdC7777bppnnnmyXoIbbrhhuu+++7oUyX8OondVb+mNN94oP+fRE6xR0muvvZYi8BifCBBG0C+ChRIBAgQIECBAgAABAgQIECBAgAABAgRqQUDAqh9aIYb+++QnP5leeOGF7OoR/Dn44INTvGSP4ftiWL6nn346/eY3v0lXXHFFihfNm2++eTrxxBPTYYcdVrHGr7zySpdg1VlnnZX1LoneUHm68cYby8Gq6N0SL63XW2+9tMACC+RFel3O7BCFvZ58Duz8+c9/njbYYINpXqmvHtM8UT8WWH311bPna9ttt80CQTNTlbvvvrs8VOTnPve5Pp/q1ltvzZ7B/IBVV101e84/9rGPZcNeRs/Bv//97+n000/PAloRYIrn8s9//nNaf/3188O6LK+//vpysCrK5j23YhjNPP34xz8uB6u22WabdNBBB6VPfepTafDgwXmRXpf1Phzktddem1ZYYYUu9xjBvAi+XXnllVnwO37HxM/+TTfdlDbeeOMuZW0QIECAAAECBAgQIECAAAECBAgQIECgPwQErPpB/Tvf+U45WBUBgIsuuqjHMGsrr7xy2mqrrVIM37fFFltktTz88MOzIb2KQai8+ueee26+mgW5tt566/J2vnLyySdnq9GjKoJX3YdRy8tVW0ZALYYOrNe0+OKLpw9+8IP1Wv1+q/ef/vSn7Nqf+MQn+vzMRG+9/fbbr1zn73//++m73/1uampqKudFcDaG5dt9993Tsccem773ve9l+/bZZ5/02GOPVZx3bVrPcPQG++EPf5idZ6211koXX3zxdM8FF/XI61KubB2tRLCqUi+1NdZYI/v98cUvfjEbhjRuKYLiAlZ11LiqSoAAAQIECBAgQIAAAQIECBAgQKCBBcxhNYcbN3qUxEviSNHTJIbnigBStRQ9q/L5g6LMEUccUbHoU089Vc6v1gsmrh0pelZMb7CqfHIrc5VAR0dHedjKCHT0NcXcT/kzGb0HIwBUDFYVzxP5EcyKcpHiuF/96lfFIuX1fD62as9wcQi/qG+99wos3/gsXInfDzGHXaToBScRIDBV4J6/3Z/i8/TTz84wSRybn2eGT+JAAgQIECBAgAABAgQIECBAgMBcKiBgNYcb/uijjy5fMYaoa2trK29XW/n85z+fNt1002z3H//4x3Tvvff2KBpDCEaKXjAtLS099k+YMCEbWjB2fPjDH+6xf3ZlvPnmmynmMYrrT0+aNGlSNoRZ3Ne4ceOm59CaLfvWW2+lJ554Ir366qspAkHTm8IhLPO5mKb3+BkpH3NPxZCUkSr12qt0zqhnHliNYGxfeytFuTx4G8d3b/eYeyqvy0c+8pFKl07/+c9/yvkrrbRSeX12rkRbvvTSS9kwntPbrnGP8Yz/97//TfHMz6kUvc8ihWf+u2N2XTuGPr3rrrtSzKtWKUVvvAg0xvx40UOuryl3f/bZZ6fr5ymOi+Eo//nPf1atU291yNs6hlXsa4prxlCw8fMfvwek2hRYcIH5U/w/6+lnni0tp7+dIlg19dg3U5xLIkCAAAECBAgQIECAAAECBAgQmD4BAavp85qp0jGcXgzxFylezOcvjfty0mKw4P77788OOeOMM9Lw4cOzz5133pnlxTxAeV4sl1122Wy7OC9PzPFTLBO9YfqS4uV6flxcu5iOO+648r64z5hDK4YuXHDBBVMMbxjXj3mEzjnnnOJhPdbj3rbbbrs0YMCAtMwyy2RzGg0dOjSbCym/xx4HzYaM22+/vXw/Rx55ZK9XiADSiBEjsvIxnF0xRaAu5h5bcskls7nCYkjCRRddNM0777wphoZsb28vFs/Wb7vttvK1w+OWW25Jn/nMZ1I4hOX888+fIhgTQ0QWX/D/4Ac/KB+Xz48WvfPyNsuXxWN6XLxbRsyhFmmVVVbJrtltd8XNCKrlL/Ojh2Dca19SlIvykfJ53GI9egNF3YcMGRKbWYr51/L7iWXMAxfLjTbaKC+SDXtXLPOPf/yjvK+3le7+xbKbbbZZdp2o0+jRo9O3v/3t7P5iuMmYUyvuIYbwjABNb+mSSy7J5rGLNo3josdjPPN77LFHFrzq7dhZsa9Sb7cY+jH3qhbEipf5eZnuP8vF3wHxjF1wwQXZcxvP/qc//elsbrJi3W+++eYUntELLn7W4/dFa2trdkwMWVotdXePIRBz93vuuafiYVGfSy+9NHuWIqAfz0s80wsvvHB23QMPPDBFQLRaij8SyNs+b+tw+NCHPpROOeWUFEG3SimCW9/4xjeyPyKIITDj5z/myIuf3/POO6/SIfL6UWDFFZcvz+l4z9/um+6aRLAq0oorLF8alvP9+SOn+0QOIECAAAECBAgQIECAAAECBAjMpQLmsJqDDR9/YZ+nT37yk/lqn5bxYjRP8Vf6kSLYkQcG8n2xLObFi9zidl6umFftZWtetrjMj8t7uuT7IjCT79t7773Lwx7m+2MZL5PjM3jw4LTzzjsXd2XrsS+CWsUUgb04bwxdFp8I4MRcPLM7xQv2eKkdvT6iJ1wMWVcMmBSv/7vf/a7c82fLLbcs74qX5LvuumuK4ESe8vuJe4q5luL88WK/ufn92PHkyZPLlr/85S8rWsaweT/5yU+yoMkvfvGL7PR9eR7yevR1GfcWaaeddurrIemZZ54pl405qqYnRc+p3CvOE8eHVf5sFc9VzCuuVyvT10Bd0b97b7a8LtGrZ/3110/RA62YYn8Epe+4447sWS/+3OblTj/99HTQQQflm9kyfy7OP//8dPfdd2efCGzMrhSB7Uhx3Qj4RIoeXrnjO++8k+V1/yd6CuVlopdSMRV/B8T8Zd2HdSyWv+yyy9L2229fPLy8HnbRo/SAAw5IYVVM8XtnWu4RXCrOVRc/F/E74/HHHy+eqrweP4MRgP/3v/+dBbWKwf0oFD9fX//618vlYyVvrzjnIYcckn7/+9+nv/3tb12GvYy6brDBBuWhMeO4+J0S+fHzu+eee2Y9T7sHuaOc1H8Ca6358WxIvwjOxtB+sd2XFL2r8iRYlUtYEiBAgAAVesIXAABAAElEQVQBAgQIECBAgAABAgSmT+D9t+TTd5zSMyAQL0bztNpqq+WrfVpGb4A85QGrvfbaKwsOxIv9fH8MCRjb+Sd6JcV6PvdPnCN6E+T7Y/mlL30pP/UsWcYcXUsssUQaNWpU9mI2Xu5H0CdPcb3uw7098sgjaZNNNsmKrLrqqtlL/7Fjx2YBmRguLd8XL6vjxfKMpJjDK3pu9PaJXh+RohfGN7/5zWw9XtD/4Q9/yNa7/xO9yX72s59l2XHP0bsmUuTHi+g8+BK9n6LdondIBAgjSBUpAkJHHXVUtl7pn3y+s5/+9KdZcOTFF19MV199dXnovAho5fMQxYvzvF3jxXikCLzlebGM4ysNGVnp2o899lgWUIt922yzTaUiFfOKvXOqDd1X8cBSZrF8fp7oARh1f+ihh8qHRdsU7yuGd4vtYq+fMC6WmZVDBEagKj7xXEYvtHCNn7EI1ESKZ6ZSICLqlAerIggYwakIkL377rvZejxDEcyIYUAr9b4rA8zESjwveSAyntdKva1m4vTZoXmw6phjjknRWzGCNPvuu2+27/rrry8HqyLwE20W7RQBgghW5XOlRe/M7il+h+bu0SOsL+4RgIpeXpG22mqr7HdLDEEY7tEDKg9GXXPNNencc8/tcsn4WY2ejJFizsH42YsgZvwcP//88yl6q0aK3lNFxygTvQWjLeMeo93jDxZiONA4Nj9nmMR1pdoS+MB7vaOy4QELgahqtYxgVbF3VbVy8gkQIECAAAECBAgQIECAAAECBHoX0MOqd59Zujdeyuap+GI+z+ttGUNX5X/VnwefYmi4+ESKocUixcvZGFqre8p7RUR+vAiuVKb7MTO6HcGSePEcw3zlKV4Kxxw2+XxGEWDIe0pFr43Pfe5z2Uv+uMerrroqLbXUUvmh2cvmeKkbw+HFC+t4wX3ssceW9/d1JV6e9yVFsCnSLrvsUg4unHnmmdlwbd2Pj5fx8VI6UryEzoNBv/3tb8s9o2LYuBj+L08xb1mcO66z2267ZS+9/+///q8chMrL5ctrr722PFRe5MXL8TCK3huRIti34YYbpoUWWij7RF4MLxcp2mJG2zofDnC55ZZLEUTsa8o9onyxp0tfji+WzwNWcb+RIqiTp3juK91XBEfzFMdVKpPvn9llHqyKHoOR4nrRIyiGRIygUASL49nOe89F3aK9I6277ropelPl7RR5MURoHBdDBMbPTzxbn/3sZ2PXdKUIjOS/D/ID8wBLtGlxOM/o5TM7Uvwcx++peHaKKXph5QGpyI8gZLGN1llnnRSf+Hlfc801i4eW16flHnZF9zgwhu2LHmTdn+PFFlssnXbaaSmCaPG7JYLaxfTXv/613KMsAqerr756eXcEF+Nnftttt+0xh9a3vvWtcu+7CHbnQ13GwWETga74fRi/y6KnZfz+k2pHYIHS/FMxrF8EoeKz4IILlIYKnPr/2u61jLmuisEqvau6C9kmQIAAAQIECBAgQIAAAQIECPRdQA+rvlvNdMmYnyVP8df9M5qKL7ln9Byz87gIDBWDVfm1Nt5443y1y/Bc8WI/n3Mpht8qBqvyAyLIk/dKyIczy/dNzzJeFk/rk58vgiLRGy1SXLP78G+RH4GsPMXwf3nKe2rEC/tqwbXoYZP3hIqgU6UUcyUVX3bnZSLgkadHH300X52ly7wXzo477jhd5y0+530dhi+/QPHnoniefH8tLSMIkger8npFwLIYZPrPf/6T70oXXXRReT16H1b6OV5xxRWzeZaiYPfgSfngaayst956KeZZKn4i2BuBnmKw6qabbsrmZZrG6WZod/QI7B6sihNFD8Y8eB7DbBaDVcULRQAnArCVUl/cowdVMUUgtHuwKt8fbZb/PD3wwAN5drZ86623ytvRG6tSijYr9t6L3qN5z8joBVvp5zfOEz0iI8VQqBFMk2pLIAJP+bCcT/XSyyrfZ96q2mo/tSFAgAABAgQIECBAgAABAgTqU+D9CEp91r+uap3PFROVrhagqHZD8bI0f9E7vfMCVTvn7Mqv1jOi+AI7hvnLU8xLlad4SV3cl+fHMu81EgGu6J1UHIKrWK7aegwhNj1D28V5Yoi3fB6dGOYsny8q9kWb5EMFxjBv8803X2RndcuH6YvebDFsWbUUwbMYLi16mqy99to9ikVvk0opXrJHT5zozVQMilQqOyN50bspn/MnhqebnhT1ytM//vGPrGdcvj2tZX7NKFcMAkzruDm9P9otgkCVUvHnPNo+f+5jjqM8xbNb7TkfPnx4Vqx78CQ/dkaXUeeYIy6Gtos55Gbn75EYirJSiuchTzPaq6gv7hEAX3bZZfNL9VhG76aYpyuGXYxh/6JXXKRi78DYLvao+spXvpKOOOKIbD63vNdflOmeis9wBKSrtXNxrqzocVotoNb9/LbnnEAMDXjP397MhquMYf+6956KvBg2MFL3fXOulq5EgAABAgQIECBAgAABAgQIEGgcAQGrOdiWxd4ElXrr9FaV4kvQai9sezt+Tu6rFmgovqDNh92LehUDOtV6IxTrH4G7OCaG5JrdKXpmbLrppumGG25IMV/UCSeckOadd97ssnkvqtjI58GJ9WKvjOiZtfTSS0d2rynmi6qUqllG2QhARIrhz2Z1uvLKK7NTxgv3j3/849N1+mLAKu5r++237/PxRYfouVKrKZ6LfPjH7nWs9pwXe/1U6oHY/TwzGrCKgG7388ewhCNGjJjuIG/3OvV1u1pA55VXXimfolJPyvLOKisxR9/0usepIigVwebo5RY9mvqaIth44oknZr07I7B86KGHZp/4uYhhOLfccstsXqx55pmnfMoYkjFPxx9/fIrPtJKA1bSE+md/DAO41pqfKAWt7usxNKB5q/qnTVyVAAECBAgQIECAAAECBAgQaGwBAas52L7Feai6z28zrWoUX+T3FsSY1nlqcX8x4BI9oLoPs1apzpWGU6tUblbkfeMb38gCVnGu3//+92nffffNhvCKuW8iRZCt2Cbdh8GLof+mlar1rsjnP5rW8bN6/8UXX5yd8stf/nJ5Dqa+XqPYw2h6h7Urli+ep6/XnlPlqgVNert+cbjDvjwT1YbE6+0asS9+z1QLGE3r2GntLwaaeytbrfdj8Xku/tz3dq7ivhlxj+tEz7LiHwlEL7N4voYMGZIFfotDJRavF+uHHXZYNmRgBKijl2YEruITwa/4RPDq0ksvLQ8rWPz5j6ByBLWmlWIuLak2BYrzWUXgKgJYkWfeqtpsL7UiQIAAAQIECBAgQIAAAQIE6ltAwGoOt18ENy655JLsqjFsXHFep2pViReu8UI0T9WG28r319uy+HL9Bz/4Qc0NjRVzEkVPi3/961/Z8IARsLrmmmuyl9Zh/c1vfrMLeQwDmKfoXRRBrv5KMxIUiCHM8nnCpnc4wLjP6BkVL/Hjpf4tt9ySLWN7WinK//nPf86KRflij8RpHVsP+6OnXfSUjCBGzA9WLajTX/dSrE8xuFasz7PPPlvcnO71YmAmnrPiz/50n6yPB9x7773lYFXMKXXqqaeWeyfmp4jhAS+44IJ8s8dyrbXWSvE566yz0vPPP59ieMdzzjknXXfdddnzvcUWW6RXX301C4AV7+nHP/5xl96XPU4soy4EYri/N958Kxv+L+asWrAUsIoUc1wZCrAumlAlCRAgQIAAAQIECBAgQIAAgToRaK6TejZMNX/0ox+V72X//fdP48aNK29XWxk1alSKHlmRvva1r6VVVlmlWtGZyi/2fog5XuZU+vCHP1y+VB4oKWfUwEr06jj44IOzmkTA4a677kpnnnlmth3D33UPOoZjDF0W6Y477kjFHhdZ5hz4Jx+i7O67787m1JqeS1599dVZ8QiszEhwdODAgemnP/1pdo4YvjHm/elLOvzww8vztEVQYXb1omtra8uqEwHIvvYY6kv9p1VmtdVWy4qESfe5kqZ17JzYXxxis1pganqG06tU59wg9kVvpTmRIricp+OOO65HsCr25YHSvFxvyyWXXDJ94QtfSNdee2364Q9/mBWNNs3nJSwOZRk/f1JjCMR8VpFizqq8d1We1xh36C4IECBAgAABAgQIECBAgAABAv0vIGA1h9sgXmbGEFOR4qX1RhttlHoLDsVf/e+5557lWh5zzDHl9Vm9Ei9i8/Twww/nq7N9GQb5fEzRWyl/8VvpwtGjIQINczrtsssu5Uvuvffe6aabbsq2I5BVDPTlhfbYY49sNXoN7bPPPlUDI9H2MazYrE75EIVx/eL8Z325Tt4DMO55RoZgi2vsvPPOKYZdi3TeeeelCM5WC9xF/oEHHpjOP//8rHwE+3bcccdsfXb8U5xT7Jlnnpkdl6h4zuIwgDvssEN6++23K5aL+ZZi+LlYzskU83LlqVIA54UXXujTfEz5OSot119//fLPevQ+evrppysVS3/5y1+6zAVXsVAfMyOAmqdKAberrroqxb1VStHzqrffR9HrKk/5deaff/70xS9+Mcu+8MILU/zBQbX0j3/8I912223VdsuvIYF8aMC8SiuusHw2NGC+bUmAAAECBAgQIECAAAECBAgQIDDzAgJWM2843Wf49re/XR72Ll6gxpwz0bvkxhtvTPECM/IiULXOOuuk3XbbrXz+eIm96KKLlrdn9Ur0FspTBBBiyMLRo0dXfbGel53ZZfR4iZfGkaKnwiabbJIFOZ588skUQ9pFUOf2229Pm222WYqht6KXxIykJ554IrMN394+zz33XI/TzzfffOmggw7K8vMAUATZYo6nSumrX/1qivm4Iv3mN79JsR3D48UL8EmTJqW4t5/97Gdp2WWXzYI71Xq0VDp3X/Jizp48HXroodlzFdd+4IEH0iuvvJLv6rGMYc3yF+jbbrttj/19zYhAVwyflgcio0faMsssk04++eQsGBGGEZQ45ZRTsvx8DqEo/8tf/rJiELCv155WuWKPvggGR0AinvO+9Hac1rl72x/zlEWQJlJcM+Y2il5GL730Uvacx1Bzf/zjH9NHPvKR9JWvfCX94Q9/6O10s3zfvPPOmw19GSeOZ/akk07K6hY9Sq688sosuB4B0JlJ8VxEz6Q8RVAzhsyMZzICdOESw/ZFYCvvxZiXndFlDMOapwj4Rw/JCJKOHz8+XXbZZWnrrbfOd/dYnn322emjH/1oNqxf9P7Mh9iMZyV+J8Xv7UgxhGWx91g85zGMaKTdd989nXDCCdkwm3GPcWzM1Ra/T+JZjPutFszNTuCfmhGI4f8iUJV93utxVTOVUxECBAgQIECAAAECBAgQIECAQAMImMOqHxox/gI/5kA5+uijsxf4UYWf/OQn2adSdeLFZ/TCyYeZq1RmVuRF76/oBRLXisBR9HyKtOmmm6brr79+Vlyi6jniBXUEdOKa8VK82Kus+0H5kG7d86e1feSRR06rSLY/yh1//PE9yu63337ptNNOK+fH9vDhw8vbxZUYzu7iiy/OelpEMC7mu4lPpRRDsVXrbVOpfF/yokdTBBzC8oYbbsg++XGnn356OuCAA/LNLst8+LQIHK233npd9k3vxsc//vEsMBe9zaJHWvRiieBZtRTPWQRli/McVSs7M/nRuyl+9qI+MdRmBCQiRVChr8MXzuj1I8ARQY8IWse186E+K52v2jxSlcrOqrwIlOfDQEZP0Lw3aH7+CLjNrNG6666brrjiiiygG79nvvSlL+Wn77KcVT0pV1999RS9In/1q19lc1nF/cXzHdfOU/z+yQO1eV4s8x54v/jFL1J8IuXz2WUb7/0Tc+8V5wCLn+kIyMbPUNxHtHe1FM/7u+++m+L/C1LtC5izqvbbSA0JECBAgAABAgQIECBAgACB+hVort+q13fNBw0alM3zEy/yd91111Ts3RR3Fi9Uo6fR9773vfTQQw/N0mBVb3MDRe+W6BFQTK2tU+OavQ0P19s5i+fK1/Phs/LtWG644YYp5nzJeyYV94XHVlttle69997yi+Pi/mrrla5TrWyeH21TKa288sqp2FsjhvrrLcW1Y3i9eJldnB8oPybaPHqLRW+rNdZYI89O01vnwYMHl4/NV4YMGZLuv//+ipbRi6pauvTSS7NdMUfP9Naj0jlHjhyZBTujt1W0a/REKabYjp5c0ZMlet7MymBVtfpH+9588809fqbyQGi146Leve0r3le+XunnIgKiERiqFICO5yTmqXvxxRdTBPr6mor1qvb89uVca6+9dtYOxaHu4rj4+Yv5mqLnZbVUvNf8d0a1stGrKdo7D44Vy0VPtOj5FL288lS8vzyvt2WxLjFkZzxf0Zsv/z2bB6viWg8++GDaYIMNKp4untvLL788+92TFygG0qL+8Tur0u+CPGi17777lnsa5ueIZRhHL7qY506wqihjnQABAgQIECBAgAABAgQIECBAYG4VaBo9pr2zFm5+2ND35xnpj/r8782p88kstMB8/XH57JoxVNS///3v7OXmUkst1eUv9ud0paIuMTReDJsVQ7ktsMACc7QKcf14aR/LCGrMykDGHL2R9y4WvWqit1N84mV6DAU4vS/hZ7Te0Yb/+c9/sp49I0aMSAsttFDFU7311lvldo4eML0NlVbxBH3MfP3119PLL7+cIphVrS59PNVMF4vhJmNIvghqRM+ZCPTNyRTmYRHPR8whF8Py1Upqb29PMVRlPK8x71cxCDQr6xgG0QYREI/fNTMTcOtLvaLNYwjC6fWOn6M4LnpDRTvF7+hK89dVqkMMAxrHxr0OHTo0u8/e/gCg0jnkEeguUAvfW7rXyTYBAgQIECBAgAABAgQIECBAYGYEBKze0/PiZ2YeI8c2gkAEB2M+oZhLLYbmm9PBm0YwdA8ECBCYUwK+t8wpadchQIAAAQIECBAgQIAAAQIE5pSAgNV70l78zKlHznUIECBAgACBmRXwvWVmBR1PgAABAgQIECBAgAABAgQI1JqAOaxqrUXUhwABAgQIECBAgAABAgQIECBAgAABAgQIECAwlwkIWM1lDe52CRAgQIAAAQIECBAgQIAAAQIECBAgQIAAAQK1JiBgVWstoj4ECBAgQIAAAQIECBAgQIAAAQIECBAgQIAAgblMQMBqLmtwt0uAAAECBAgQIECAAAECBAgQIECAAAECBAgQqDUBAataaxH1IUCAAAECBAgQIECAAAECBAgQIECAAAECBAjMZQICVnNZg7tdAgQIECBAgAABAgQIECBAgAABAgQIECBAgECtCQhY1VqLqA8BAgQIECBAgAABAgQIECBAgAABAgQIECBAYC4TELCayxrc7RIgQIAAAQIECBAgQIAAAQIECBAgQIAAAQIEak1AwKrWWkR9CBAgQIAAAQIECBAgQIAAAQIECBAgQIAAAQJzmYCA1VzW4G6XAAECBAgQIECAAAECBAgQIECAAAECBAgQIFBrAgJWtdYi6kOAAAECBAgQIECAAAECBAgQIECAAAECBAgQmMsEBKzmsgZ3uwQIECBAgAABAgQIECBAgAABAgQIECBAgACBWhMQsKq1FlEfAgQIECBAgAABAgQIECBAgAABAgQIECBAgMBcJiBg9V6DNzc1ZWsdnZ1z2SPgdgkQIECAAIF6Esi/q+TfXeqp7upKgAABAgQIECBAgAABAgQIEKgmIGD1nkxzc0u2NqWjo5qVfAIECBAgQIBAvwvk31Xy7y79XiEVIECAAAECBAgQIECAAAECBAjMAgEBq/cQW9umUkyeNHkWsDoFAQIECBAgQGD2COTfVfLvLrPnKs5KgAABAgQIECBAgAABAgQIEJizAgJW73m3tbRmaxMnTpyzLeBqBAgQIECAAIHpEMi/q+TfXabjUEUJECBAgAABAgQIECBAgAABAjUrIGD1XtMMGNCWrU2aPCVNNixgzT6wKkaAAAECBOZmgfiOEt9VIuXfXeZmD/dOgAABAgQIECBAgAABAgQINI6AgNV7bdnU1JQGDRqQbbW3tzdOC7sTAgQIECBAoGEE8u8o8Z0lvrtIBAgQIECAAAECBAgQIECAAIFGERCwKrTk4IEDs6329olp0pSpf71c2G2VAAECBAgQINBvAvHdJL6jRMq/s/RbZVyYAAECBAgQIECAAAECBAgQIDCLBQSsCqAtLS1pyKCpQauxY8YX9lglQIAAAQIECPSvQP7dJL6rxHcWiQABAgQIECBAgAABAgQIECDQSAICVt1ac8iQwam1pTVNnjI5jR47pttemwQIECBAgACBOS8Q30niu0l8R4nvKhIBAgQIECBAgAABAgQIECBAoNEEBKwqtOjwYYNTc2leiAkTBK0q8MgiQIAAAQIE5qBABKviO0l8N4nvKBIBAgQIECBAgAABAgQIECBAoBEFBKwqtGoMszN8nmHloNXb74wxp1UFJ1kECBAgQIDA7BOIOaviO0g5WFX6bmIowNnn7cwECBAgQIAAAQIECBAgQIBA/wo0jR7T3tm/VZh69WFDp84dVQt1yeswpfSiaHRpLqsYgifSoEEDSp9BqbVZnC83siRAgAABAgRmrcDkjo7U3t5e+kzMThzDAEbPKsGqWevsbAQIECBAgAABAgQIECBAgEBtCQhY9aE9xo0bn8a1TyiXbGttSQMGDEitba2ppRS8iiF6JAIECBAgQIDAjAh0dHamKaUg1eRJk9PEiRPTpMlTyqcZMmigOavKGlYIECBAgAABAgQIECBAgACBRhYQsOpj60Zvq/ETJpT/2rmPhylGgAABAgQIEJhugejVPXjgQL2qplvOAQQIECBAgAABAgQIECBAgEC9CghYTWfLdZb+CnrixEmlOa0ml/4SuiN1dExJ8ZfREgECBAgQIEBgRgSip3Zzc0up53ZzaisN/zdgQFtq0nt7RigdQ4AAAQIECBAgQIAAAQIECNSxQGsd171fqh4vkAYOHJAGpgH9cn0XJUCAAAECBAgQIECAAAECBAgQIECAAAECBAg0mkBzo92Q+yFAgAABAgQIECBAgAABAgQIECBAgAABAgQIEKgvAQGr+movtSVAgAABAgQIECBAgAABAgQIECBAgAABAgQINJyAgFXDNakbIkCAAAECBAgQIECAAAECBAgQIECAAAECBAjUl4CAVX21l9oSIECAAAECBAgQIECAAAECBAgQIECAAAECBBpOQMCq4ZrUDREgQIAAAQIECBAgQIAAAQIECBAgQIAAAQIE6ktAwKq+2kttCRAgQIAAAQIECBAgQIAAAQIECBAgQIAAAQINJyBg1XBN6oYIECBAgAABAgQIECBAgAABAgQIECBAgAABAvUlIGBVX+2ltgQIECBAgAABAgQIECBAgAABAgQIECBAgACBhhMQsGq4JnVDBAgQIECAAAECBAgQIECAAAECBAgQIECAAIH6EhCwqq/2UlsCBAgQIECAAAECBAgQIECAAAECBAgQIECAQMMJCFg1XJO6IQIECBAgQIAAAQIECBAgQIAAAQIECBAgQIBAfQkIWNVXe6ktAQIECBAgQIAAAQIECBAgQIAAAQIECBAgQKDhBASsGq5J3RABAgQIECBAgAABAgQIECBAgAABAgQIECBAoL4EBKzqq73UlgABAgQIECBAgAABAgQIECBAgAABAgQIECDQcAICVg3XpG6IAAECBAgQIECAAAECBAgQIECAAAECBAgQIFBfAgJW9dVeakuAAAECBAgQIECAAAECBAgQIECAAAECBAgQaDgBAauGa1I3RIAAAQIECBAgQIAAAQIECBAgQIAAAQIECBCoLwEBq/pqL7UlQIAAAQIECBAgQIAAAQIECBAgQIAAAQIECDScgIBVwzWpGyJAgAABAgQIECBAgAABAgQIECBAgAABAgQI1JeAgFV9tZfaEiBAgAABAgQIECBAgAABAgQIECBAgAABAgQaTkDAquGa1A0RIECAAAECBAgQIECAAAECBAgQIECAAAECBOpLQMCqvtpLbQkQIECAAAECBAgQIECAAAECBAgQIECAAAECDScgYNVwTeqGCBAgQIAAAQIECBAgQIAAAQIECBAgQIAAAQL1JSBgVV/tpbYECBAgQIAAAQIECBAgQIAAAQIECBAgQIAAgYYTELBquCZ1QwQIECBAgAABAgQIECBAgAABAgQIECBAgACB+hIQsKqv9lJbAgQIECBAgAABAgQIECBAgAABAgQIECBAgEDDCQhYNVyTuiECBAgQIECAAAECBAgQIECAAAECBAgQIECAQH0JCFjVV3upLQECBAgQIECAAAECBAgQIECAAAECBAgQIECg4QQErBquSd0QAQIECBAgQIAAAQIECBAgQIAAAQIECBAgQKC+BASs6qu91JYAAQIECBAgQIAAAQIECBAgQIAAAQIECBAg0HACAlYN16RuiAABAgQIECBAgAABAgQIECBAgAABAgQIECBQXwICVvXVXmpLgAABAgQIECBAgMD/s3cncLJddZ3AT7/u9/KykA0IgZAEBMTIEpAdZQBBWZVFEBBUlmFREQZBZRlE3AZBVBxAFEREBpFhBsWwCojIEvZd9gGMkARCWJKQt3bP/d2XU9yuV9Wveqmlu7/n8+muqrvf77236tz7PwsBAgQIECBAgAABAgQIENhyAgJWW+6Q2iECBAgQIECAAAECBAgQIECAAAECBAgQIECAwOYSELDaXMfL1hIgQIAAAQIECBAgQIAAAQIECBAgQIAAAQIEtpyAgNWWO6R2iAABAgQIECBAgAABAgQIECBAgAABAgQIECCwuQQErDbX8bK1BAgQIECAAAECBAgQIECAAAECBAgQIECAAIEtJyBgteUOqR0iQIAAAQIECBAgQIAAAQIECBAgQIAAAQIECGwuAQGrzXW8bC0BAgQIECBAgAABAgQIECBAgAABAgQIECBAYMsJCFhtuUNqhwgQIECAAAECBAgQIECAAAECBAgQIECAAAECm0tAwGpzHS9bS4AAAQIECBAgQIAAAQIECBAgQIAAAQIECBDYcgICVlvukNohAgQIECBAgAABAgQIECBAgAABAgQIECBAgMDmEhCw2lzHy9YSIECAAAECBAgQIECAAAECBAgQIECAAAECBLacgIDVljukdogAAQIECBAgQIAAAQIECBAgQIAAAQIECBAgsLkEBKw21/GytQQIECBAgAABAgQIECBAgAABAgQIECBAgACBLScgYLXlDqkdIkCAAAECBAgQIECAAAECBAgQIECAAAECBAhsLgEBq811vGwtAQIECBAgQIAAAQIECBAgQIAAAQIECBAgQGDLCQhYbblDaocIECBAgAABAgQIECBAgAABAgQIECBAgAABAptLQMBqcx0vW0uAAAECBAgQIECAAAECBAgQIECAAAECBAgQ2HICAlZb7pDaIQIECBAgQIAAAQIECBAgQIAAAQIECBAgQIDA5hIQsNpcx8vWEiBAgAABAgQIECBAgAABAgQIECBAgAABAgS2nICA1ZY7pHaIAAECBAgQIECAAAECBAgQIECAAAECBAgQILC5BASsNtfxsrUECBAgQIAAAQIECBAgQIAAAQIECBAgQIAAgS0nIGC15Q6pHSJAgAABAgQIECBAgAABAgQIECBAgAABAgQIbC4BAavNdbxsLQECBAgQIECAAAECBAgQIECAAAECBAgQIEBgywkIWG25Q2qHCBAgQIAAAQIECBAgQIAAAQIECBAgQIAAAQKbS0DAanMdL1tLgAABAgQIECBAgAABAgQIECBAgAABAgQIENhyAgJWW+6Q2iECBAgQIECAAAECBAgQIECAAAECBAgQIECAwOYSELDaXMfL1hIgQIAAAQIECBAgQIAAAQIECBAgQIAAAQIEtpyAgNWWO6R2iAABAgQIECBAgAABAgQIECBAgAABAgQIECCwuQQErDbX8bK1BAgQIECAAAECBAgQIECAAAECBAgQIECAAIEtJyBgteUOqR0iQIAAAQIECBAgQIAAAQIECBAgQIAAAQIECGwuAQGrzXW8bC0BAgQIECBAgAABAgQIECBAgAABAgQIECBAYMsJCFhtuUNqhwgQIECAAAECBAgQIECAAAECBAgQIECAAAECm0tAwGpzHS9bS4AAAQIECBAgQIAAAQIECBAgQIAAAQIECBDYcgICVlvukNohAgQIECBAgAABAgQIECBAgAABAgQIECBAgMDmEhCw2lzHy9YSIECAAAECBAgQIECAAAECBAgQIECAAAECBLacgIDVljukdogAAQIECBAgQIAAAQIECBAgQIAAAQIECBAgsLkEBKw21/GytQQIECBAgAABAgQIECBAgAABAgQIECBAgACBLScgYLXlDqkdIkCAAAECBAgQIECAAAECBAgQIECAAAECBAhsLoGFzbW5k9/a1772LWX/wQPl1re8STnjjGsM3YAPfODj5dz3faScfeOzyu1ud4syNzc3dNojjcg6jz/+2HKzm59dTjzhuIGTX/zNb5ePfPTfy8LCfLu+HTvEHgdCGUiAAAECBAgQIECAAAECBAgQIECAAAECBAjMvICA1QqH6Hvfu7y87py3tlPs27uvPOTB9x449Xe/e1l5yV+9uuzbv6+cd94FbQBp4IQjDLzggq/31vkfXzm/POzh9ysHDx4sH/3Ip8t1rntGOfHE49ulnPfVC8srXvkP7fsb3OgHy1VOPmmEpZuEAAECBAgQIECAAAECBAgQIECAAAECBAgQIDB7AgJWKxyT9773w72xt7/9rXvv+9+8+MWvaoNVGX6rW51dPvu5Ly2bZO/l+8oZZ169nHTSCcuGD/rwD/94KECWcfe45x3bSf79s18sz//zl7fvn/H0x5VrXeua7Xv/CBAgQIAAAQIECBAgQIAAAQIECBAgQIAAAQJbQUDAaoWj+M9vfXc79mqnXKVc87SrlaWlpcOa+jv3/R8rn/z3z/aWcs7r317yNyj9we/+ern6Na46aFQ77Nvf/m553/s/2r6/4Q9fv5xyypXb95/6xOd785x++tV7770hQIAAAQIECBAgQIAAAQIECBAgQIAAAQIECGwFAQGrIUfxvPPOLxd+/aJ27J3ueJvyyle+rrz17e8ut7zF2eWXHvPgdvjHP/aZ8pIX/137ftfOXeWqVz152dLSlN8FF36jHXbmGaetGKzKRK9//b/05r/3fe7ce//JTx4KiGUZ8/PzveHeECBAgAABAgQIECBAgAABAgQIECBAgAABAgS2goCA1ZCj+La3HapdldE/+mM3K6997T+3Ux44cKB9fdu/vLe84hWvbd/n35WudGx55m8/fllA6dWveUN54xvf0U7z8Ifdv30d9i/9Zf3LO97bjr7maVcv1/mBM9v3e5u+s776tQva99e+9ukln5P27d3bvubfnsv39ob3BjZvFhbml21Pd5z3BAgQIECAAAECBAgQIECAAAECBAgQIECAAIFZERCwGnAkEhR617s/2I5J03zHHHPMsqm6gaj5HTvKwcXF8s2Lv1Ve9apzyoMffK922tS+qsGqW93yJuWMM66xbBn9H1K7KstJuu997tob/ZnPfr8/rHf867klf/3p6b/1x/2D2s93u9sdys/e7+4DxxlIgAABAgQIECBAgAABAgQIECBAgAABAgQIEJgVAQGrAUfi9f/09l7w6LTTTjlsisWDS+2w3UftKk996q+UC87/Rnnhi17RNhl4bFPTKv1dveCFf9tOk/6vHvbQ+x22jO6A//zqheUNb3pHOygBsJvc5Id6o//t397fe+8NAQIECBAgQIAAAQIECBAgQIAAAQIECBAgQGArCghY9R3V73zn0vKGN7+jb+jyjw98wD3K9X/wB8q1rnWNctJJJ5TTr3n1cvcv36ENOv3jP76lN/HJJ51Y/vvTHluOagJbw9LS0lJ5wQte3hs9P79Q5ubm2s+XXvq98qEPf6J9n5pet7vdzXvTfenL55U3vfmd7eeH/Ny9miYJj+uNq2+ud71r1bdeCRAgQIAAAQIECBAgQIAAAQIECBAgQIAAAQIzKyBg1Xdo/rbpl6o2zdc3atnHm970rGWfb3Pbm/VqSdURD3nwfcpxxy1vTrCOq69//+o3lAsu/Eb9uOy1NimYgQ944D2amlun9sYftXt3L2B19k1/uFzl5JN647whQIAAAQIECBAgQIAAAQIECBAgQIAAAQIECGwmAQGrztF63/s+2qvR1Bm84ttvNzWyXv3qc8p7z/3wYdP92fP/utz4Rj9UHvTAe5ZTTz28acF3N/1kvfkt/3rYfBlwUdMnVm0m8MwzTlsWrBo4g4EECBAgQIAAAQIECBAgQIAAAQIECBAgQIAAgU0qIGB1xYH73ve+V178kle1n9KPVNKwmlYHDx4sH/7wp8q7moDTxz/xmXba/EufVr/wkPuWk698YvnLF7+qXPytb7fjM036srrFLW5cbnmLs8vpp1+9fPe7l5WXvPTVvXkz/P0f+Fjv83lfuaBkO7INafJPIkCAAAECBAgQIECAAAECBAgQIECAAAECBAhsVQEBqyuO7O6mib0TTji+DTL9/C/ct7zuH9/avu8/8N9pAk2PfszTlgWzdu3cVe517zs3/Vpdu7z85a9tZ/mD339S+ee3vqu8/vVvL3v27isXfv2ick7z/l/e/p7yvOc9oxx//LHlOte5VvniF7/cBKTu3cyztCxglSYHn/Psp5T3vf+j5brXu1b/ZvhMgAABAgQIECBAgAABAgQIECBAgAABAgQIENgyAoeqEm2Z3Vn7juxoajP93AN/ulz/h65Tbn+7Ww5d0AlNoOmOd/zRdvy1zrxmedgv3r/82fN+q9z9rnco+/cdKP9x3tfav0xwz3v8eHnB83+n/NrjH1FucvYPtzWmHv+4h5X5+fl2/kc89P7tuu50p9u2n/v/nXTSCeWud7l9/2CfCRAgQIAAAQIECBAgQIAAAQIECBAgQIAAAQJbSkANq87h/JGb3aDcpKnZdKT0wAfcvdzj7rcvJ554/JEmLQmE3ejG12//Fpvm/fK5pqtf46rloQ+9X/247PULn/9y+dPnvXTZsO6H/QcWex+f9tTnlp0L319ub0Tz5sZNoOxRj3xgd5D3BAgQIECAAAECBAgQIECAAAECBAgQIECAAIGZEhCw6hyOubm5Xu2nzuDD3l54wUXL+p+qE3zve5fXt+VZf/iikuX1p4c//P7lmqed2j/4sM+X799XLrt8z2HDBw3Y10y7b/+gMaV846JvDR5hKAECBAgQIECAAAECBAgQIECAAAECBAgQIEBgRgQErNZwIC78+sXlS18+b8U5v/yV/xw4/rLLvh/UGjjBFQNPPeUq5e53v+PQSS44/+vlwx/5VDv+Dre/dTnm2KMHTnv66dcYONxAAgQIECBAgAABAgQIECBAgAABAgQIECBAgMCsCAhYreFInHbaKeVn7nvXw+a8oKl59e73fLAdfq+f+omysPNQX1XdCU9rmgEcJV31KieX+//M3YZO+rGPf7YXsLrHPe9YrnLySUOnNYIAAQIECBAgQIAAAQIECBAgQIAAAQIECBAgMMsCgzs+muUtnoFtO+WUK5d73uPHy5lnnFY+/onPlfmmX6p7NLWhfuxHb9bburvd7fbllrc4u3zpS+eVo3bubKfPPMcdd1xvGm8IECBAgAABAgQIECBAgAABAgQIECBAgAABAgRKUcNqjWfB/v0Hy4tf/KpyyWWXlcubvqvudrc7HLakf37re9paUGm678STTii3uMWND5vGAAIECBAgQIAAAQIECBAgQIAAAQIECBAgQIDAdhdQw2qNZ8BrX/vGNliV2R/1qAcNXMqDHniPthZWRv7FX76yXHDB1wdOZyABAgQIECBAgAABAgQIECBAgAABAgQIECBAYDsLCFiNePRvfZublIf83L3L3e5y+/KBD3y8vPHN72znvPOP/2g5/ZqnDlzKjqapwCc98RHl2KN3l4OLi+WPnvtXZbF5lQgQIECAAAECBAgQIECAAAECBAgQIECAAAECBL4vIGD1fYsV313nB84sd7rTbctll+8tL3zRK9ppT73aVcv973/3FedLn1WPfvSD22m+efG3yjnnvH3F6Y0kQIAAAQIECBAgQIAAAQIECBAgQIAAAQIECGw3AX1YrfKIv+pVr2vnuNKxx5anPPmX2xpT73nvR8qO+R3l05/8XG9pO3bM997f6EbXLze64VnlE5/8dJmbm+sN94YAAQIECBAgQIAAAQIECBAgQIAAAQIECBAgQKAUAatVngW/97u/Vv7pn95WbnXLm5bjjz+2fOOib5UXv+Tvli1l91G7ys6d3w9YZeSjHnn/sn//wXLSSScsm9YHAgQIECBAgAABAgQIECBAgAABAgQIECBAgMB2FxCwWuUZMD8/X+5975/szXXVq5xUzjj9GuWCCy4qTZdV5bTTTi33ve9de+PrmzQNOErKMiQCBAgQIECAAAECBAgQIECAAAECBAgQIECAwHYSmLvk0j1Ls7DDxx171CxsRm8bvnHRxeXAvoPluCsdU650pWN7w8f1Zu/efeXyy/eUXbt2lmOOOfqIq8n0F3/zO+10Vzv1yk2wTKTriGgmIECAAAECBAgQIECAAAECBAgQIECAAAECBGZSQMBqJg+LjSJAgAABAgQIECBAgAABAgQIECBAgAABAgQIbB8B1XK2z7G2pwQIECBAgAABAgQIECBAgAABAgQIECBAgACBmRQQsJrJw2KjCBAgQIAAAQIECBAgQIAAAQIECBAgQIAAAQLbR0DAavsca3tKgAABAgQIECBAgAABAgQIECBAgAABAgQIEJhJAQGrmTwsNooAAQIECBAgQIAAAQIECBAgQIAAAQIECBAgsH0EBKy2z7G2pwQIECBAgAABAgQIECBAgAABAgQIECBAgACBmRQQsJrJw2KjCBAgQIAAAQIECBAgQIAAAQIECBAgQIAAAQLbR0DAavsca3tKgAABAgQIECBAgAABAgQIECBAgAABAgQIEJhJAQGrmTwsNooAAQIECBAgQIAAAQIECBAgQIAAAQIECBAgsH0EBKy2z7G2pwQIECBAgAABAgQIECBAgAABAgQIECBAgACBmRQQsJrJw2KjCBAgQIAAAQIECBAgQIAAAQIECBAgQIAAAQLbR0DAavsca3tKgAABAgQIECBAgAABAgQIECBAgAABAgQIEJhJAQGrmTwsNooAAQIECBAgQIAAAQIECBAgQIAAAQIECBAgsH0EBKy2z7G2pwQIECBAgAABAgQIECBAgAABAgQIECBAgACBmRQQsJrJw2KjCBAgQIAAAQIECBAgQIAAAQIECBAgQIAAAQLbR0DAavsca3tKgAABAgQIECBAgAABAgQIECBAgAABAgQIEJhJAQGrmTwsNooAAQIECBAgQIAAAQIECBAgQIAAAQIECBAgsH0EBKy2z7G2pwQIECBAgAABAgQIECBAgAABAgQIECBAgACBmRQQsJrJw2KjCBAgQIAAAQIECBAgQIAAAQIECBAgQIAAAQLbR0DAavsca3tKgAABAgQIECBAgAABAgQIECBAgAABAgQIEJhJAQGrmTwsNooAAQIECBAgQIAAAQIECBAgQIAAAQIECBAgsH0EBKy2z7G2pwQIECBAgAABAgQIECBAgAABAgQIECBAgACBmRQQsJrJw2KjCBAgQIAAAQIECBAgQIAAAQIECBAgQIAAAQLbR0DAavsca3tKgAABAgQIECBAgAABAgQIECBAgAABAgQIEJhJAQGrmTwsNooAAQIECBAgQIAAAQIECBAgQIAAAQIECBAgsH0EFrbPrk53TxeXlsriUilLeV1stiXvp7tJ1k6AAAECBAgQIECAAAECBAgQIECAAAECBAhsA4G57GPzb0dTjWlubq7syPvmdZaSgNUYj0YTmyoHm38HDy41gaoxrsiiCRAgQIAAAQIECBAgQIAAAQIECBAgQIAAAQJDBNoQRWIWBzPBoYDF3NxSmZ+fK/NN4GoWYlcCVkMO3noGJzh1oAlSHUyVKokAAQIECBAgQIAAAQIECBAgQIAAAQIECBAgMGMCbSzjwFI50ASw5psqVwtN8GqagSsBqw0+QRabINX+5gALVW0wrMURIECAAAECBAgQIECAAAECBAgQIECAAAECYxFIBZzEN3YuNM0Fpr3AKaSmtUJpowQONAdzn2DVRnFaDgECBAgQIECAAAECBAgQIECAAAECBAgQIDAhgVTESYwjsY5pJAGrDVLff3CxHGgOpESAAAECBAgQIECAAAECBAgQIECAAAECBAgQ2KwCiXUk5jHpJGC1AeI5cIc6KtuAhVkEAQIECBAgQIAAAQIECBAgQIAAAQIECBAgQGCKAol5TDpoJWC1zgOeqnGCVetENDsBAgQIECBAgAABAgQIECBAgAABAgQIECAwUwKJfUyyeUABq3Uc/nRAphnAdQCalQABAgQIECBAgAABAgQIECBAgAABAgQIEJhZgcRAEguZRBKwWqPyUnN89uuzao16ZiNAgAABAgQIECBAgAABAgQIECBAgAABAgQ2g0BiIYmJjDsJWK1R+MDB5gCtcV6zESBAgAABAgQIECBAgAABAgQIECBAgAABAgQ2g0BiIYmJjDsJWK1BOJHEgxOqAreGzTMLAQIECBAgQIAAAQIECBAgQIAAAQIECBAgQGDDBBITGXctKwGrNRyug+M+KmvYJrMQIECAAAECBAgQIECAAAECBAgQIECAAAECBMYlMO7YiIDVGo7cwQlUfVvDZpmFAAECBAgQIECAAAECBAgQIECAAAECBAgQIDAWgXHHRgSsVnnYFpvaVSpYrRLN5AQIECBAgAABAgQIECBAgAABAgQIECBAgMCmFkhsJDGScSUBq1XK6rpqlWAmJ0CAAAECBAgQIECAAAECBAgQIECAAAECBLaEwDhjJAJWqzxFlsYYPVzlppicAAECBAgQIECAAAECBAgQIECAAAECBAgQIDAxgXHGSASsVnkYFxdXOYPJCRAgQIAAAQIECBAgQIAAAQIECBAgQIAAAQJbQGCcMRIBq9WeIONrnnG1W2J6AgQIECBAgAABAgQIECBAgAABAgQIECBAgMDkBMYYIxGwWuVhHOOxWOWWmJwAAQIECBAgQIAAAQIECBAgQIAAAQIECBAgMDmBccZIBKwmdxytiQABAgQIECBAgAABAgQIECBAgAABAgQIECBAYICAgNUAFIMIECBAgAABAgQIECBAgAABAgQIECBAgAABAgQmJyBgNTlrayJAgAABAgQIECBAgAABAgQIECBAgAABAgQIEBggIGA1AMUgAgQIECBAgAABAgQIECBAgAABAgQIECBAgACByQksTG5V1rQWgaWlpXLwwIFy4OCBsri4VJYOHixLc+Ps1mwtW2keAgQIEFiNwNzSXJmbny87dsyVhfmFMr+wUObm5laziA2b1u/MhlFaEIFlArN2nS8tLpYDi/ubfOViWVo8WBabPKZEgAABAgQIEFiLwI7m3mVux3xzH7OjLOzY2bzfMbX7mbVsv3kIECBAYHYF5i65dM9M3K0ed+xRs6vU2bI9+xY7n8b39uDigbJ/3/5y4MD+8a3EkgkQIEBgZgQWFnaWnbt2lvkdkylL4ndmZg69DdlGApO+zpeWFsv+A/vKvr37tpGyXSVAgAABAgSmIbDrqF1l58KuJnClMadp+FsnAQIEJi2we9d4vu8n81Rs0lqbfH179+4p+/d//8HCzoX5smvXrrKwsymF35RaSUkWiQABAgQ2r0BqNhxMbYf9B8q+ffuaB8oH2wIKKaSwc+euctRRu8e6c35nxspr4QRagWlf5/v37S17m7+a5CerhFcCBAgQIEBgvQKD8jkpIJO/o3Yd1RTE2xyF0tfrYH4CBAgQ2HgBNaxWaTrOGlaLzcPLPXv2NE3/HWi3avfuXWX37t1N9erxRCtXuesmJ0CAAIExCRy44vt/z55DhRV2NLWs8v2/Y4O///3OjOkAWiyBEQQmdZ2nVlXykweb5qST5CdHODgmIUCAAAECBNYl0J/PmW+aPc/9jNpW62I1MwECBGZaYFw1rASsVnnYxxWwWmz6prr8e99r+6dKfybHHnd02dn0byIRIECAwPYR2N/8Flx26eVtv4Xp/+boY44pOzbot8DvzPY5j+zpbAuM8zpfago9XX755W3/VPKTs30e2DoCBAgQILAVBbr5nLQOdPTRRzf9W2ncaSsea/tEgACBcQWsVN2ZgXMrJd5rsOqooxbKiSccJ1g1A8fFJhAgQGDSAimokN+A/BYszS21vw35jVhv8juzXkHzE9g4gXFd56lZVYNV8pMbd7wsiQABAgQIEBhdoJvPSbOByZskjyIRIECAAIFRBQSsRpUa43RptiUPJvNw4UrHHjfGNVk0AQIECGwGgfwW1KBVfiPWm/zOrFfQ/AQ2XmAc13keDMlPbvyxskQCBAgQIEBgdQI1n5O8yUbcz6xu7aYmQIAAgc0sIGA15aOXju/TZ1WabRGsmvLBsHoCBAjMkEB+E/LbkN+I/FasNfmdWauc+QiMX2CjrvP9+/a2fVbJT47/mFkDAQIECBAgMJpAzeekX83kVSQCBAgQIDCKgIDVKEpjmuZg8xBy//597dLTZ5VEgAABAgS6AvW3Ib8V+c1YbfI7s1ox0xOYvMB6r/M0s7P3iodAdVmT3wtrJECAAAECBAgcLlDzJsmraBrwcB9DCBAgQOBwAQGrw00mNmT/vv3tunbv3qXPqompWxEBAgQ2j0DagM9vRFL9zVjN1td5/M6sRs20BCYrsO7r/MChwk+u88keN2sjQIAAAQIEjiywLJ9zRZ7lyHOZggABAgS2s4CA1ZSO/lLTju+BAzVgtXtKW2G1BAgQIDDrArt3H/qNyG9GfjtGTX5nRpUyHYHpC6znOt+3twas5CenfyRtAQECBAgQINAvUPM5ybOs5n6mfzk+EyBAgMD2EBCwmtJxPnjgUNNOOxfmy8IOh2FKh8FqCRAgMPMC+Y3Ib0VS/e0YZaPrtH5nRtEyDYHpCqz1Ol9aXGw33HU+3eNn7QQIECBAgMBwgW4+p+Zdhk9tDAECBAhsdwGRkimdAQeaTieTdu061NTTlDbDagkQIEBgEwjU34r62zHKJtdp67yjzGMaAgSmJ1Cv1XrtjrIlBxYP1dav844yj2kIECBAgAABApMWqHmVmneZ9PqtjwABAgQ2j4CA1ZSO1eLioWadFnYuTGkLrJYAAQIENotA/a2ovx2jbHedts47yjymIUBgegL1Wq3X7ihbcvDAoRpWdd5R5jENAQIECBAgQGDSAjWvUvMuk16/9REgQIDA5hEQsJrSsVo6eLBd87zmAKd0BKyWAAECm0eg/lbU345RtrxOW+cdZR7TECAwPYF6rdZrd5QtWVqUnxzFyTQECBAgQIDAdAV6+Zwr8i7T3RprJ0CAAIFZFhCwmtLRWZo7VMNqx9zclLbAagkQIEBgswjU34r62zHKdtdp67yjzGMaAgSmJ1Cv1XrtjrIli0vyk6M4mYYAAQIECBCYrkDN59S8y3S3xtoJECBAYJYFBKxm+ejYNgIECBAgQIAAAQIECBAgQIAAAQIECBAgQIDANhAQsNoGB9kuEiBAgAABAgQIECBAgAABAgQIECBAgAABAgRmWUDAapaPjm0jQIAAAQIECBAgQIAAAQIECBAgQIAAAQIECGwDAQGrbXCQ7SIBAgQIECBAgAABAgQIECBAgAABAgQIECBAYJYFBKxm+ejYNgIECBAgQIAAAQIECBAgQIAAAQIECBAgQIDANhAQsNoGB9kuEiBAgAABAgQIECBAgAABAgQIECBAgAABAgRmWUDAapaPjm0jQIAAAQIECBAgQIAAAQIECBAgQIAAAQIECGwDAQGrbXCQ7SIBAgQIECBAgAABAgQIECBAgAABAgQIECBAJzTelwAAQABJREFUYJYFBKxm+ejYNgIECBAgQIAAAQIECBAgQIAAAQIECBAgQIDANhBY2Ab7aBcJECBAgAABAgQIECBAgAABAgQIENhGAktLpbR/i6UsLs21e74wv1TmFN/fRmeBXSVAYLMJCFhttiNmewkQIECAAAECBAgQIECAAAECBAgQWFEgwaqDe0vZd7CUAweWyo4mULX76Lmyc0czQiJAgACBmRRQpmAmD4uNIkCAAAECm1Pg61//ernZzW5WHv/4x5fPfvazK+7Epz71qXbaxz3uceUrX/nKitMOG/ntb3+7PO95zyt3vOMdy3/+538Om+yw4S972cvKT/7kT5YXv/jFh40zgAABAgQ2v8DHP/7x8vnPf37z74g9IDCDAq6vGTwoNmmgwN49pVx44Vw57yvN35fnyteb93v3ClYNxDKQAAECMyIwd8mle2bim/q4Y4+aEZKVN2PPvqYe8QakSy/9bruUq5x84gYszSIIECBAYKsLXHTxt9tdPO6440fa1Wn9zvzmb/5mefazn91u46c//enyQz/0Q0O390EPelB51ate1Y7/5je/WU4++eSh0w4b8cUvfrFc97rXbUf/+I//eHnrW99a5uYONfcxbJ4Mv+Utb1k+8IEPlNvd7nblne9850qTGkdgYgKzeJ1/97uH8qxHH3102blz50gWl19+edm/f3/ZtWtX2b1790jz7Nu3r+zZ0zxVatJxxx3Xzr93b1Mkeh3p2GOPLfPz8wOX8K1vfat87WtfK+eff3658pWvXK5//euXY445ZuC0Kw2sPitNs9K4hYWFNa13pWUad0jgx37sx8q73/3u8ru/+7vlv//3/74iS//5tyNF8EdIBw8eLJdddlk75Urn2wiL2rBJvve97zW1CA6U9Z5b9dxezXV8pJ245JJLSgId+T654Q1v2H5HHGmejO86jzJ9ppmV4zHq9m626dZ6ffXv53rP0/7l+TzbAqvN52zE3nz9a6V88iNz5YIL5tqmAU+5xlK58U2XytWuvhFLtwwCBAhsb4Hdu0bLM69WSZOAqxUzPQECBAgQIDBQIA9/a7DqlFNOKeeee2771z9xAlMJMtVg1Q/+4A+W173udf2TLft84xvfuPzIj/zIsmH5cJ3rXKf86Z/+aflv/+2/lbe//e0lNace9rCHHTZdd0BqdiVYlXSta12rffWPAIHDBT7zmc+Us846qx2Ra+xP/uRPDp9owJA8yPzwhz9cfuqnfuqI13adPbUyX/SiF7Ufv/GNb5QHPOAB7TVdx6/lNdf6D//wD/dmTZDq7/7u79pamZ/73Od6w+ubH/iBHyg/+qM/Wp7+9KeX613venXw0Nd/+7d/K//lv/yXoeNHGfHABz6w3aZRpu2f5n73u1/5yEc+0g7+v//3/5azzz67f5Jt+zk1bhOsSrrtbW97RIcXvvCF5QlPeEI7Xc6NUY5/Jj7nnHPKve9973a+FJi4053u1L6f5r/UHs6+3/rWty7vfe9717QpCXqdcMIJ7by5Hn7nd35nTcupM+U8fehDH9oGq+qwvD7iEY8oL3jBC8pRR61cePWjH/1oufnNb96d9Yjv3/jGN5a73vWu5Y/+6I/Kn//5n7fTP+UpTyn/9b/+1yPOa4KVBdZzfQ1bcr5/U3Dgvve9b7nXve5VrnrVqw6btC1oVPN6qWH/kpe8ZOi0RhDYu7+pVfXNufK1rzb9VjUcO3fOlaaMTJNmouy+A0SAAAECAwQErAagbMVBtaRdSp1f6UpX2oq7OHSf1rrvKeWb0pZJxx8/Wo2GoRuxDUaMoxTmetm6pTEHlQyv2zxoPUplDlIxjMDKAr/3e7/XmyBNA9aHCb2BV7xJ8Ona1752b3AeDg6btk7027/92wMDVhn/2Mc+tvzlX/5l+fd///fy5Cc/ufzcz/3cig+/nv/859fFlr/9278taZJwtQ/CegvwhsAWFkgNyTxE/H//7/+VV77yle2D32E1lipDmmBLsCrpn/7pn8pFF11UrnKVq9TRA19Tk+oVr3hFO+4e97hHO33yb+tN3dqWH/zgB0uWne+mYSn7mb98Lzz3uc9tmzZdaX9Tk2y9adSaPIPW8x//8R/t9mbchRdeOGiSbTvs9a9/fbvvqa13+9vffts6DNrx5I9zXSblvnAtNQsHLXfYsP7Abo7JpZde2k7+V3/1V21Nxze84Q3DZl/38NTgznWd1N/88KQt1r0zM7KAcVxf9fs3gcZHPvKRJfm+1Iwc9B2cWo31mKaAlESAAAECBAhsLYGFrbU79maYQEpv5qFBMnTb7YZ2rfv+1Kc+tVeSOA9NEvBIyg1WLcGaG66U0k9TGds5xWcjS2FulGW3NOZf//VftyU7u8uu29wd1n2f45uaHyk9ff/7378tqbqeB0vdZXtPYKsJ/P3f/32vBPMtbnGL8p3vfKfUGgwJIHVTHnynSaCk1GY488wz24fhdZr+6TO8W0si38P1YVud5yEPeUjJ93Yern/yk59sm/jKuFyzZ5xxRp2sfOxjH+vV4qgDH/3oR5f3v//9Ax+K1Gm8EtiuAqkV8Vu/9VttoOdf//VfS5reXCn97//9v5eNTv7zSAHp1I6sD7Af/OAHt/Onf7k6bNkCmw/Petazyj/+4z+2g1OTZNBvc4bVJknf9ra3lTvf+c69xSQ//KhHPaptkizTpC+81Mb60Ic+VF760pe20z3xiU9smg5aKnkdlvJdN6wGS/LbtebNYx7zmPKLv/iLAxfT/X4aOMEKA7d7/nMFmvLqV7+6HZ2mZwc98F5p3q0+7qtf/Wr7u5v9TO2mX/7lXx7rLv/hH/5hb/mpkZYaYLl3eOYzn9neayVAkUBS8gKjpN///d8v97nPfY446emnn95Os1KzpJO2OOJGb5IJ1nN9pXZ98mo1peZrmndOYYd3vetdvRrwCVi96U1vKm95y1sOK3B7pBp5ddleCRAgQIAAgc0pIGC1OY/bhm61kmWr41xcXOyV6MqcaSPeA4PVGW6WqfOgLKXE85cmx/LAPE0JpXaIRIDA9wVScyGFA5IS5M3D5wSkEoxKSkCoNpuV0tQJWCVlfKbNd2ia7fmFX/iFdniWlabEhqU8QE6NqkEpzRD215bKQ+ekvKZZs6Q8sE4TWrXpsvS9lWaDJAIElgukwEYCVkmvec1rjhiw+pu/+ZtlC8jv5pECVgl415RaUEnp32ZYuvrVv9/xxG1uc5sV+63Lw9BuEDzfLQlK9df6qrVw0jRhmgxLgaTs+0rppJNOaguzDJomTWbVlAfxaZ5to1Me7kqHC6RJyfy2JI0S2Dh8CYZslEBqT9baOAl+1+s7hcbyu1ubGU0trFEDVte4xjV6TZWOsp3PeMYzSv6kjRFY7/WV5p2HNbmZfNr/+l//q/zSL/1SW2AheboEVFPrtZtScKLm7brDvSdAgAABAgS2hsB4esbaGjbbZi9SsuzUU09t/9L3h7SyQDqGlbaWQG56Urui/qW0dEr/pZPun//5n+/tbJobS+262u9Ob4Q3m1Lg3Pd9sOTv85//4pq3P/PW5ax5IZt8xgR26wOo7EqCQKmdmD5Daq2oes3k4UJqO9b0F3/xF72Af661u9zlLu2oBJX2799fJzvsNQUF1pLSv9Y73vGOdtY0C5iAWZr9Ssprt6nAdqB/m16gXp+u87UfytRAqv3H5aHhStdm+qmpNStT+yjpn//5n5uOzi8YugGpaVGDXAlWb3QzzOl7pzYDmABUamb1B6u6G5dCKckHpDbZemo/dZfp/WQFaoAka03/NtL0BLrNb6eASDd1m6kfd7OE3fV6vz6BcV5facY1NebT3F/ykklpLvYf/uEf1rfRW3hu+ZwtfHDtGgECBLaxgIDVNj74dn1tArmhykPX+ucGa22OszRXHkjlwVr9SynodPaedtNf/vKXl/POO29ZKes0L1ObM5ul/bAtqxO48sknlYsvvrh8/gtfbF6/tbqZm6nzAPzQvBeXLGu7pjxQSGfmec31coMb3KBH8Su/8islTWE9/OEPb4flQUSCRjX1FwBILY7UfEqNrJVKzqYmVApb5C/TJ6XpmDqs+/q1r32tHf/a17627d8qHxIYqzUnUpui1gT71V/91Tbg1s7g35YQcJ1vzGHMA8SkBKj/5V/+ZehCa3OA9fugTpjrb1hKk081dWtC1WHreU1w7SUveUlvESmI0u3Xqjei702akKu1QvtGjf1jAnhf+tKX2uax0grCZkhpAvazn/1sSZ9aa0npMzb7XL+v17KM7jwpOJGUghArNQfXnWcS79NKw/nnn18+85nPlNT8W02alfNitcfqqle9alvzOvtam/Gs+92t1VyD4nXcZnhdrUV3n3I80wRerpmVCgF058n7fCek+bw0oZjaa6OmnG8575LvXSl/NcryJnF95bz5sz/7s97mdL/HewNHfJN+qfP9lGtvtd+pmf7LX/5yG0BbjXc2Lcc1xynHOcd7XEk+Z1yylkuAAAEC0xQQsJqmvnUTILApBK55zWu2fSGklHZNCVqt94avLsvrdASud73rlJNPPrld+bnv+8CqNyLBqqTrXfc6TdMm11n1/Ftphvve975tYDcPB1ODKk1o5i8Pc65//eu3fRLUYemXpqbU6q3D85pajk9+8pPbWlcvfOEL23H9fVVl3jTDlSaB8ldTHm7UYd3XNB32ute9rmQba/qf//N/1rdt3ya1dkcG/szP/ExJ/xirfajRW6A3MyXgOt+Yw3G/+92vt6Dad0lvwBVv8jA+TX4mJcCVmlk1GJwmnoalWgMzQa6f+ImfGDbZmoanllTtByuB83wfzWLKQ80E7BPwP/bYY9v+XdK8aoL6d7rTncpb3/rWgZv9B3/wB23fLle72tXa79tMFM/UXMnf//k//2fgfBmYGq51um7zhf0zpE+xTNctjJBpalNdWfeJJ57YHu806ZZp832bh7z9KQ9t6zpTozUPcvO7kf5o0qfNaaedVrK85LHW2udu+iNLv2lJs9IcYAJxKRyRQGh+n84666w2/5HzcaXWLdZ6XvS71885l/qPZQqW1GOS15/+6Z+uky97HXascn7UGozLZuh8qLWwc1zSrGi+K57znOf0mul77GMfW651rWt15tjYt6lZXfcxTRgnrcZiI8/bBPVvectbttd5rvFcM2kWOc0lrhTwzXmS5k/znXDd61639UowNv2B1QBSv1rOuzS1fHrTl1fyuznvrnzlK7etqvzGb/zGmq6xSV5f2fZaUz+1urrnWf8x6d/3BKme9rSntd9b6Yc6v0e59uKX5aY2cDd1l5dmKvP99YhHPKKd/trXvna5znWu0wa/892W/g5XSjnHMl2Oa87rHOd8r+ecS5+LG53kczZa1PIIECBAYBYEtG02C0dhk25DSmrlZjIPDvOgcFCH1yvtWh4gpBR8miNMO+b9KQ8Lk9FOSdgEDDZrWq9THiLkBiaZ3UFN2CSDneOQJrJys7/ajqUTdEnzPVlGHiwNmj8PnWuptNxYDZpm0PHJfDnGeRCRm4TNnn7913+9fbCQZirSPGD6t8hNp7R5BW59q5u3TfqlxGma1MjnUVK3ebHtHqyqXnlgmVRrU9XhK70+61nPWml0Oy4PYwZ999UZ8x2YNKgUfX5HfrupefV7v/d77TR5IJ7aHP19J+RBxDvf+c5ejYrUrkx/Gul7J79x0uYWcJ2v//jlgeftbne79rpIf1MJNvRfc2lGrz5QrDUYE7jKA7r8JS/T38ReaubUWlmZtn+Z693yj370o71F9DdH1hsx5TdpZrH23zdoU9IXU/7StOKd73znZZOkxH/y0/mrfarmO7MG6bLsBOEHpfQDWKdLEKH279edNr+Ntc/BNJ9cU/qXedGLXlQ/LnvNMlOjLnmkHPf+Y17XmSDCU57ylN421IXkHErQLXnTTJNAw2rSm9/85t7kGx0A7S14FW+yP2mWsDaVmVlTMzjDMyz9u+U4pmZxN63nvOgup/v+kksuOcw74+sxyfvk3ftTgpN5iN+dLtNkH3J+JJiVczS/sYPSU5/61JLCKpm/fjfU6XLv0a15XYdv5GuujbrtCbgkrdaizr+e8zaFZR73uMct27WYZdkpOJPv0PzVwlSZMMG9X/zFX2ybxVs24xUf8r2Qv/QH1s1Tvec972lrk9ftzuR1XTluCRimdnxajEhAZtQ0yesr95v53sk9V1Jea636fK77lv3ppjRBmyBp+iAelHJt5S81/roB2rq8zBfL/uVmWflui/cwt1wrCSx2U3Wv3+UJaN3sZjfrTrLu9/I56ya0AAIECBCYMQE1rGbsgExyc1ZTsqxuV26oclPRLalVA05Pf/rTS0oz9acPfehDy0q1ve1tb2tLO+UGNKWd8pAzGbta4i1tnafUV0pA5SY360ppy3SAXR9M9q9j0p/vete7tvv0sz/7swNXvRanWko2LnnImox0mqPJ/udmrtsEz1pLXHa3O4G0HMuU0stxSGfj/aVZU6I38yTglBJieaib45Ltestb3jJw3zNwNaUw82CllnocdGPQXUma8qnTplmLSac8SMsNXk3dTuLrMK+bT+AHr6gd1TYP+Pkj92f1+Waabu2qzbfH493ilJRe6a9b4j3Nf600bcbVQNiwra4PGN73vve1fRykn4P6lxoE3WBVglK1xkf/8vIwvluL4bymKVC1rPqVNu9n1/n6j11qwiTlmkterj/V38Q8UEyeIune9753b7JBtQDe8IY39Mb3P8jujVjHm27fWSlwM4speaukuKWJtATZkhe+/PLL2wej9QFtvjtHqdmdh901f5oHsoNqqX76059e9jA3ec5BqdtvTGrS1JQ8YVL6+0r/MsmT5R4gAcgEwpJS4OpJT3pS+37Qv9T+yrmU7/nkcXOs3vWud/W+o/PQ+I//+I8HzbrisFqrLIG6YQGUFRfQjMz2pEbHKH+pGTwsJThyt7vdrQ1MZVvinAJgyW8nYJL7naQ0ndvtFyjDNvq8yDJzDX7hC19oC2jkc1IKY2VY/UtBjf6UB/QrHasEJ1c6Vil0UgPT3WVn//MQPzVgakpgOfc+Oa+GpRQcq/3ODntdqdZglrtWi7Wetzn2NViVvvoSmEogLdd63qdwZgKY+c7s3k/nOqgWtQBA7jMTyPrYxz7WnjvZn9Qm76YEXHLM6nmXPE3Ouawv25JCjkm5x15N2ojrazXrq9dB5ul+n6+0jJzDNViVGvOf/OQnW69451yuwfdhBWLjnXvSBAo/8YlPtM8f8p35hCc8oV1tXHN/nHvpbkoQqwbJ8934xje+sVx22WWtewps1HF3uMMd2iZQu/NuxPvtlM9ZWkyTi3PNOV7KheeXct5X5lb8u+CrpXzn4lK+d0nmmSuJW2fYkeb7etP95uXfS+C4NL+/G3GULIMAAQIERha45NI9S7Pw19yAbYp0+d6DSxvx941vfmspf5NKP/VTP5Wf2KXmpre3yqa/nnZYhg/7a/r56E3fZPKWmocJy6ZtMsHLPjcPH5eaB3y9efKmeYjYm6Z//u56s6zmBmSpycT3pu+Oz/vM37/8ZSsb8GHQvg+Y7LBBTaa0tx1NoGzZ+OaBZzuu6eto2fB8WKtT0xRMb32PfOQje++rwQte8IJ2XU0fMYeNq9N0X5sM+WHbVrc7x75pK/6w5TQ3Pr15mhuSw8Z3l5/3zUOGdvomM96btsmML/WfF935su7mhqm3nqb5sN68TTCoN7z/TXPz1ltu0zzEUnOj1j/JYZ+bIGhv2VlPf6rb1TTD0T9q6Oemxlhvmc0D7qHTGbG5BD73uS8svf4Nb27/vvnNi4dufMbV6TLPJFP93Rj1N6hOP8ltHGVdTYn73jXUPOQcZZYVp6nX8aDXfBedc845S81DiaW6ruaB6lK+C/Md3//dnhVluuZhxlLzcGfF9Rq5+QRc5+s7Zs0DvN612wSvli2sqZXR+41+4hOfuGxc8pK5PpPv6E/dPFryT6Om5gF/b1tWyg8kX1q/G5qHwaMufkOmy3dIXff/+B//Y8VlNoGhgd9Hmal5eNpbTtNM1bLldPOOyYvV1AQCe/M0zTTWwb3X7nx1G5vaC73x9U3zYLVdTlPLf1m+q3lQu9TUtFg2rM6T15qPzXdvN3Xzi1lvtqM/feMb3+idSzk/VpO6y28eWq9m1qWmBlHPrJqs9rUp9LBsnU2TYr1l5pgMSk2t5HaaQfcUaz0van5/0DKzDU3Bt9521fuL/m3rWsahKZjYP8lS91jd6173Omx8HZBrL3n3fs/kqbsp3wF1mn6vbp6+TrPSa1PDprfo3BPVafvvj9ZisdrztgkG9tafe4cm4NTbtvomRnUbc23V9MxnPrMdnvzMsO/IpunTZfdWuc+qy2r6gaqLWvaavFBTk3zZsCN96J4T67m+VvNd3ATde/vSBEV7m9jdlv5zM8bZ/2HnZJ4l9J9f3eVl3v7fsbriprBnb3tybGrKMvN9l3lzrHJe9af8TjaBwnaapiZ//+gN+bwV8zmD7nu+e+ni0te/cXDpk59cXHrdaxeX/uYvl1b8e96zl5ae8KilpYfd/9Dfrz16aSnDjjTfOf9wcOnzn11c+u63Dy5ddvnGPAcctD+GsXUOOAc28zmwIT9gAxaihlWTq9iuaTUly5pzp22qopaOS18+KU2ZklppOqKWzEyzEGn2YVjK/E0mrjRBl9LcdLeli9I+dFJKK6W0V5oBSUn35iFjWwIxNa9qR7yZP6WV1pJSO2uUkpJ1mpQ0XG3aKKfax0uTEW5LQaaUV0pfJtWSZuspiZuSkCl51mSsS/qJyfuUAk1psKQ0mVWbkMnxeulLX9qWvEwNlDSTVUtBpx30/pSSa6sphZlSwFlH0vOe97yhNRpSyjfLTUpp0FE6TW8n3uB/3RKMae5Q2hoC12tqWdUmWD63Qi2rOk6/VcuPe2pVpj+AUf7S8XVNad5llHkyTX5z+lNqINSU78R8p+Wvfqccc8wxbbMw+b2pfdekicA0U5XmjW5+85u3JZTrMvKa6VJ7JMuRtpaA63x9xzPNP9e+aJLv69Z6T42U+htda/fUtaUmZVLyGvmuqCk1f2pfQynJPmpzw3X+UV7HscxR1rvaaZoHq8tqmXTn7zY9nJoCo6Q0HVi/B2sevc6XmhnJ1yWlxkCdrr9vstQISPNnScmrd/NdqfmaGvLdYe2EV/y77W1v275LLZf+Wgh1uqw338f9KbVxmoBLOzg1Z1eTkgetqQmU1rdTec31Uft0i19qWg1Kv/Zrv9YOTlNi+/fvXzbJRp8Xyxa+ig85Vrkn6U/dY5UWNQal3LflPq4269adJiap8VNTt1ZUrQFUx83K61rO29pPX/Yh98Dp26g/pani+t2ZPE9NtYZkvl9zHzYopeWLeh1nfP0uzvsmcJ6Xw9Lxxx9fVttM6jSuryYQ1Nv2UbsfqC2GfOlLX+rN232T5Qy7HjNdLNP/1aD0q7/6q71mCWvrMJku+cp6/qapxf6mUDPNzp07e7Uqcy8+jrSd8jmp9XT5ZU3TpOc3tav+oznXV/g7v7ll/3ZTIe6ySw79fau5lDJspXky7sLzd5RLm3Xsa07D1OqSCBAgQGByAguTW5U1zZpAfRiXzFNNtdm3+rm+prPsetOV9ubT/F9NmT9NFCRYkzb4//AP/7Ck/49uxrlOm9dkdpsSf71BabIp7WHXTF76akoTJrXfkDyETOb+hje8YTtPbtbrA5PeQkZ4k8z7Pe95zxGmXPskG+UUuzTzMOhmLQ8BErzJg4JuExrZ6jygSJMcOR7Z3zxsGNYEToKCTemyw45TmpmoAaksM03T1CBZPufmJn8J7N3qVrfKoMNSzo8ENWtKcxPZ5rSRnu2qzTRkfB4op9+ENNuVcyAPirNv/SntvifFpt7Q9U8zic95OJPAXpp9SJMk0tYRSFMa577v4vaBQJr9y01fN2VYfVjQP6473XZ8n4ee/c0ZjeKQTqlHTXng1f9ArD7IyTLy4Ls+2E0gPh3J1+YEuw+t0/xqHoA0pY7bB2g3uclNSlPCvPzyL//yqJtiuk0s4Dpf38FL/qJe68m71SY+azNiybc0NamXraSpJdP7nOaknvzkJ7efa7AqH8b1u94tZJLmlPv7r+tt2Ay9ST4sD1wTkM/7bnPJNa98pM1N3jzfgcmTJ+iU+Wq+v/tgNYGUrCf9Ub3kJS8pTc2RXhCqFlLLuh70oAetuMoUYMv3cbY3y+vmj9Ifbc3TdxeSpsmHBbxyL5DzK/ue7+vud3h3Gf3v079MUu4TBq2zf/phn5saICOfK7ln6TZ9WZfZDdDkXiZ58kGp229bmh2rhcf6p92I86J/maN+HuVY5RzrP1YpoHL3u9+9XU3y7ymMmOZCc56lme/kpe93v/u1wxPE+eIXv9jbpJX6VUrANUHuldKwc2uleUYZN4pF/3nbDbxmu4adC2n2PKmb18m9Vr0Hyn1e7rFznzSo/+e6/WmuP9d7jkmaMk8gtKn12DYBP2rQpy6r+7pR11d3mUd63/0uGbU/5JxjuYZzfuXaTFA4jmnifpSUYzzs+yPXa5aZpk9TUKOmbvAqgdxhx/jYY49tZ8n3cJ6djOM83Q75nB1zS003BaUsNI+xmktqbKk5ROVAU46gaU2yLC7Nlfm2YaKxrc6CCRAgQKAjsKPz3lsCQwWa5tTacXkQkRuMQSntceeGLCkZxEEpgZBusCrT5Ca0WwoyAbH+TOINbnCD3rI/9alPDVr0TAzbKKfnPve5A4NVdSc3osRlHk4MCiqmD5daMi83lN1gVV1/XvMwIBny/pRlrrYUZm6iahrUiXfOp2Tsk3LTkSDXNFPTJMc0V2/dYxI4+eSTyq1vdehBa/qouvji77dNr9+qldHz4CTX/nr+umsYtJzug+c6bfdBbrfGZx6eJg16oJOHDanNWfthyHR5sJvfHmnrC7jO13eMuwWGaq2B1CR52cte1i44BZf6H8AlT1cDW93aPt0g10Z3QF/3sts/S2pazmpKPqdpnrjtuyffUSlslP5Fzz777F6/J6vd9lqzLfO95jWv6c2e1hCSUggg+evaN1UebncfrNdaWMmjp0+h/pRATQqC5SF7amvkHuGss85qlzvsXqG7jBvd6Ebdj8veryWfl4BO/V6vrQQsW+iEP6SvqpqaJiHbY5rj2v+XvmRrSsCqm8ZxXnSXP+r7tRyrPIzvnoOpQVb7tst9Qm05IgUZ009xav7VgEgCloNqIdXtzXdMAi8r/fV/D9V51/u6FosEy2u6VtP/W/85UD/XwqHdgFXur2vQP+dDgvspjJNrNwVt0qdwtxZSXc/f/M3f1LflT//0T9vpkydKADGfc72vJk3r+uq2eNL9Pl9p21Nzsxb6zPdUzrt8r6bAZQpVdmuwDVpOnXfQuAzLMUzK/XJ17La6kdpb9Zj2v3b7guzO0y5wg/5th3zOXPMUc9d8U5C1if9d7eqL5fQzyop/Vz+tlBNPKuXYJiacv5NObvp9a4Ydab5Trr5Ujm7W0XzdSAQIECAwYYGmXIJEYGWB3HCkQ9ykPBBcKXOVh4x5gJhaObU5kO7Sb3rTm3Y/9t53S0zl5nxQSkmxLHutDxwSTKtNBAxafv+wBEbSZNSoaSOdalMoo6x7LSUuc5yatuQHLr4bEOw+mBo48YCBo5Q8TOa+WwozzSbkBizN0eRmNc1XdB+O1CYSs7pucGvA6sc+KDfUtdTskW5oxr4xVrDhArnJS3N/CVid+74PtAGsDMvnJE0BDiZP7dL1ptS6SG2APKjqNhu40nK7AatuAL3pi6CdrZZWHrSM1O5KTdZ0gp3l5OGPtD0EXOdrP865pvIQOkGP/GanVk4KutSU2hKDUmro5Pc9v5/JZ6QJ1tq8VGpKjOvhcpr9rKk+GK+fZ+U1NdBrQC/blDxaHrAm0JfATQKCTT9Wq97c1NSpNcITKExt9tR+qstK7aqk5NdrbYwEEVOwLK0Z1LxOAmn96UlPelJJ4aqakh9K/r0WNsj6auGnOk3/60Yf86Yfn94615J/7d++9X7uBhHiMkorD92CGeM6L9ayX2s5VgnS1BYVUrO5+xub5T3/+c8vTR9YbZAx50uCKTXwfaTaU2vZh42aZy0W3YJuCUAdKXXzMynYmXMhwdhcnzWol+szf2l+LrVa09R/rUWZ5Td9cbZN7yfw/Pd///dtjaNck2miMX9PaGrGr6Z2+TSur9QMq88gsk8rBQszvqY8V0j+LgVJs++10GNe85dWPXKOJUA4au3Nuuy8ds+B3Bcm1de8X6lgacbXtFJQtk6z1tetns9pvkLKfFNh7sqnLJUb7S5N7d6mKtQK6YKvNk36NTWkdue1mTfBqps23bmf2ryulHbtWmoDXEcdNVcW5ldex0rLMY4AAQIEVi8gYLV6s203R7ft+bS3nJJCR0rD2tgf1hTLQup0X5GGNQFRM5TdDGGdZxZeN9KpG8AbtG8pYZem/9J8Xi3ZNWi6YcNWCrRccMEFvdkGtb/dGznkzUo3EyuVmH3sYx/bPvzKYnODkdpdSWnbPje1SXlI1r0ZawdO+F+atqlpLT51Xq+zK5Dm/r7Z1K5K83/ps+rKTcAqKQ9YNQU4W8etWwihW5uq6Uy83dCVAlaZIA9zU5L5ve9977KmUGdrL23NOARc52tXzQPXWksnTQvXWi25nroPpbtr6AYQMn36w6ppXM0BZvkpAJQCSwlKJ8CWflaHFYyq2zPp1zQtlZSgRppbTH803ZR+v2qQqTt8lPePfvSj2xqkCRykIEDy5zWQVGshpZZKarikVkIebv/RH/1R+5C3Lv+nf/qn69v2dc+ePb1gVR6Ux7XWOKgTZvjDH/7w+nEir/VB/h3ucIdeqwwTWfGQlXTz8imMsdpmZ8d5XnQ3uRtY6w5f7/sUXqxpUF9Jua9LoOqb3/xm22xlzetnnpyP00jjssi9c4JLucbz3dkNeIyyn7lG00pJ/rKNuZbTp3Bt2jj35zm/Xve61y1bXK7LNNGev9ynJr+Tpj7ruZXa5blW83ekNI3rKwUW07RfUr6v+ltgWWmbY53+pvKXQP0nPvGJto/mBOnye5AaaPktSOCuP3WbIewfl8+1xlzWUe8Fu9d7vPN7OO20lfM5CVjl7+im0ZX8NWGoI3DPlROaWlWXfLdphrGZ8sQT59pg1elnHmm+uthRp6vTeyVAgACB9Qp8P0qw3iWZf8sK9GfeRykZNiyTlgz3kdIo0xxpGdMYv5FOK93IbESJy26AsN+q67+W4OBK296/ru7n9KmV8ybBuNxMpHmu9MFQmxzKtLnpmHZKXxA13eY2t6lvvW4xgW7777XfqgyThgvkoWa3Pf/hUw4eUx+i5uHEoEBTHhAkaNhNtfmk/t+cWoAgzVQdKSUI3u2370jTG791BFznazuWqZWYB3W5ZtO3Si29Xps6GrTUFFjJ+DygzoPCWpMkzdKl6btxpTwUT+DkWc96VruK5C3Sd1YtBDVsvXnAmZL93UDbsGnXMzzB9dR2SHrYwx52WLAqw7vN9OXzalJqvOWhdFICS7WpsTQx1m1eK3n7BKxyTNPEWK3p8qhHPeqwZpi72/Obv/mbJQ/F+1M9J/qHj+tz8uA1qDfOAOhqtr9bSC+FIlYTsFrveVHz8t1ayN1tT/NoNSXYMY7UvYdITZlBKX3x5r6m9jdZp6lNzNfP43ydhEX6ysx1nusreZzrX//6a96lfHellYz85fpMv1b5rsr3Wq6DYd9tCfZk2vylL8IaGM99zZECVtO4vpLny/dLTdnXtaacZ+njNH+Pf/zj28KPORapdTsoYJUCobkGuwWh6rr37dvX9rmWz7l3ran2tZ3Puab686V1ukm/yudMWtz6CBAgQGCjBASsNkpyiyynP+iS3er2C5LSTbXPgS2yyxu2G5NyqqXi8rBoo0viBqM+RMr7dBjbLTGWYeNMuWnIA5vcYGff0qRC+ppJys1Uf/9n49yWQcvOzc0Tn/jE3qhRgre9ib3ZVALdpjSy4WkKMMOk4QJ5uJBrZCPSoOV0H37VddSmyPLQu5vqQ7ru93LGJ5CVAOSwvvm6y/B+6wu4ztd2jPOANzWekx/pBiaGNQdY1/KABzygDVil9HotwZ4Hp+NOT3va09pgTdaZh8Zpbi952W7Tw91teM973tPmRfJgOX/dwEN3uo14n4I5NaXJrf6UwFlqUaw15cF/8lLpx6XWXM+y+oOLeYCefFYetCZvU7+D0ydZfzrqqKYdpitSrGpNrToszrUvnjps3K/vete7ettc+/sZ9zqPtPwECFIYIjVaEkxLoHeQZ5aTZjLTPF5qhyWt97xIEDE1cHIs8pvXX9ijW8MxNWfy+1qDXO0GbMC/ui9Z1F/8xV+0TdQNWmy3KfI6PmaTKkgyCYtcU+nHLCkB1Vzr/UG6jEswJE0sp1+52lxcalimEM+pp56aSZalFBJM0CQBq9wXdlOuiUE12zJNt6nUBHOOlCZ5feVZRJo57BZSTCscP/mTP3mkzeyNz/dYWvzoBiPryAShUrMqv12Dxme6fP+lpumgvvjSDG5t3aQb6EuT+LUgR5pfzbhhQav8DuU7t9viSY5zbToyhThqAdCLLrqo/W7IduUcqLXM0ldr3Y6cK8PytfI5kZMIECBAYDMKHLm6y2bcK9u8KoFuZm1QKbvcwNQMWW5+BgW1VrXCLTrxJJzWW+JyFPqUAqwppR4nmXITV2+4XvjCF7Y3E7UPhfQpNs2UPsrSxEN9EJ7g2bAbkWlup3VvnECa0mj7rGqCVZoCPLJr+glIs1P1L017JuWBaUqr1uHDXmufFanxNGiaepNet+Tb3/52O10+d7+38rl2dt+dJw+C8kA9Hdz/0i/9Uu9GP9NL21fAdb62Y5/gUzel6b1BNW2606Rkf/2Nr8OPFOSq063nNevs9rOXB5WpnZCaR3mQnofHaUor/eykb7vsSwJVSeecc856Vn3EeVPzrAZYUsM8D0kTuEj60pe+VNL316C8+REX3JngoQP6oBpUc6w24VeDVXmYOqg/2pvd7Ga945jmqWOXfrYS9EgNrgRmJp0SkEtK3mzaTUd39z0+9aF0fuNS0y/HM79HMfvIRz5SHve4x5XUzkifYvUea73nRTd/miBZaiOnie30e5uUh+F3u9vd2vc53ulDMoXUEtxKjZu6He0Ea/yXIFmtgZLaffnOyPmR/c563vSmN5WnP/3p7fXWv4rcD6Sm3yTSJCxyPNIsZFKu8/RnlnusNDOe6+a8pu/eNJWaIEuuw3jVlBpBCZpn/i9+8VB/qhmXQEb6rap9yeW7tNauOvfcc1v7BHkSHEkznkk5runbKXmgmu5yl7vUt0NfN/r6yndwChzVvwQo8/2bQov5bu4Gq/Jd9exnP3votvWPyPmV/rvSPG1q9OZcqykB3HzH1oIW/c2d1unymn6ush3pOzv3gAkOPeMZz+jVWM11nUBaTQkyp5ZbUq6pfA++7GUva5tvzDHO8XrnO99Z7nrXu5a73/3u7f7WeVPgK/231ppz+X6oKedDHZ58dk1ZVh2e5a2U5HNW0jGOAAECBGZVQA2rWT0yE9yuUUqW5WY3N1h5WJ/28NOmdC35093UZMaS+dyuNU/G7bTeEpfdYzXsfUpE1hJiuTnKDfSg0sV5wJMbsO4D4WHLHHV4btBTKi03CWmm4atfbXpGbVIeeOch0rRS2opPUy7djn9f/vKXT2tzrHeCAgJVo2P3N+uVG/Wk/G7kQV0ezuRB57BUSw/ne+CmN73psMl6w/NApqb+5eahRFK3WaHUBKjX8Ite9KKSv2c+85nlSU960mFNXtXlet0eAq7z1R/n1FLK9VULcYxSUyo1czJdrr2k5DeG1XJa/RatPEcCGSkAkwfF+X7IA8UUjBmWkg9Kc4c1kD5suo0Ynqb40pxqtunXf/3X27+ubR4ov/nNb17zqhKYqPm6LGRQM38ZnppS3QfZyf8NyusnLxqbPFxOSg2upO461rvN7QJH/JeHwTUgOalaOSNuWhs8S34510vOuzRJOSylhYMElWq+ej3nRY5dft9yTqXFgvwlpVbkIx/5yPb97//+7/eao3zOc55T8ldTCo2sp9m6upw0653gUwIECcJ0AzF1mrymlnTyCJdddllbSDLbnXMo8w0Kmnbn3Yj3k7D4jd/4jTY4lXMg+1WDJoO2v9a0SeAiQap4JKiYv1xnqZ1Va9dk/gzrXrtf+MIX2sXmXip/SQnkpqBPllVTasoOuser4/M6juurfnd01zPofb5nUrBg0PfQoOkzLIH+pFxvtUZjzQvW36uMT7BnWMAqQbJct+lXrdu3WuZLineuqe4zlAzPb1oKaKW2Vda10n527+lXChDHfyOSfM5GKFoGAQIECExSYMckV2ZdsykwSsmydH5bb0jTzEc+1/ad0y55Huin6bZrX/vabWnQbgmw2dzr8WzVuJ3WW+JylL1O6bx0ol5TbiLTdM4FF1zQlghNycDcCCdTvtLDnjr/al+7bZTX2lUpXVibxljt8kaZPoGxWsovrymNmFLXaf4vD7fyIL4+6M7yUuL6SDd4o6zXNAS2skB+E1760pe2u5gHK2mCJtfWRqW67DyI6PYnl2b/6gOZ7sPwfGelpGwe0NSU0rJ5KLeR21WX7ZXAVhZIXqEbpLrPfe4z0u52Awrd+UeauTNRt3WAzuAV35511lnlE5/4RNs8W2pRDUoJbKXgTGpYpRDSah6UDlreKMOSz0reqtZ4yTz1wWoebr/mNa8ZuphR8kYJFCZ/WlOaGxuU8vC15vUzPrW7hqXY5EF4bYEh0+V7N9/HyTPm4fygVGuADBq31mEf/OAHe161ttpaltVt6nA151f3GHTf121IoCAPvx/zmMe0D7rr8Pqacy6BnLRiUYNVGbee8yLLSTNueSjfTd19TMGQBE36p8n0yfNvxLFKs+K5X0xNqu65UrcpNmm9INua3+vkt2uAJdMkaFUDM91tX83xyXK68+Zzf5qERdaZgFNq/QyzyD1Q7klyfSXlfMp3Q5oFrfPkOqsmCZwkIJj78PTPVFO+WxN0TO2cTJOUeWreKMc8teBroLfON+h1HNfXoPXkuyP7mDxaalwleJkaTMO+g4edn6lZleb10v9VrW2Z79P6nZphGZf96m8qs25Xrr34dX+v6rgalOovpFXHp3ZX+qzrfpfWcTkW+Y56//vf3zZ7WIev5bV7Tq/2eljL+sxDgAABAgQmLTB3yaV7lia90kHrO+7YowYNnrlhe/ZtTCmXSy/9brtvVzn5xInsY0oQpZp6MoMXXnjhYetMkxTJnA1KybAlI59mJJJxq9XdB02bYckIdkvSJ1N2q1vdqp08zR0MqimTm5U8OExKs3fHH398+777Lxnx1PLKQ4bc2IyajrTvw5aTJuj+5E/+pB2d5gW6bXynTfDc5OUmM5nSblqrU/Y/Dkl54DqobfOMy/FISc1605FhOa41I94t1ZpSzKkRV1Pd7hzr2vF2Hdf/miZeBmW2u9PlRigBzPgce+yx7ajclNb96E6b97lRq01ipPTgsJuNNBvSLYWZG+du5+D9yx32OftY22nPjVm9AazTD7sJquP7X9O0SWqN1OZd+sf7TGCcAhdd/O128ccdd/j346D1Tvp3ZtA2ZFgewqW5kvqdlYdXuaHvT/X7Ic2i5OHLSinfv7Vvhic0fd+l2aWaEnyqzaMM638mtbPy3ZgHQTXlYWKa1knBAInAtAQ263U+La/1rDel2tN8aJqMSh8xZ5555ob347Pa7cs21Rqi6ZNko/sVWu32jDJ98oCp1ZAgyST7Pa3blqBemtpLrf80dzbLKYX8kqdNPj/55jSjOSwv3N2P9ZwXuT/IeZ4aHWkSd1BQLTVvaqsGKXw4rt/B7Edq/8ThKle5Spu3X21evOsyjveTssg5kOOSGjQJ1qVvpSOl1MDLPGniL7XSR7k3innu/dMKSo597mEGnQPD1r2Zrq9B+5AmVus98hlnnNF+1w+abti9bMxT2CnNAuY4DQtyDVtmrqssO/fq3X6iB02/XYatNp+zES7nfWWuvPtf58p/fnmpzDULPP3MuXKbOzTH9MyZeBS6EbtoGQQIEJiawO5dO8aybk0CjoV19hZaS97UUlb9W1hLlqWZiFqrpU6TG6uklORJiae0I50mJWrprjpdHjImIJDaMN0bnW6V925poDpf/+vCwsaelkfa9/7118/dbe2/meyOq9PX17U6dW8eVjJIsCkPWdNEQq0VUDPiual46lOfOjQzXre7u6663f2vCfSlplWayehvtiIPBdJUSS1R3e/Tv6zVfk673zVgldpco9yQDVpH3d+Mq+dBd7pcD/Uhend4fZ9zOg+w8mA8TeWk1J5EgMDqBBLoTVv7tVBEajEmYJUHnPnuyAPZBLDrQ9qVvv+y5jzcSZCqppQkTgAq3xn5bqt9Z+X6HhZcTmGDFIDIQ85aWCIB/jwISoELiQCBrS+Q758Usqql8Gdhj7NNm60Gd/L808wfpTBdHiZvRBN24z4Hck+Uh975W01az3mRB+X5WymlkNywgnIrzbfacdmPWT9Ok7JIgLdbo24UyxToHFSoc6V5Y55A8lqDyZvp+hrkkJqj/U33DZpu2LB45753LSnfjZvt+3wt+2keAgQIECAwDgE1rFapullrWK1mN0cpWZYHhgmS5C8PCFMarxscWM36tvK043ZaT4nL1binFGA6Bs5NT0qDDgr+rGZ5R5o2HVCn3fKkWsPvSPMYT2CrC6y2ROKs1LCqxyUdqKdj6RSMSEGIYSVNU0s0nbEPS/kuygOvBJvTfE6a7+zWpqzzrVTbs06T19QCThMt+T1LjdkEsyQC0xLY7Nf5tNyslwABAgQIrFVgWA2rtS7PfMMFVpvPGb6k0cdceH4pH/vQXPn6BXNNQblSrnb1xXKjprvcU04dfRmmJECAAIHBAuOqYSVgNdh76NDtELAauvNGEJiAQIJjtbmFWjNjAqu1CgIzL7DaG7xZC1j1A6d/uNoRfB2Xaz59X6XW70rp05/+dNu/3Pve9762WaF0TJ4+51JTKyVazz777JJ+WhJkHyUlgJagVzralghMU2CrXefTtLRuAgQIECAwioCA1ShKGzPNavM5G7HWpoxbufD8uXL5ZaUs7CzluKYngyufslSO1gr4RvBaBgEC21xgXAGrjW17bZsfJLtPgMD6BdInVk3dZr/qMK8ECGwNgVe+8pVtLak0AZhmktIMz6h9WZx11lkl/VPVgFRq+tZamWvRSV8QglVrkTMPAQIECBAgQGBzC9T85ObeC1s/TOCoo+bKKVdbapoVbwJWzRPQXU15tvmjhk1tOAECBAjMgoCA1SwcBdtAgEArkFoSz3nOc9r36VMi/WhJBAhsTYG19MXQlfBwoavhPQECBAgQIECAwFoE0rXB5Zdf3vaHN0pfz2tZh3mmJ7Awv1R2Hz3XbsCOuaUy1zQLOHfo4/Q2ypoJECBAYEUBAasVeYwkQGCSAum3Jv3IJKV2lQfSk9S3LgIECBAgQIAAAQIECGw/gXH30bz9RGdnjxOg2rljaXY2yJYQIECAwBEFBKyOSGQCAgQmJZAmudKGeFJKukkECBAgQIAAAQIECBAgQIAAAQIECBAgsD0EBKy2x3G2lwQ2hUBqVB199NGbYlttJAECBAgQIECAAAECBAgQIECAAAECBAhsnEBTOVYiQIAAAQIECBAgQIAAAQIECBAgQIAAAQIECBAgMD0BAavp2VszAQIECBAgQIAAAQIECBAgQIAAAQIECBAgQIBAIyBg5TQgQIAAAQIECBAgQIAAAQIECBAgQIAAAQIECBCYqoCA1VT5rZwAAQIECBAgQIAAAQIECBAgQIAAAQIECBAgQEDAyjlAgAABAgQIECBAgAABAgQIECBAgAABAgQIECAwVQEBq6nyWzkBAgQIECBAgAABAgQIECBAgAABAgQIECBAgICAlXOAAAECBAgQIECAAAECBAgQIECAAAECBAgQIEBgqgICVlPin1uaa9e8uLQ0pS2wWgIECBDYLAL1t6L+doyy3XXaOu8o85iGAIHpCdRrtV67o2zJjjn5yVGcTEOAAAECBAhMV6Dmc2reZbpbY+0ECBAgMMsCAlZTOjpz8/Ptmg8uLk5pC6yWAAECBDaLQP2tqL8do2x3nbbOO8o8piFAYHoC9Vqt1+4oWzK3Q35yFCfTECBAgAABAtMV6OVzrsi7THdrrJ0AAQIEZllAwGpKR2fHjkMlYg/sPzClLbBaAgQIENgsAvW3ov52jLLdddo67yjzmIYAgekJ1Gu1XrujbMn8wqGsfJ13lHlMQ4AAAQIECBCYtEDNq9S8y6TXb30ECBAgsHkEBKymdKwW5hfaNe/bt29KW2C1BAgQILBZBOpvRf3tGGW767R13lHmMQ0BAtMTqNdqvXZH2ZKFHTvbyeq8o8xjGgIECBAgQIDApAVqXqXmXSa9fusjQIAAgc0jIGA1pWM1v3AoYLX/wMFyQLOAUzoKVkuAAIHZF8hvRH4rkupvxyhbXaf1OzOKlmkITFdgrdf53I5DWXnX+XSPn7UTIECAAAECwwW6+Zyadxk+tTEECBAgsN0FBKymdAbMNZ1kLywcKhW7Z8+eKW2F1RIgQIDArAvU34j8ZuS3Y9Tkd2ZUKdMRmL7Aeq7zXUftanegLmP6e2MLCBAgQIAAAQLfF6h5lORZVnM/8/0leEeAAAEC20lAwGqKR3vnrhqw2lf2HzxUen6Km2PVBAgQIDBjAvlt2LPnUNOx9TdjNZtY58ky/M6sRs60BCYnsO7rfKEGrFznkztq1kSAAAECBAiMIrAsn3NFnmWU+UxDgAABAttXQMBqisd+fsdC2bnz0EOGyy69fIpbYtUECBAgMIsC9bchvxX5zVht8juzWjHTE5i8wHqv87m5HeWoXUe1G16XNfm9sEYCBAgQIECAwOECNW+SvEryLBIBAgQIEDiSgF+LIwmNefxRR+0uO5qHkAcOHiiXXHbpmNdm8QQIECCwWQTym5DfhvxG5LdircnvzFrlzEdg/AIbdZ3vbB4Czc/LT47/iFkDAQIECBAgMKpAzeckj5K8ikSAAAECBEYRELAaRWnM0+zevbvMLc2VvXsFrcZMbfEECBDYFAK5uctvQn4b8hux3uR3Zr2C5iew8QLjuM53NP3cyU9u/LGyRAIECBAgQGB1AjWfk7zJRtzPrG7tpiZAgACBzSwgYDUDR2/Hjh3l6GOO6QWtvv2dS/U1MgPHxSYQIEBg0gJp4z2/ATVYld+G/EasN/mdWa+g+QlsnMC4rvM0s3P00UeXGrSSn9y4Y2ZJBAgQIECAwGgC3XxO8iTJm2gKcDQ7UxEgQIDAIYG5Sy7dszQLGMcduzmqB+/Ztzg2rsXFxbJnz56yuHigXcfu3bvakigLG/CwcmwbbcEECBAgsG6BA1d8/+/Zs69dVpoBTEnEjQhWdTfO70xXw3sCkxWY1HW+tHQoP3mwaVI0SX5yssfZ2ggQIECAwHYU6M/npBnAtpUH/VZtx9PBPhMgsE0Edu9afwHrQVQCVoNUVhg2zoBVXe3evXvK/v2HHlpm2M6F+bJr166ysHOhzDfBq5RSkQgQIEBg8wosLi2Vg02Q6sD+A2Xfvn1l/4GDvZ3ZuXPXuvqs6i1ohTd+Z1bAMYrABglM+zrfv29v2dv81SQ/WSW8EiBAgAABAusVWCmfc1TTX5U+q9YrbH4CBAjMvoCA1Ywco0kErLKrB5taVvv37S8HDuyfkT23GQQIECAwToGFhZ3Njd3OpmDCwjhX01u235kehTcEJiYw6es8ta32H9hX9u39fkGoie2sFREgQIAAAQLbSmDXUbuaAte7NAG4rY66nSVAYDsLCFjNyNGfVMCq7u5SSuEfOFAONM26LC4ulaWmf5OluZloxbFuortRQtUAADJeSURBVFcCBAgQWKXA3NJcmZufb5r8mysLTXMZ8wsLzY3ddGrP+p1Z5cEzOYERBWbtOl9Krc7F/U2+crEsLR4sKRktESBAgAABAgTWIpCWf+Z2zDf3MTvKwo6dzfsdU7ufWcv2m4cAAQIE1i8wroDVZIpxr3//t+0S8gBzYefO9m/bIthxAgQIEBibgN+ZsdFaMIGZEch1niD5ruav7JyZzbIhBAgQIECAAAECBAgQIEBgmcB4esZatgofCBAgQIAAAQIECBAgQIAAAQIECBAgQIAAAQIECAwXELAabmMMAQIECBAgQIAAAQIECBAgQIAAAQIECBAgQIDABAQErCaAbBUECBAgQIAAAQIECBAgQIAAAQIECBAgQIAAAQLDBQSshtsYQ4AAAQIECBAgQIAAAQIECBAgQIAAAQIECBAgMAEBAasJIFsFAQIECBAgQIAAAQIECBAgQIAAAQIECBAgQIDAcAEBq+E2xhAgQIAAAQIECBAgQIAAAQIECBAgQIAAAQIECExAQMBqAshWQYAAAQIECBAgQIAAAQIECBAgQIAAAQIECBAgMFxAwGq4jTEECBAgQIAAAQIECBAgQIAAAQIECBAgQIAAAQITEBCwmgCyVRAgQIAAAQIECBAgQIAAAQIECBAgQIAAAQIECAwXELAabmMMAQIECBAgQIAAAQIECBAgQIAAAQIECBAgQIDABAQErCaAbBUECBAgQIAAAQIECBAgQIAAAQIECBAgQIAAAQLDBQSshtsYQ4AAAQIECBAgQIAAAQIECBAgQIAAAQIECBAgMAEBAasJIFsFAQIECBAgQIAAAQIECBAgQIAAAQIECBAgQIDAcAEBq+E2xhAgQIAAAQIECBAgQIAAAQIECBAgQIAAAQIECExAQMBqAshWQYAAAQIECBAgQIAAAQIECBAgQIAAAQIECBAgMFxAwGq4jTEECBAgQIAAAQIECBAgQIAAAQIECBAgQIAAAQITEBCwmgCyVRAgQIAAAQIECBAgQIAAAQIECBAgQIAAAQIECAwXELAabmMMAQIECBAgQIAAAQIECBAgQIAAAQIECBAgQIDABAQErCaAbBUECBAgQIAAAQIECBAgQIAAAQIECBAgQIAAAQLDBQSshtsYQ4AAAQIECBAgQIAAAQIECBAgQIAAAQIECBAgMAEBAasJIFsFAQIECBAgQIAAAQIECBAgQIAAAQIECBAgQIDAcAEBq+E2xhAgQIAAAQIECBAgQIAAAQIECBAgQIAAAQIECExAQMBqAshWQYAAAQIECBAgQIAAAQIECBAgQIAAAQIECBAgMFxAwGq4jTEECBAgQIAAAQIECBAgQIAAAQIECBAgQIAAAQITEBCwmgCyVRAgQIAAAQIECBAgQIAAAQIECBAgQIAAAQIECAwXELAabmMMAQIECBAgQIAAAQIECBAgQIAAAQIECBAgQIDABAQErCaAbBUECBAgQIAAAQIECBAgQIAAAQIECBAgQIAAAQLDBQSshtsYQ4AAAQIECBAgQIAAAQIECBAgQIAAAQIECBAgMAEBAatVIs+tcnqTEyBAgAABAgQIECBAgAABAgQIECBAgAABAgS2gsA4YyQCVqs9Q8Z5NFa7LaYnQIAAAQIECBAgQIAAAQIECBAgQIAAAQIECExKYIwxEgGrVR7EHcRWKWZyAgQIECBAgAABAgQIECBAgAABAgQIECBAYCsIjDNGIvyyyjNkbm6M4cNVbovJCRAgQIAAAQIECBAgQIAAAQIECBAgQIAAAQKTEhhnjETAapVHcYd41SrFTE6AAAECBAgQIECAAAECBAgQIECAAAECBAhsBYFxxkgErFZ5huxoalipZLVKNJMTIECAAAECBAgQIECAAAECBAgQIECAAAECm1ogsZHESMaVBKzWIDs/P74DsobNMQsBAgQIECBAgAABAgQIECBAgAABAgQIECBAYKwC446NCFit4fDNjzGCuIbNMQsBAgQIECBAgAABAgQIECBAgAABAgQIECBAYKwC446NCFit4fAlXjU/zoYa17BNZiFAgAABAgQIECBAgAABAgQIECBAgAABAgQIjEMgMZFx1+URsFrjkVtomgXUMOAa8cxGgAABAgQIECBAgAABAgQIECBAgAABAgQIbAqBxEISExl3ErBao3AiiTsXxn+A1rh5ZiNAgAABAgQIECBAgAABAgQIECBAgAABAgQIrFsgsZBx167KRgpYreNQ7WiqwC0IWq1D0KwECBAgQIAAAQIECBAgQIAAAQIECBAgQIDArAokBpJYyCSSgNU6lReaAzU/v86FmJ0AAQIECBAgQIAAAQIECBAgQIAAAQIECBAgMEMCiX0kBjKpJGC1AdI753cIWm2Ao0UQIECAAAECBAgQIECAAAECBAgQIECAAAEC0xdIsCqxj0mmya5tkns24XXlwGkecMLoVkeAAAECBAgQIECAAAECBAgQIECAAAECBAhsqEBiHZMOVmUHBKw28DCmatyudD62gcu0KAIECBAgQIAAAQIECBAgQIAAAQIECBAgQIDAuAUS20iMY5LNAHb3aaH7wfv1C6TzsV0758qBg0vl4OLS+hdoCQQIECBAgAABAgQIECBAgAABAgQIECBAgACBMQrMN7GNhfmmQs4Ua+QIWI3hAOeA7kwUcmmuHFxqAldN8Kp5kQgQIECAAAECBAgQIECAAAECBAgQIECAAAECMyGQWMZ8E6Sab95MM1BVMQSsqsQYXnOAF5p/qT632ESsUuFqKa+LzcryfgzrtEgCBAgQIECAAAECBAgQIECAAAECBAgQIECAQFegrTjV/NvRdBQ118QtmrBF89cO7U421fcCVhPiz4HPCdCcCk3IckIrtRoCBAgQIECAAAECBAgQIECAAAECBAgQIECAwCYQaGJpEgECBAgQIECAAAECBAgQIECAAAECBAgQIECAAIHpCQhYTc/emgkQIECAAAECBAgQIECAAAECBAgQIECAAAECBBoBASunAQECBAgQIECAAAECBAgQIECAAAECBAgQIECAwFQFBKymym/lBAgQIECAAAECBAgQIECAAAECBAgQIECAAAECAlbOAQIECBAgQIAAAQIECBAgQIAAAQIECBAgQIAAgakKCFhNld/KCRAgQIAAAQIECBAgQIAAAQIECBAgQIAAAQIEBKycAwQIECBAgAABAgQIECBAgAABAgQIECBAgAABAlMVELCaKr+VEyBAgAABAgQIECBAgAABAgQIECBAgAABAgQICFg5BwgQIECAAAECBAgQIECAAAECBAgQIECAAAECBKYqIGA1VX4rJ0CAAAECBAgQIECAAAECBAgQIECAAAECBAgQELByDhAgQIAAAQIECBAgQIAAAQIECBAgQIAAAQIECExVQMBqqvxWToAAAQIECBAgQIAAAQIECBAgQIAAAQIECBAgIGDlHCBAgAABAgQIECBAgAABAgQIECBAgAABAgQIEJiqgIDVVPmtnAABAgQIECBAgAABAgQIECBAgAABAgQIECBAQMDKOUCAAAECBAgQIECAAAECBAgQIECAAAECBAgQIDBVgYWprn0TrvySSy4pb33r28p7zz23fOpTnyrnnXde+c53vrsJ98Qmz5rACSccX04//fRygxvcoNzm1rcud77zncqVrnSlWdtM20OAAIH/3959x0dV5f8f/6SQACGBRUBEmrBJCGChKc0G9gUsdF2kCbjWVUQUVt2fiv52VWwUQdeG7tJdARWQtiJdAmLoCAQBkdAhkDrzPZ+TzDhJJoUMJDPhdXhM5s6t5z7v/Yv343MOAggggAACCCCAAAIIIIAAAggggAACCJxzgaCTp1Kc5/ysxThhpYjwYhxVcods2bJFPvzoY5kyZWrJXZQrXfACPXv2kAH9+0mjRo0ueAsAEEAAAQQQQAABBBBAAAEEEEAAAQQQQAABBMquAIFVEZ7tqFGvyMT3PyjCnuyCwPkRGDzoARk5csT5OTlnRQABBBBAAAEEEEAAAQQQQAABBBBAAAEEEECglAUIrAp4AFu2bpWhQ5+ShISNBezFJgRKRqBp0ybyxhuvS6PY2JK5IFdBAAEEEEAAAQQQQAABBBBAAAEEEEAAAQQQQKCEBAis8oFes2aNDHhgkJxgfqp8hFhdGgJRZp6rDz94X1q1alUal+eaCCCAAAIIIIAAAggggAACCCCAAAIIIIAAAgicFwECKy+sWlnVvUdPwiovNqwqfQENraZNnUKlVek/CnqAAAIIIIAAAggggAACCCCAAAIIIIAAAgggcI4Egs/RecrUaXQYQCqrytQjLVM3o++mvqM0BBBAAAEEEEAAAQQQQAABBBBAAAEEEEAAAQTKigCBVa4nOWrUK8xZlcuEn/4noPOq6btKQwABBBBAAAEEEEAAAQQQQAABBBBAAAEEEECgLAgwJKDHU9yyZYvcetsdHmtYRMC/BebN/VoaNWrk352kdwgggAACCCCAAAIIIIAAAggggAACCCCAAAIIFCJAhZUH0Icffezxi0UE/F+Ad9b/nxE9RAABBBBAAAEEEEAAAQQQQAABBBBAAAEEEChcgAqrbKOTJ09K08uvLFyMPRDwM4GEn36UyMhIP+sV3UEAAQQQQAABBBBAAAEEEEAAAQQQQAABBBBAoOgCVFhlWy1YsLDoauyJgB8J8O760cOgKwgggAACCCCAAAIIIIAAAggggAACCCCAAALFEiCwymZbsXJlsQA5CIHSFuDdLe0nwPURQAABBBBAAAEEEEAAAQQQQAABBBBAAAEEfBUgsMoW3Lhxo6+WHI9AqQjw7pYKOxdFAAEEEEAAAQQQQAABBBBAAAEEEEAAAQQQOIcCoefwXAF9ql9++cXP+u80/Qkq0T45nU7Rj7agoCD7Od8dcDgcRbqeq2/nol96zcLO43JwWZxvB1/O73/vri93w7EIIIAAAggggAACCCCAAAIIIIAAAggggAACF6IAFVbZT/348RN+8/w1UMnIyBT99gxOsjqogVJxP4XdojOfaxZ2XPG2u0Io7/eZ85xOp8P2rSj75jwy5y/XNTMzs3xdW/M6i2Ttk+nlGbiO8o9vf3p3/UOEXiCAAAIIIIAAAggggAACCCCAAAIIIIAAAggEmgAVVn72xDQ4adS4kVSqGCHx8etMcJUhwcHBtiLI17BGq4pCQjSjzFu5FR4eLv379ZUbO3aQ1DNnZMLE92X58hXnNaypXr26vPTS/7NPYP78b2XBgoVy8uTJPE9E+zxw4ADp9Kc7ZOnSZTJr9mzZsWNHjr7pvRWl1by4pjz33Ag58NtBmW3Os3HjJklPTzdhmAZTYnxCJDQ0VFq3vkauvOIKyTTr1SEhYWOO6xXlWuyDAAIIIIAAAggggAACCCCAAAIIIIAAAggggAACRRMgsCqaU4ntFRfXSMa8+45ER0fLihUrZPx7E0xI871ERkZKvXr1TJgSUuy+pKamSWLibjl1KjnPOfS8sbEx0vrqqyUtLU1mzvyvDcm8VR55W5fnhNkrCgqS/vjHhtKubVupXLmy1KxZ0wRDy/MEVnqthtENpW/f+6Ve3bpSv359+W7pUlv95NkPvY4r2MuvL7q9RYtmctNNN0mFChWkfft28uCDf7FBVEx0jLHZI3t+2WN/39SxowwY0N9Wdb344kuyadNme838zs16BBBAAAEEEEAAAQQQQAABBBBAAAEEEEAAAQQQKL4AgVXx7c75kVFRUfLow4/YsEpP3qZNG/v55pu5smvXLhk06AEpV65csa979OhRGTR4iKxZ84PXcwQF/T5CpMMMwVdQ0+HyCmsFBUhaxXTNNdfYsErPs+z77+XgwSQbEOlx2jSQiqhYUQb2G2DDKl2nYdv1119vjr1af9p9UlJS5HtTebV9x3b7227w8kdDqptvudmGVbp54aJF5pqHpHfvnvK3kSNs4DVu3HgZaz40BBBAAAEEEEAAAQQQQAABBBBAAAEEEEAAAQQQKDkBAquSsy70SidOnJDnX3hBtpng5cEhg6WiCWu03X77bYUeW5wdNBByVSk5HE5bUaXn0XUaSOnHtd11fg2a2rZtI1dcfrkEZQdLrm2e33rcoUOHZO7ceaL3lbv94Q9V5Lprr7Wrz5ghCI+fOCnNml0lp0+fNuHcbtEQSoOrLl06yz333O0+vG7dOvLYow+7f7sWtCrspZdeln//5z92/i/Xes/vBpddZiu6dF1SUpIs+HahuWeHxDVqZK+l59iyZasdhlFnCXM3U72V5ZBjrdlctGEI3edhAQEEEEAAAQQQQAABBBBAAAEEEEAAAQQQQAABBLwKEFh5ZSm9lYePHJG3335Hpk2bboKZR6RHj+6SnJwsEyZMlAwTIHlWWOkweE2bNJFbTNWQLmsIM3PmF3Ly1CmvN3DKrN+3d5/HNqetaNIVGsgEB2cNN6hzZaWn6bxOjhyBlV5DAysdLq9//34e5/G+uHXrVlm5clWewCooyClNmzaVRo1i7YHa735myD+tctq8ebMMGDhI9u/fJ7feeouMGPGshIWFeb+Ax1o12rZte75hlZ7jjjtul4svvtgetWzZctm+fbtUqhQlOjShtmPHj8tOU8mmc1p5BnWOTIc7wLM7Zv/RQM1VDea5nmUEEEAAAQQQQAABBBBAAAEEEEAAAQQQQAABBBA4OwECq7PzKrG99+/fLyP/9pzMmDlTqlWrJt9+u8DOLeXZAQ2vNNTSYEfb4sVLZPSbb9kqJc/9ci9ryBIeHi59+txn53MKDQm1c2PFxmYFSDp03siRz8rgwYNyHHrixHGZOPEDU1hUtMoiz9DH80QVK0RIp06dTFhUyQZBc+Z8Ja1bt5batWvb3cLCysldd90lL5uKqcjICLtOq7VeffX/S+LuRPu7vKk+e+yRR+Tqa1rZ31rJ9VPCT3Y59x/th95b16732E0a3H3xxX9tEBhj5gqrU6eOXa+VXrVqXWIr2y69tJZdp1YNGlwmLVu2NCHW78Mk6jlPmKqwxMREW5GV+5r8RgABBBBAAAEEEEAAAQQQQAABBBBAAAEEEEAAgaILEFgV3eq876khiNNUNelQe1rNpEPy6XxTut7bnFGVK1eW9u3b237p9lWrV4uGLloZlV8Lzg6bNIiJjYmVNiYo8tbq168v+vFsOlzftOkzPFfJksX/k7Xr4t0VSXVM6HT33XflWxWl9xITGyPXX5c1HODu3bvlu6XfS6tWLe15NTx6/bXXpEWL5jmqlzS009Doq6+/NsMFpsr9ffrIVc2utMds3rJFJr7/gQmgTufom+uHBnC9evdwV1fNN+HfD2vXmvMHmWEIm0nVqlXtrvXq1pWJE95zHeb+7tevr+gnd1u2bJk8+ujjolVxNAQQQAABBBBAAAEEEEAAAQQQQAABBBBAAAEEECi+AIFV8e3O+ZEhJkSSkBBbSaWBlYZKWkWlwwJ26dzJVEGVy3HNqKhIiYmJset03yGDB0uvnj1z7JP7x4EDv5oqrLfl119/zb2p0N8ahGWY4fJcTUOyed/OlylTproDNQ2AOtzUQapfVM2Gbq59Xd8aHt1z991SvXp1u+rgwSQ5duyYa7MNumJiot1h1YIFC+WSS2pKEzP0Ya9ePU2g5zRD9x2TQYMesDYaor05+i3R4Mt7c0q7dm3lri532s26/5w5c2x1lc6jdcMN17uv5f34gtYWrdKsoDOwDQEEEEAAAQQQQAABBBBAAAEEEEAAAQQQQAABBEQIrPzkLQgNDZG+998vDz44RKabKqYPP/rYhko695JWOrVp06bAnmrApUFPYe3gwYNmKL4ISU1NlTFjx8pUEzaJqTSqUqWKDHtqqB06T4fM+8c/X7PzSXmu17mdUlPTCrtEgdtbNG8md97ZJd99du7cKc89/7x069pNtHJqypRppk/RMubdd+yQgffe19t9rAZoEye+L4uXLPFaVabVXPXr1ZWhTz5hhx/UA/UY1xxVjeMay1VXZVVpaWXaFjPnVmZGpq28atCggTXRY9Rsz55fdNHd9NwbNmyQNI8Az72RBQQQQAABBBBAAAEEEEAAAQQQQAABBBBAAAEEEDgrAQKrs+I6fztffvkVZs6owVKjRg156KG/2KqqMWPGymwzv9P5qOPR4CYxcY/96F1pFVNKSoq9QQ2s4uPXSUJCgtSsWdMMM5i1XoOelNQzxULQgOeiiy6SIUOGiA5lmF8zu8m+fb/KsKeH22EGtZ/r1/8oEya8L889NzLHUIP//fJL+deHH9k5uzSw8/zo9XSOrMcef9xWZ+W+ngaBt9xys0RFRdlNEyZMNAHeOBtm6fxezwx/WgYM6G8DrnHjxsunkz5zV5HlPhe/EUAAAQQQQAABBBBAAAEEEEAAAQQQQAABBBBAwDcBAivf/M7J0Tqcn1ZYHT58yAREF9tz6pxNf//7C3LbbbfLWFMJNX/efFsJ5cjUOaCi5dlnhtvgR4OZSSZMmT1ntgl4xM5LNXz4MBvE6JB9Y8e9J9+ZCiTbTCWVhlI7d+7K+u3xV4cerFixol2j+2jFkbbQ0FAJDw+zy2lpaXb+KPvjLP9oQHTfvb3luuy5q/I/3GlCokwbDqlL46aNZdiTQ224lPsYHVqwaZOm8vY774gOHahBm4ZWelz58uVl0AMDzfCDd+U+zO6jc2b96U932G2//fabLFq82IZVeXZmBQIIIIAAAggggAACCCCAAAIIIIAAAggggAACCJx3AQKr805c+AW0imjNmh+kW/decvPNHeUvZljAuLg4e2By8knZuHGjHD5y2AQ5zuwKrAfdVUrr1q+3lUH79++3Qc2GDT9JzVoXyyMPPWymwwoxgc2dsmjRQlm7Nt5dgeStR+UrlhedX0pbcnKyO7AKM0GWhj/aUlPS7PxaNhmza4r2R0OkNq1by8CBA2wfCjoq1ARbGkJ16dxZOnXqLFdc0TTH7vHx8dahZcsWdr0Ogzh2zLu2X0uW/E/mz58vy1eskJYtW5pqrsFe56eqWrWq3HnXnaKhoLavv/5Gtm3bbpf5gwACCCCAAAIIIIAAAggggAACCCCAAAIIIIAAAiUvQGBV8ub5XvH06WT58stZMnfuPOnRvZvcd9+9JowaL4cOa1jlkLp168pr//yHtGvX1p7j+PHjEm+CqK5d75F0U/202AQ2O3bskE8+niRxsXFy000d7bxPb705WoY+9bSsXr3ankcrkDRE8mxVoiq753k6evSYqaTKrrAKDxWtvtKWkppiqpAyPA8r8nJoud/Po5VfGqZ5a9ENG8oHH0zMs0nnkTp1KlmaN29ut8WvWyd169Rxh06uIf46duwgr7zyqrnXNXLo0CFrpiGXmIEVm5v5s7QdOXJEhj/9jAw0Q/61adPWDPc3SU6ePGm36R/tm0PL1bKbBoUZGRlehwQMNlVrwcHe78V1PN8IIIAAAggggAACCCCAAAIIIIAAAggggAACCCBQsEBwwZvZWhoCqamp8tnn/5Z7unY1c0lp2CKiQ9hN+vRjd1il+7wx+k0JMUP2DX96mAwb9pTExsbYICopKUlefOklWbduvT22fv36Mvk/n8sLLzxvQ57cYZX+rlaturvCKulQkuj5tZUPK++eN0qHCszISLfrz+aPDluoAdI8M6zhkSNHzRCH421o5O0cGmbpXFmutn37dnl2xEi59bY75Ou539jVuv3TTyfZdRpO6ZB+rjZr9myZNn2GbNq8WSZPniI7d+2S198YLQcO/Oraxc6NdeDAAXl51CvStVs3E/L97N7GAgIIIIAAAggggAACCCCAAAIIIIAAAggggAACCJS8ABVWJW9epCtWqBAuERGRZji+CmaIwAelf/9+7konDWxee/0NmTnzC3n00Ud+P58pCtL5n7QiaPfuRHn0scdk1Msvy/XXX2ePfcAMydf3/j7y3sQJMt7MbZWcfNoeqxVXtWrVcgdTv5rhBdPSskIjHSYwPDzc7nf69OmsIQF/v2KRl3SYwf9MnizfL1smOnzhvff28nrszp07ZfKUqWYur5oyZ84cWb/+R1vd5Kry8jxIq67Gjhsv73/wLxvWxUTHyMpVq0Qrz7R9OWu2GR5wpfz888+ic3+5mt7PyJEjZMjgQa5V+X6rzYsv/t1+vO20Z88e6dd/oL2Gt+2sQwABBBBAAAEEEEAAAQQQQAABBBBAAAEEEEAAgcIFCKwKNyrxPbTi6aorm8mrr46S7dt3mGHrWrvDKu3M5s1b5ccf15sQJjNP33R4uipVoiQ0JNjMh3WzNG6cNReWa8ejR4/KqpWrzRxVKa5VEmqqtHR4Pb2uVjgl7vnFDh2ovytVquS+9okTx91BlvvgIi5olZXO06WfFi2yhvXzdqjOl3WDCdiuvfZaGfTAQG+72P7oMIf6yd3GvDtW3nrnHVultXfvXtFPRESEBOWqJQw293aumjrREEAAAQQQQAABBBBAAAEEEEAAAQQQQAABBBBAoPgCBFbFtztvR2qA1K5dG6lvhvLTeat2mWHtKlasaIbV+0ESEn6SPn3+LNOmTpVPPvnUzJ+UFZZoBVK/vn3lbyNHSqXICJkwYaL07t1LqlevbsOb6dOn2/Bp3rxvZfnyFTaQct1ARERFadCggf155swZ2b9vvw2utLooKjLSBlq6Ued+0kDr/DcfAqCQoh2rAdq5aufyXOeqT5wHAQQQQAABBBBAAAEEEEAAAQQQQAABBBBAAIFAEiCw8sOnVa3aRdLeVBhpO3XqlJ2DKTFxjxlKb5+dh0qHtNPh+VatXi3NmzWz+2mQdNxUQF1etamdi+qyyy6zgdbTZn4rDbNatmwpgwcPMXM67bb7e/6pVq2aCcfq2VVJSYdknxmyT5tWDlWuXNkdWB0+cswOz2c3+ukfp9NRaM90fq5RZu4r/Xhr6vvM8KdlwID+Nth78aWX7ZxZJRPWeesR6xBAAAEEEEAAAQQQQAABBBBAAAEEEEAAAQQQKNsCuQZKK9s3Gwh3pyFRkyZNJCY62nZ327Ztdhi9hIQEaWBCqGvbt7frf/hhrayLXyeZjqyAxmG+l69YIZs2bbLbW13dSjZs2CCLFi+2v6PN+Xr16uWep8quNH/0etF/jJYaNWrYVTt27JCkpCS7rBVWF11UzVRxBdvg5sTxY1KUQMh17uJ8nzqVLM88O0Iamj6NGvWquYcEGTNmjHTq3EXGj3/PnlLn8Bo2bLh0ufMuM0/VLBk9+k2JiY2TuvUuk9dfG20ryopzbY5BAAEEEEAAAQQQQAABBBBAAAEEEEAAAQQQQACB0hEgsCod93yvqtVQ1113rR0CUHf633dL7VB8kWZovr59+4lWQ2lgM3v2bDl67FiO8xw5fEQWL15iQiWn1LrkEhPg1JPPP/u3HMver3PnTqLBlWfLqr5qIVpVpMfFx8eb6q1ku0u5cmFS69JL7HJGRoYcPJhkgqtcQ+mZYzQsc31soJV7H88LFrrstP2oZ/reu3dPueKKpjZoq1KlSo4jmzRtImPefUfu7NJFHn/8Mel7//3uubZy7MgPBBBAAAEEEEAAAQQQQAABBBBAAAEEEEAAAQQQ8HsBAis/e0R16tSR67KHA9SgadXKlbbCqVevntKp0x22t1p1tSzXPFS6IT0jXeLXrZMTJ07Y8KZZ82aSsHGjfPXVV/a4WrVqyZ/MOcLCwuxv/XOJCbbatWtrfx8/ftwcv94M+5c1T1X58mFS8+KadpsOQXjw4G82mLIrsv9oyOUKq7K+cwVanjsXuOyaeypIIiMryeBBg9zzak0283WtX/+jDbJcp9iYsNEO6ad9DgkJkSeeeFxuueVma+Xah28EEEAAAQQQQAABBBBAAAEEEEAAAQQQQAABBBAIDAECKz96TiEhwba6SquLtG3evNnOOdW2TRt55OGHbDBz5swZ+deHH8mBA79mBTgmMPJsu3cnyt69e+2q2OgYO//UlKnTzP4H7LqON3YwIVVWCKXX69ixg7vqapO53tatW+w8VVpRVfUPVaVu3br2uGPHjsshU8Hl2TQo+utfH5cZ06fJf7+YaT9vvP6arQLT/TTMOtumYdXDDz0s3bt3s4dqn6ZMnip6354t05EpixYtljffettWnFWsWFGeGvqkO+Ty3JdlBBBAAAEEEEAAAQQQQAABBBBAAAEEEEAAAQQQ8G8BAis/ej7VqlWXLp07u+eMWrBgoRw9ekQS9yTK8uXLbQA0feYM+frrbyQ1NU0yMzPzhEJacfTzrp226ikxMdGGTzov1XdmaEFtOmdVREQle5xWc/U281rpHFXa9v6yVzQsq137UlvlpBVarnDr0KEkW7lld/T4U7NmTWnVqqX7ExMTba/hsUuhiwcPHpRu3XvIH6Nj5aOPP5Hbb7/VhnNaYfbPf7wmiYm77b06JGcApqHajBkzZd7c+fYaDRs2lH797zfDKUYUek12QAABBBBAAAEEEEAAAQQQQAABBBBAAAEEEEAAAf8RCPWfrlzYPdHQ6OpWrSQurpGF0Cqp75YttcPzadXUY4//VcaNn2ArjWJjY2zIFBoaKrXr1skBl5JyRsaOGS+vjHrVVFX9ZoMpDakmmyqlhYsWydKlSyU5+bRUqhQh/fv3Fw2YtO3ctUt2795t5ryaZLZVynFO/bFx4yavgVWeHYu5Qqu1br31Fhn65BN2OMPU1FR5990xElU5Sh59+BEJDg2R9m2zhi70vIQOfzjh/YlyVbMrTdBWW1o2b2GGMaxh78dzP5YRQAABBBBAAAEEEEAAAQQQQAABBBBAAAEEEEDAfwUIrPzk2Wio5DT/kpOTpUKFCqYi6nvZs/sXd+90XqmEhAQ75N3oN14XrSbybBrwHD161AZcW7Zs8dxkQ6u18Wvd6/Ra7du1lx7Zw+6lp6fLh//6UBYsXCgdOnSQli1buPfVBQ2+vpk7T9LS0nLMf6VD/unwhPPmzTXXyDqkUWysPPPM8OzQyzUvVY7TmbECPdZnL2q12Pz539rKqqeHPSWzZs8RHcrw3nt7y9CnnnRXgemZtL9aSeYacnDTps3y3nsTpHr1GvLppEly6NChXBfUS2ZdSIPBIPOPhgACCCCAAAIIIIAAAggggAACCCCAAAIIIIAAAv4jQGDlJ89CA5s5c76SDRt+kn79+sr8efPNsH+peXq3f/9+Wbl6dZ7AauWqVbJ1y9Y8+3tboUHPosWLZcTIv8nfX3jeDDe4wgZEGkjt3LnTHVg5HA6ZNWu2vDH6TdmzZ0+eU+n2nT/vlLVr19kh+3QHDdZSUlK8VmnlOYFZ4Rkd6fW//HKWCcDm26EMdci/FStW2ACqRo0a7sN/+GGtCe82ugMr3W/SZ5+7t7OAAAIIIIAAAggggAACCCCAAAIIIIAAAggggAACgSUQdPJUSs6JgUqp/5UiwkvpylmXrVe/Qalev6gX16HzOpoqqB49uttqrCNHjsi27dttwHXYLJ9N03M1N/NU6RxSiYl5Aylv59IKJR16r7qZb8vhdIgOXZiUlORt13zXRUdHy5NP/NVURFWX+Ph4GTN2XL7DDUZGRsrtt90q1apVk0OHD8v2bdtl46ZNttor3wvk2lCuXDm58YYb7PCHGqbN/3aB1wDOdZju36tnD+nUqbMJztJN1dZnsmDBAnco59rPn74Td+/0p+7QFwQQQAABBBBAAAEEEEAAAQQQQAABBBBAAAEEzkqAwCqbK1ACq7N6uux8wQgQWF0wj5obRQABBBBAAAEEEEAAAQQQQAABBBBAAAEEyqRAcJm8K24KAQQQQAABBBBAAAEEEEAAAQQQQAABBBBAAAEEEEAgYAQIrALmUdFRBBBAAAEEEEAAAQQQQAABBBBAAAEEEEAAAQQQQKBsChBYlc3nyl0hgAACCCCAAAIIIIAAAggggAACCCCAAAIIIIAAAgEjQGAVMI+KjiKAAAIIIIAAAggggAACCCCAAAIIIIAAAggggAACZVOAwKpsPlfuCgEEEEAAAQQQQAABBBBAAAEEEEAAAQQQQAABBBAIGAECq+xHFRUVFTAPjY4i4CnAu+upwTICCCCAAAIIIIAAAggggAACCCCAAAIIIIBAIAoQWGU/tdq1Lw3E50efERDeXV4CBBBAAAEEEEAAAQQQQAABBBBAAAEEEEAAgUAXILDKfoJxcXGB/izp/wUqwLt7gT54bhsBBBBAAAEEEEAAAQQQQAABBBBAAAEEEChDAgRW2Q/z6latytBj5VYuJAHe3QvpaXOvCCCAAAIIIIAAAggggAACCCCAAAIIIIBA2RQgsMp+rjfeeEPZfMLcVZkX4N0t84+YG0QAAQQQQAABBBBAAAEEEEAAAQQQQAABBMq8AIFV9iOOioqSrl3vKfMPnBssWwL6zuq7S0MAAQQQQAABBBBAAAEEEEAAAQQQQAABBBBAIJAFCKyyn15wcLD0+fN9gfws6fsFKKDvrL67NAQQQAABBBBAAAEEEEAAAQQQQAABBBBAAAEEAlmA/+nOfnqhoaESGxsr/fv1DeTnSd8vIAF9V/Wd1XeXhgACCCCAAAIIIIAAAggggAACCCCAAAIIIIBAIAsEnTyV4vSHG6gUEV6q3XA6nXLmzBnbh67dusumTZtLtT9cHIGCBBo3jpMZ06fZXSpUqCBBQUEF7c42BBBAAAEEEEAAAQQQQAABBBBAAAEEEEAAAQT8WoAKq+zHo//hHxISYn+98sooMy9QpF8/ODp34Qrou6nvqDZ9ZwmrLtx3gTtHAAEEEEAAAQQQQAABBBBAAAEEEEAAAQTKigCBlceTLFeunP0VGxMjY8eMIbTysGHRPwQ0rNJ3U99Rba531j96Ry8QQAABBBBAAAEEEEAAAQQQQAABBBBAAAEEECieAIGVh1twcLB7PqCWLVvIp59+Ijr0Gg0BfxDQd1HfSX03tencVfrO0hBAAAEEEEAAAQQQQAABBBBAAAEEEEAAAQQQCHQB/rc71xMMCwtzD7GmVSw6T1D/fn1z7cVPBEpWQN9BfRddlVU6DKC+qzQEEEAAAQQQQAABBBBAAAEEEEAAAQQQQAABBMqCQNDJUylOf7iRShHh/tAN2weHwyEpKSk5+rN161aZ9NnnMmPGzBzr+YHA+RTo2vUe6fPn+yQ2NjbHZcqXL091VQ4RfiCAAAIIIIAAAggggAACCCCAAAIIIIAAAggEsgCBVT5PLzMzU1JTU/NsPXHihCxZ8j9ZvWaNbN68Wfbu3Se6joaArwJRUVFSu/alEhcXJ1e3aiU33HC9mUctKs9pw8PDJSQkJM96ViCAAAIIIIAAAggggAACCCCAAAIIIIAAAgggEKgCBFYFPDmttNLQyun0iyK0AnrKpgtBQIcB1LCKeasuhKfNPSKAAAIIIIAAAggggAACCCCAAAIIIIAAAheWAHNYFfC8NRioUKGChIaGFrAXmxA4/wL6Duq7SFh1/q25AgIIIIAAAggggAACCCCAAAIIIIAAAggggEDJC5DEFME8LCzMhlbp6emiQwXSECgpAR36r1y5cgRVJQXOdRBAAAEEEEAAAQQQQAABBBBAAAEEEEAAAQRKRYDAqojsWtmiw7Hp8IA6VGBGRob9ZrjAIgKyW5EEdNg/fde0okq/9TcNAQQQQAABBBBAAAEEEEAAAQQQQAABBBBAAIGyLkBgdZZPWAMErXrRDw0BBBBAAAEEEEAAAQQQQAABBBBAAAEEEEAAAQQQQMB3Aeaw8t2QMyCAAAIIIIAAAggggAACCCCAAAIIIIAAAggggAACCPggQGDlAx6HIoAAAggggAACCCCAAAIIIIAAAggggAACCCCAAAII+C5AYOW7IWdAAAEEEEAAAQQQQAABBBBAAAEEEEAAAQQQQAABBBDwQYDAygc8DkUAAQQQQAABBBBAAAEEEEAAAQQQQAABBBBAAAEEEPBdgMDKd0POgAACCCCAAAIIIIAAAggggAACCCCAAAIIIIAAAggg4IMAgZUPeByKAAIIIIAAAggggAACCCCAAAIIIIAAAggggAACCCDguwCBle+GnAEBBBBAAAEEEEAAAQQQQAABBBBAAAEEEEAAAQQQQMAHAQIrH/A4FAEEEEAAAQQQQAABBBBAAAEEEEAAAQQQQAABBBBAwHcBAivfDTkDAggggAACCCCAAAIIIIAAAggggAACCCCAAAIIIICADwIEVj7gcSgCCCCAAAIIIIAAAggggAACCCCAAAIIIIAAAggggIDvAgRWvhtyBgQQQAABBBBAAAEEEEAAAQQQQAABBBBAAAEEEEAAAR8ECKx8wONQBBBAAAEEEEAAAQQQQAABBBBAAAEEEEAAAQQQQAAB3wX8JrByOn2/Gc6AAAIIIIAAAggggAACCCCAAAIIIIAAAggggAACCCAQeAJ+FFiRWAXe60OPEUAAAQQQQAABBBBAAAEEEEAAAQQQQAABBBBAAAHfBfwnsHIQWPn+ODkDAggggAACCCCAAAIIIIAAAggggAACCCCAAAIIIBB4An4TWGVkOgJPjx4jgAACCCCAAAIIIIAAAggggAACCCCAAAIIIIAAAgj4LOA3gVUmFVY+P0xOgAACCCCAAAIIIIAAAggggAACCCCAAAIIIIAAAggEooDfBFYOh0MyM6iyCsSXiD4jgAACCCCAAAIIIIAAAggggAACCCCAAAIIIIAAAr4I+E1gpTeRlp7py71wLAIIIIAAAggggAACCCCAAAIIIIAAAggggAACCCCAQAAK+FVglWmqrNIJrQLwNaLLCCCAAAIIIIAAAggggAACCCCAAAIIIIAAAggggEDxBfwqsNLbSE3LEAfzWRX/iXIkAggggAACCCCAAAIIIIAAAggggAACCCCAAAIIIBBgAn4XWKlfamqGOJ0BJkl3EUAAAQQQQAABBBBAAAEEEEAAAQQQQAABBBBAAAEEiiXgl4GVDg2YmppGaFWsR8pBCCCAAAIIIIAAAggggAACCCCAAAIIIIAAAggggEBgCfhlYKWEGZlOSUlJZ3jAwHqf6C0CCCCAAAIIIIAAAggggAACCCCAAAIIIIAAAgggcNYCfhtY6Z1opdXpM2mSnp551jfGAQgggAACCCCAAAIIIIAAAggggAACCCCAAAIIIIAAAoEh4NeBlYswNS1DzpxJl8wMh2sV3wgggAACCCCAAAIIIIAAAggggAACCCCAAAIIIIAAAmVEIDRQ7kOrrc6kOiQ4PVhCgoMkNCRYgsx3UJB+AuUu6CcCCCCAAAIIIIAAAggggAACCCCAAAIIIIAAAgggcGELOJ0iTvPH6XCaKaIcZsQ9p/wfJWKO6chV3hQAAAAASUVORK5CYII=;fontSize=17;fontStyle=1" vertex="1" parent="1">
          <mxGeometry x="1030" y="696.14" width="1114.95" height="413.86" as="geometry" />
        </mxCell>
        <mxCell id="eerBL6bkFfEhBPz6Ej5V-28" value="Drools script" style="text;html=1;align=center;verticalAlign=middle;whiteSpace=wrap;rounded=0;fontStyle=1;fontSize=14;" vertex="1" parent="1">
          <mxGeometry x="160" y="948.28" width="140" height="30" as="geometry" />
        </mxCell>
        <mxCell id="eerBL6bkFfEhBPz6Ej5V-30" value="Marketing Event publish" style="rounded=1;whiteSpace=wrap;html=1;fillColor=#ffe6cc;fontSize=17;strokeColor=#d79b00;fontStyle=1" vertex="1" parent="1">
          <mxGeometry x="-66.23962264150944" y="1013.5690476190478" width="227.1488469601677" height="78.57142857142857" as="geometry" />
        </mxCell>
        <mxCell id="eerBL6bkFfEhBPz6Ej5V-32" value="" style="rounded=0;whiteSpace=wrap;html=1;dashed=1;" vertex="1" parent="1">
          <mxGeometry x="910" y="1300" width="270" height="110" as="geometry" />
        </mxCell>
        <mxCell id="eerBL6bkFfEhBPz6Ej5V-33" value="" style="endArrow=classic;html=1;rounded=0;entryX=0.2;entryY=0.941;entryDx=0;entryDy=0;entryPerimeter=0;strokeColor=#FF8000;strokeWidth=2;" edge="1" parent="1">
          <mxGeometry relative="1" as="geometry">
            <mxPoint x="930" y="1334" as="sourcePoint" />
            <mxPoint x="1140" y="1333.65126" as="targetPoint" />
          </mxGeometry>
        </mxCell>
        <mxCell id="eerBL6bkFfEhBPz6Ej5V-34" value="Event" style="edgeLabel;resizable=0;html=1;;align=center;verticalAlign=middle;fontSize=15;fontStyle=1" connectable="0" vertex="1" parent="eerBL6bkFfEhBPz6Ej5V-33">
          <mxGeometry relative="1" as="geometry" />
        </mxCell>
        <mxCell id="eerBL6bkFfEhBPz6Ej5V-35" value="" style="endArrow=classic;html=1;rounded=0;entryX=0.2;entryY=0.941;entryDx=0;entryDy=0;entryPerimeter=0;strokeColor=#3333FF;strokeWidth=2;" edge="1" parent="1">
          <mxGeometry relative="1" as="geometry">
            <mxPoint x="931" y="1385" as="sourcePoint" />
            <mxPoint x="1141" y="1385" as="targetPoint" />
          </mxGeometry>
        </mxCell>
        <mxCell id="eerBL6bkFfEhBPz6Ej5V-36" value="Event Trigger Rule" style="edgeLabel;resizable=0;html=1;;align=center;verticalAlign=middle;fontSize=14;fontStyle=1" connectable="0" vertex="1" parent="eerBL6bkFfEhBPz6Ej5V-35">
          <mxGeometry relative="1" as="geometry" />
        </mxCell>
        <mxCell id="eerBL6bkFfEhBPz6Ej5V-39" value="" style="edgeStyle=orthogonalEdgeStyle;rounded=0;orthogonalLoop=1;jettySize=auto;html=1;strokeWidth=2;strokeColor=#FF9933;" edge="1" parent="1" source="eerBL6bkFfEhBPz6Ej5V-38" target="eerBL6bkFfEhBPz6Ej5V-16">
          <mxGeometry relative="1" as="geometry" />
        </mxCell>
        <mxCell id="eerBL6bkFfEhBPz6Ej5V-38" value="Data Validation" style="rounded=1;whiteSpace=wrap;html=1;fillColor=#ffe6cc;fontSize=17;strokeColor=#d79b00;fontStyle=1" vertex="1" parent="1">
          <mxGeometry x="-55.5392243186583" y="696.1428571428573" width="204.0880503144654" height="52.38095238095237" as="geometry" />
        </mxCell>
        <mxCell id="eerBL6bkFfEhBPz6Ej5V-41" style="edgeStyle=orthogonalEdgeStyle;rounded=0;orthogonalLoop=1;jettySize=auto;html=1;entryX=0;entryY=0.5;entryDx=0;entryDy=0;entryPerimeter=0;exitX=0.5;exitY=1;exitDx=0;exitDy=0;strokeWidth=2;strokeColor=#FF9933;" edge="1" parent="1" source="eerBL6bkFfEhBPz6Ej5V-37" target="eerBL6bkFfEhBPz6Ej5V-22">
          <mxGeometry relative="1" as="geometry" />
        </mxCell>
        <mxCell id="eerBL6bkFfEhBPz6Ej5V-43" value="&lt;h1 style=&quot;margin-top: 0px;&quot;&gt;&lt;font style=&quot;font-size: 19px;&quot;&gt;Msg5 generic event&lt;/font&gt;&lt;/h1&gt;&lt;div&gt;&lt;b&gt;&lt;font style=&quot;font-size: 14px;&quot;&gt;header:&amp;nbsp; campaign_ids, element ids&lt;/font&gt;&lt;/b&gt;&lt;div&gt;&lt;b&gt;&lt;font style=&quot;font-size: 14px;&quot;&gt;key: cardnumer&lt;/font&gt;&lt;/b&gt;&lt;/div&gt;&lt;/div&gt;&lt;div&gt;&lt;b&gt;&lt;font style=&quot;font-size: 14px;&quot;&gt;value: msg5&lt;/font&gt;&lt;/b&gt;&lt;/div&gt;" style="text;html=1;whiteSpace=wrap;overflow=hidden;rounded=0;" vertex="1" parent="1">
          <mxGeometry x="630" y="1049" width="250" height="120" as="geometry" />
        </mxCell>
        <mxCell id="eerBL6bkFfEhBPz6Ej5V-55" style="edgeStyle=orthogonalEdgeStyle;rounded=0;orthogonalLoop=1;jettySize=auto;html=1;entryX=0;entryY=0.5;entryDx=0;entryDy=0;strokeWidth=2;strokeColor=#3333FF;" edge="1" parent="1" source="eerBL6bkFfEhBPz6Ej5V-6" target="eerBL6bkFfEhBPz6Ej5V-51">
          <mxGeometry relative="1" as="geometry">
            <Array as="points">
              <mxPoint x="570" y="628" />
              <mxPoint x="570" y="850" />
            </Array>
          </mxGeometry>
        </mxCell>
        <mxCell id="eerBL6bkFfEhBPz6Ej5V-57" style="edgeStyle=orthogonalEdgeStyle;rounded=0;orthogonalLoop=1;jettySize=auto;html=1;strokeWidth=2;strokeColor=#3333FF;" edge="1" parent="1" source="eerBL6bkFfEhBPz6Ej5V-51" target="eerBL6bkFfEhBPz6Ej5V-9">
          <mxGeometry relative="1" as="geometry">
            <Array as="points">
              <mxPoint x="580" y="869" />
              <mxPoint x="580" y="869" />
            </Array>
          </mxGeometry>
        </mxCell>
        <mxCell id="eerBL6bkFfEhBPz6Ej5V-44" value="Workflow" style="rounded=0;whiteSpace=wrap;html=1;strokeWidth=0.8;fillColor=#E6E6E6;fontColor=#333333;strokeColor=none;verticalAlign=top;fontSize=18;fontStyle=1;container=0;" vertex="1" parent="1">
          <mxGeometry x="610" y="570" width="232.48" height="170" as="geometry" />
        </mxCell>
        <mxCell id="eerBL6bkFfEhBPz6Ej5V-6" value="Realtime campaign creation" style="rounded=1;whiteSpace=wrap;html=1;fillColor=light-dark(#FFB366,var(--ge-dark-color, #121212));fontSize=17;strokeColor=none;fontStyle=1;container=0;" vertex="1" parent="1">
          <mxGeometry x="639.2282840597379" y="605.7894736842105" width="174.02343188052419" height="44.73684210526316" as="geometry" />
        </mxCell>
        <mxCell id="eerBL6bkFfEhBPz6Ej5V-45" value="Generic Event listener" style="rounded=1;whiteSpace=wrap;html=1;fillColor=light-dark(#FFB366,var(--ge-dark-color, #121212));fontSize=17;strokeColor=none;fontStyle=1;container=0;" vertex="1" parent="1">
          <mxGeometry x="640.9465528802194" y="668.421052631579" width="172.30516306004264" height="44.73684210526316" as="geometry" />
        </mxCell>
        <mxCell id="eerBL6bkFfEhBPz6Ej5V-51" value="Event Center" style="rounded=0;whiteSpace=wrap;html=1;strokeWidth=0.8;fillColor=#E6E6E6;fontColor=#333333;strokeColor=none;verticalAlign=top;fontSize=18;fontStyle=1;container=0;" vertex="1" parent="1">
          <mxGeometry x="610" y="800" width="232.48" height="100" as="geometry" />
        </mxCell>
        <mxCell id="eerBL6bkFfEhBPz6Ej5V-52" value="Rule compile to Drools script" style="rounded=1;whiteSpace=wrap;html=1;fillColor=light-dark(#FFB366,var(--ge-dark-color, #121212));fontSize=17;strokeColor=none;fontStyle=1;container=0;" vertex="1" parent="1">
          <mxGeometry x="639.2282840597379" y="842.9994736842106" width="174.02343188052419" height="44.73684210526316" as="geometry" />
        </mxCell>
        <mxCell id="eerBL6bkFfEhBPz6Ej5V-29" value="Msg5 Event Trigger Rule" style="text;html=1;align=center;verticalAlign=middle;whiteSpace=wrap;rounded=0;fontStyle=1;fontSize=12;" vertex="1" parent="1">
          <mxGeometry x="460" y="590" width="159.56" height="31.43" as="geometry" />
        </mxCell>
        <mxCell id="eerBL6bkFfEhBPz6Ej5V-60" style="edgeStyle=orthogonalEdgeStyle;rounded=0;orthogonalLoop=1;jettySize=auto;html=1;entryX=1;entryY=0.5;entryDx=0;entryDy=0;strokeWidth=2;strokeColor=#3333FF;" edge="1" parent="1" source="eerBL6bkFfEhBPz6Ej5V-26" target="eerBL6bkFfEhBPz6Ej5V-6">
          <mxGeometry relative="1" as="geometry" />
        </mxCell>
        <mxCell id="eerBL6bkFfEhBPz6Ej5V-59" style="edgeStyle=orthogonalEdgeStyle;rounded=0;orthogonalLoop=1;jettySize=auto;html=1;entryX=1;entryY=0.5;entryDx=0;entryDy=0;strokeWidth=2;strokeColor=#FF9933;" edge="1" parent="1" source="eerBL6bkFfEhBPz6Ej5V-22" target="eerBL6bkFfEhBPz6Ej5V-45">
          <mxGeometry relative="1" as="geometry">
            <Array as="points">
              <mxPoint x="900" y="1222" />
              <mxPoint x="900" y="691" />
            </Array>
          </mxGeometry>
        </mxCell>
      </root>
    </mxGraphModel>
  </diagram>
</mxfile>
